G04 MADE WITH FRITZING*
G04 WWW.FRITZING.ORG*
G04 DOUBLE SIDED*
G04 HOLES PLATED*
G04 CONTOUR ON CENTER OF CONTOUR VECTOR*
%ASAXBY*%
%FSLAX23Y23*%
%MOIN*%
%OFA0B0*%
%SFA1.0B1.0*%
%ADD10C,0.019307X0.00330707*%
%ADD11C,0.008000*%
%ADD12C,0.004000*%
%ADD13C,0.010000*%
%ADD14C,0.005000*%
%ADD15C,0.003937*%
%ADD16R,0.001000X0.001000*%
%LNSILK1*%
G90*
G70*
G54D10*
X1090Y1336D03*
G54D11*
X1070Y1238D02*
X1188Y1238D01*
D02*
X1188Y1356D02*
X1070Y1356D01*
G54D12*
D02*
X235Y605D02*
X235Y427D01*
D02*
X85Y605D02*
X85Y427D01*
G54D11*
D02*
X200Y491D02*
X160Y545D01*
D02*
X160Y545D02*
X121Y491D01*
D02*
X121Y491D02*
X200Y491D01*
D02*
X200Y545D02*
X121Y545D01*
G54D13*
D02*
X261Y703D02*
X261Y1003D01*
D02*
X261Y1003D02*
X61Y1003D01*
D02*
X61Y1003D02*
X61Y703D01*
D02*
X261Y703D02*
X211Y703D01*
D02*
X111Y703D02*
X61Y703D01*
D02*
X990Y460D02*
X590Y460D01*
D02*
X590Y460D02*
X590Y360D01*
D02*
X590Y360D02*
X990Y360D01*
D02*
X990Y360D02*
X990Y460D01*
G54D14*
D02*
X955Y460D02*
X990Y425D01*
G36*
X150Y1291D02*
X150Y1291D01*
X150Y1291D01*
X150Y1291D01*
X149Y1291D01*
X149Y1290D01*
X149Y1290D01*
X149Y1289D01*
X149Y1289D01*
X149Y1287D01*
X149Y1287D01*
X149Y1286D01*
X148Y1286D01*
X148Y1284D01*
X148Y1284D01*
X148Y1283D01*
X148Y1283D01*
X148Y1282D01*
X148Y1282D01*
X148Y1280D01*
X147Y1280D01*
X147Y1279D01*
X147Y1279D01*
X147Y1278D01*
X147Y1278D01*
X147Y1276D01*
X147Y1276D01*
X147Y1275D01*
X146Y1275D01*
X146Y1274D01*
X146Y1274D01*
X146Y1272D01*
X146Y1272D01*
X146Y1271D01*
X146Y1271D01*
X146Y1271D01*
X145Y1271D01*
X145Y1271D01*
X145Y1271D01*
X145Y1270D01*
X144Y1270D01*
X144Y1270D01*
X144Y1270D01*
X144Y1270D01*
X143Y1270D01*
X143Y1270D01*
X143Y1270D01*
X143Y1269D01*
X142Y1269D01*
X142Y1269D01*
X141Y1269D01*
X141Y1269D01*
X141Y1269D01*
X141Y1269D01*
X140Y1269D01*
X140Y1268D01*
X139Y1268D01*
X139Y1268D01*
X139Y1268D01*
X139Y1268D01*
X138Y1268D01*
X138Y1267D01*
X138Y1267D01*
X138Y1267D01*
X137Y1267D01*
X137Y1267D01*
X136Y1267D01*
X136Y1267D01*
X136Y1267D01*
X136Y1266D01*
X135Y1266D01*
X135Y1266D01*
X134Y1266D01*
X134Y1266D01*
X134Y1266D01*
X134Y1266D01*
X133Y1266D01*
X133Y1265D01*
X133Y1265D01*
X133Y1265D01*
X132Y1265D01*
X132Y1265D01*
X188Y1265D01*
X188Y1265D01*
X187Y1265D01*
X187Y1265D01*
X187Y1265D01*
X187Y1266D01*
X186Y1266D01*
X186Y1266D01*
X185Y1266D01*
X185Y1266D01*
X185Y1266D01*
X185Y1266D01*
X184Y1266D01*
X184Y1267D01*
X184Y1267D01*
X184Y1267D01*
X183Y1267D01*
X183Y1267D01*
X182Y1267D01*
X182Y1267D01*
X182Y1267D01*
X182Y1268D01*
X181Y1268D01*
X181Y1268D01*
X181Y1268D01*
X181Y1268D01*
X180Y1268D01*
X180Y1269D01*
X179Y1269D01*
X179Y1269D01*
X179Y1269D01*
X179Y1269D01*
X178Y1269D01*
X178Y1269D01*
X178Y1269D01*
X178Y1270D01*
X177Y1270D01*
X177Y1270D01*
X176Y1270D01*
X176Y1270D01*
X175Y1270D01*
X175Y1270D01*
X175Y1270D01*
X175Y1271D01*
X174Y1271D01*
X174Y1271D01*
X174Y1271D01*
X174Y1271D01*
X174Y1271D01*
X174Y1273D01*
X174Y1273D01*
X174Y1274D01*
X173Y1274D01*
X173Y1275D01*
X173Y1275D01*
X173Y1277D01*
X173Y1277D01*
X173Y1278D01*
X173Y1278D01*
X173Y1279D01*
X172Y1279D01*
X172Y1281D01*
X172Y1281D01*
X172Y1282D01*
X172Y1282D01*
X172Y1283D01*
X172Y1283D01*
X172Y1285D01*
X171Y1285D01*
X171Y1286D01*
X171Y1286D01*
X171Y1287D01*
X171Y1287D01*
X171Y1289D01*
X171Y1289D01*
X171Y1290D01*
X170Y1290D01*
X170Y1291D01*
X170Y1291D01*
X170Y1291D01*
X150Y1291D01*
G37*
D02*
G36*
X114Y1276D02*
X114Y1276D01*
X113Y1276D01*
X113Y1276D01*
X113Y1276D01*
X113Y1276D01*
X113Y1276D01*
X113Y1275D01*
X113Y1275D01*
X113Y1275D01*
X112Y1275D01*
X112Y1275D01*
X112Y1275D01*
X112Y1275D01*
X112Y1275D01*
X112Y1274D01*
X112Y1274D01*
X112Y1274D01*
X111Y1274D01*
X111Y1274D01*
X111Y1274D01*
X111Y1274D01*
X111Y1274D01*
X111Y1273D01*
X111Y1273D01*
X111Y1273D01*
X110Y1273D01*
X110Y1273D01*
X110Y1273D01*
X110Y1273D01*
X110Y1273D01*
X110Y1272D01*
X110Y1272D01*
X110Y1272D01*
X109Y1272D01*
X109Y1272D01*
X109Y1272D01*
X109Y1272D01*
X109Y1272D01*
X109Y1271D01*
X109Y1271D01*
X109Y1271D01*
X108Y1271D01*
X108Y1271D01*
X108Y1271D01*
X108Y1271D01*
X108Y1271D01*
X108Y1270D01*
X108Y1270D01*
X108Y1270D01*
X107Y1270D01*
X107Y1270D01*
X107Y1270D01*
X107Y1270D01*
X107Y1270D01*
X107Y1269D01*
X107Y1269D01*
X107Y1269D01*
X106Y1269D01*
X106Y1269D01*
X106Y1269D01*
X106Y1269D01*
X106Y1269D01*
X106Y1268D01*
X106Y1268D01*
X106Y1268D01*
X105Y1268D01*
X105Y1268D01*
X105Y1268D01*
X105Y1267D01*
X105Y1267D01*
X105Y1267D01*
X105Y1267D01*
X105Y1267D01*
X104Y1267D01*
X104Y1267D01*
X104Y1267D01*
X104Y1266D01*
X104Y1266D01*
X104Y1266D01*
X104Y1266D01*
X104Y1266D01*
X103Y1266D01*
X103Y1266D01*
X103Y1266D01*
X103Y1265D01*
X103Y1265D01*
X103Y1265D01*
X103Y1265D01*
X103Y1265D01*
X131Y1265D01*
X131Y1265D01*
X131Y1265D01*
X131Y1265D01*
X130Y1265D01*
X130Y1266D01*
X130Y1266D01*
X130Y1266D01*
X130Y1266D01*
X130Y1266D01*
X129Y1266D01*
X129Y1266D01*
X129Y1266D01*
X129Y1267D01*
X129Y1267D01*
X129Y1267D01*
X128Y1267D01*
X128Y1267D01*
X128Y1267D01*
X128Y1267D01*
X128Y1267D01*
X128Y1268D01*
X127Y1268D01*
X127Y1268D01*
X127Y1268D01*
X127Y1268D01*
X126Y1268D01*
X126Y1269D01*
X126Y1269D01*
X126Y1269D01*
X126Y1269D01*
X126Y1269D01*
X125Y1269D01*
X125Y1269D01*
X125Y1269D01*
X125Y1270D01*
X125Y1270D01*
X125Y1270D01*
X124Y1270D01*
X124Y1270D01*
X124Y1270D01*
X124Y1270D01*
X124Y1270D01*
X124Y1271D01*
X123Y1271D01*
X123Y1271D01*
X123Y1271D01*
X123Y1271D01*
X122Y1271D01*
X122Y1271D01*
X122Y1271D01*
X122Y1272D01*
X122Y1272D01*
X122Y1272D01*
X121Y1272D01*
X121Y1272D01*
X121Y1272D01*
X121Y1272D01*
X121Y1272D01*
X121Y1273D01*
X120Y1273D01*
X120Y1273D01*
X120Y1273D01*
X120Y1273D01*
X119Y1273D01*
X119Y1273D01*
X119Y1273D01*
X119Y1274D01*
X119Y1274D01*
X119Y1274D01*
X118Y1274D01*
X118Y1274D01*
X118Y1274D01*
X118Y1274D01*
X118Y1274D01*
X118Y1275D01*
X117Y1275D01*
X117Y1275D01*
X117Y1275D01*
X117Y1275D01*
X117Y1275D01*
X117Y1275D01*
X116Y1275D01*
X116Y1276D01*
X116Y1276D01*
X116Y1276D01*
X115Y1276D01*
X115Y1276D01*
X115Y1276D01*
X115Y1276D01*
X114Y1276D01*
G37*
D02*
G36*
X205Y1276D02*
X205Y1276D01*
X205Y1276D01*
X205Y1276D01*
X204Y1276D01*
X204Y1276D01*
X204Y1276D01*
X204Y1275D01*
X203Y1275D01*
X203Y1275D01*
X203Y1275D01*
X203Y1275D01*
X203Y1275D01*
X203Y1275D01*
X202Y1275D01*
X202Y1274D01*
X202Y1274D01*
X202Y1274D01*
X202Y1274D01*
X202Y1274D01*
X201Y1274D01*
X201Y1274D01*
X201Y1274D01*
X201Y1273D01*
X201Y1273D01*
X201Y1273D01*
X200Y1273D01*
X200Y1273D01*
X200Y1273D01*
X200Y1273D01*
X199Y1273D01*
X199Y1272D01*
X199Y1272D01*
X199Y1272D01*
X199Y1272D01*
X199Y1272D01*
X198Y1272D01*
X198Y1272D01*
X198Y1272D01*
X198Y1271D01*
X198Y1271D01*
X198Y1271D01*
X197Y1271D01*
X197Y1271D01*
X197Y1271D01*
X197Y1271D01*
X197Y1271D01*
X197Y1270D01*
X196Y1270D01*
X196Y1270D01*
X196Y1270D01*
X196Y1270D01*
X195Y1270D01*
X195Y1270D01*
X195Y1270D01*
X195Y1269D01*
X194Y1269D01*
X194Y1269D01*
X194Y1269D01*
X194Y1269D01*
X194Y1269D01*
X194Y1269D01*
X193Y1269D01*
X193Y1268D01*
X193Y1268D01*
X193Y1268D01*
X193Y1268D01*
X193Y1268D01*
X192Y1268D01*
X192Y1267D01*
X192Y1267D01*
X192Y1267D01*
X192Y1267D01*
X192Y1267D01*
X191Y1267D01*
X191Y1267D01*
X191Y1267D01*
X191Y1266D01*
X190Y1266D01*
X190Y1266D01*
X190Y1266D01*
X190Y1266D01*
X190Y1266D01*
X190Y1266D01*
X189Y1266D01*
X189Y1265D01*
X189Y1265D01*
X189Y1265D01*
X189Y1265D01*
X189Y1265D01*
X217Y1265D01*
X217Y1265D01*
X217Y1265D01*
X217Y1265D01*
X217Y1265D01*
X217Y1266D01*
X216Y1266D01*
X216Y1266D01*
X216Y1266D01*
X216Y1266D01*
X216Y1266D01*
X216Y1266D01*
X216Y1266D01*
X216Y1267D01*
X215Y1267D01*
X215Y1267D01*
X215Y1267D01*
X215Y1267D01*
X215Y1267D01*
X215Y1267D01*
X215Y1267D01*
X215Y1268D01*
X214Y1268D01*
X214Y1268D01*
X214Y1268D01*
X214Y1268D01*
X214Y1268D01*
X214Y1269D01*
X214Y1269D01*
X214Y1269D01*
X213Y1269D01*
X213Y1269D01*
X213Y1269D01*
X213Y1269D01*
X213Y1269D01*
X213Y1270D01*
X213Y1270D01*
X213Y1270D01*
X212Y1270D01*
X212Y1270D01*
X212Y1270D01*
X212Y1270D01*
X212Y1270D01*
X212Y1271D01*
X212Y1271D01*
X212Y1271D01*
X211Y1271D01*
X211Y1271D01*
X211Y1271D01*
X211Y1271D01*
X211Y1271D01*
X211Y1272D01*
X211Y1272D01*
X211Y1272D01*
X210Y1272D01*
X210Y1272D01*
X210Y1272D01*
X210Y1272D01*
X210Y1272D01*
X210Y1273D01*
X210Y1273D01*
X210Y1273D01*
X209Y1273D01*
X209Y1273D01*
X209Y1273D01*
X209Y1273D01*
X209Y1273D01*
X209Y1274D01*
X209Y1274D01*
X209Y1274D01*
X208Y1274D01*
X208Y1274D01*
X208Y1274D01*
X208Y1274D01*
X208Y1274D01*
X208Y1275D01*
X208Y1275D01*
X208Y1275D01*
X207Y1275D01*
X207Y1275D01*
X207Y1275D01*
X207Y1275D01*
X207Y1275D01*
X207Y1276D01*
X207Y1276D01*
X207Y1276D01*
X206Y1276D01*
X206Y1276D01*
X206Y1276D01*
X206Y1276D01*
X205Y1276D01*
G37*
D02*
G36*
X102Y1265D02*
X102Y1265D01*
X218Y1265D01*
X218Y1265D01*
X102Y1265D01*
G37*
D02*
G36*
X102Y1265D02*
X102Y1265D01*
X218Y1265D01*
X218Y1265D01*
X102Y1265D01*
G37*
D02*
G36*
X102Y1265D02*
X102Y1265D01*
X218Y1265D01*
X218Y1265D01*
X102Y1265D01*
G37*
D02*
G36*
X102Y1265D02*
X102Y1264D01*
X102Y1264D01*
X102Y1264D01*
X102Y1264D01*
X102Y1264D01*
X101Y1264D01*
X101Y1264D01*
X101Y1264D01*
X101Y1263D01*
X101Y1263D01*
X101Y1263D01*
X101Y1263D01*
X101Y1263D01*
X100Y1263D01*
X100Y1263D01*
X100Y1263D01*
X100Y1262D01*
X100Y1262D01*
X100Y1261D01*
X100Y1261D01*
X100Y1261D01*
X100Y1261D01*
X100Y1261D01*
X101Y1261D01*
X101Y1260D01*
X101Y1260D01*
X101Y1260D01*
X101Y1260D01*
X101Y1259D01*
X101Y1259D01*
X101Y1259D01*
X102Y1259D01*
X102Y1259D01*
X102Y1259D01*
X102Y1258D01*
X102Y1258D01*
X102Y1258D01*
X102Y1258D01*
X102Y1258D01*
X103Y1258D01*
X103Y1257D01*
X103Y1257D01*
X103Y1257D01*
X103Y1257D01*
X103Y1257D01*
X103Y1257D01*
X103Y1256D01*
X104Y1256D01*
X104Y1256D01*
X104Y1256D01*
X104Y1255D01*
X104Y1255D01*
X104Y1255D01*
X104Y1255D01*
X104Y1255D01*
X105Y1255D01*
X105Y1254D01*
X105Y1254D01*
X105Y1254D01*
X105Y1254D01*
X105Y1254D01*
X105Y1254D01*
X105Y1253D01*
X106Y1253D01*
X106Y1253D01*
X106Y1253D01*
X106Y1253D01*
X106Y1253D01*
X106Y1252D01*
X106Y1252D01*
X106Y1252D01*
X107Y1252D01*
X107Y1251D01*
X107Y1251D01*
X107Y1251D01*
X107Y1251D01*
X107Y1251D01*
X107Y1251D01*
X107Y1250D01*
X108Y1250D01*
X108Y1250D01*
X108Y1250D01*
X108Y1250D01*
X108Y1250D01*
X108Y1249D01*
X108Y1249D01*
X108Y1249D01*
X109Y1249D01*
X109Y1249D01*
X109Y1249D01*
X109Y1248D01*
X109Y1248D01*
X109Y1248D01*
X109Y1248D01*
X109Y1247D01*
X110Y1247D01*
X110Y1247D01*
X110Y1247D01*
X110Y1246D01*
X110Y1246D01*
X110Y1246D01*
X110Y1246D01*
X110Y1246D01*
X111Y1246D01*
X111Y1245D01*
X111Y1245D01*
X111Y1244D01*
X111Y1244D01*
X111Y1244D01*
X110Y1244D01*
X110Y1243D01*
X110Y1243D01*
X110Y1242D01*
X110Y1242D01*
X110Y1242D01*
X110Y1242D01*
X110Y1241D01*
X109Y1241D01*
X109Y1241D01*
X109Y1241D01*
X109Y1240D01*
X109Y1240D01*
X109Y1239D01*
X109Y1239D01*
X109Y1239D01*
X108Y1239D01*
X108Y1238D01*
X108Y1238D01*
X108Y1238D01*
X108Y1238D01*
X108Y1237D01*
X108Y1237D01*
X108Y1237D01*
X163Y1237D01*
X163Y1237D01*
X164Y1237D01*
X164Y1236D01*
X165Y1236D01*
X165Y1236D01*
X166Y1236D01*
X166Y1236D01*
X167Y1236D01*
X167Y1236D01*
X168Y1236D01*
X168Y1235D01*
X168Y1235D01*
X168Y1235D01*
X169Y1235D01*
X169Y1235D01*
X169Y1235D01*
X169Y1235D01*
X170Y1235D01*
X170Y1234D01*
X170Y1234D01*
X170Y1234D01*
X171Y1234D01*
X171Y1234D01*
X171Y1234D01*
X171Y1234D01*
X171Y1234D01*
X171Y1233D01*
X172Y1233D01*
X172Y1233D01*
X172Y1233D01*
X172Y1233D01*
X172Y1233D01*
X172Y1233D01*
X173Y1233D01*
X173Y1232D01*
X173Y1232D01*
X173Y1232D01*
X173Y1232D01*
X173Y1232D01*
X174Y1232D01*
X174Y1232D01*
X174Y1232D01*
X174Y1231D01*
X174Y1231D01*
X174Y1231D01*
X174Y1231D01*
X174Y1231D01*
X175Y1231D01*
X175Y1231D01*
X175Y1231D01*
X175Y1230D01*
X175Y1230D01*
X175Y1230D01*
X175Y1230D01*
X175Y1230D01*
X176Y1230D01*
X176Y1230D01*
X176Y1230D01*
X176Y1229D01*
X176Y1229D01*
X176Y1229D01*
X177Y1229D01*
X177Y1229D01*
X177Y1229D01*
X177Y1228D01*
X177Y1228D01*
X177Y1228D01*
X177Y1228D01*
X177Y1228D01*
X178Y1228D01*
X178Y1227D01*
X178Y1227D01*
X178Y1226D01*
X178Y1226D01*
X178Y1226D01*
X178Y1226D01*
X178Y1226D01*
X179Y1226D01*
X179Y1225D01*
X179Y1225D01*
X179Y1225D01*
X179Y1225D01*
X179Y1224D01*
X179Y1224D01*
X179Y1223D01*
X180Y1223D01*
X180Y1223D01*
X180Y1223D01*
X180Y1222D01*
X180Y1222D01*
X180Y1221D01*
X180Y1221D01*
X180Y1220D01*
X181Y1220D01*
X181Y1218D01*
X181Y1218D01*
X181Y1214D01*
X181Y1214D01*
X181Y1213D01*
X180Y1213D01*
X180Y1211D01*
X180Y1211D01*
X180Y1210D01*
X180Y1210D01*
X180Y1210D01*
X180Y1210D01*
X180Y1209D01*
X179Y1209D01*
X179Y1208D01*
X179Y1208D01*
X179Y1208D01*
X179Y1208D01*
X179Y1207D01*
X179Y1207D01*
X179Y1207D01*
X178Y1207D01*
X178Y1206D01*
X178Y1206D01*
X178Y1206D01*
X178Y1206D01*
X178Y1205D01*
X178Y1205D01*
X178Y1205D01*
X177Y1205D01*
X177Y1204D01*
X177Y1204D01*
X177Y1204D01*
X177Y1204D01*
X177Y1204D01*
X177Y1204D01*
X177Y1203D01*
X176Y1203D01*
X176Y1203D01*
X176Y1203D01*
X176Y1203D01*
X176Y1203D01*
X176Y1202D01*
X175Y1202D01*
X175Y1202D01*
X175Y1202D01*
X175Y1202D01*
X175Y1202D01*
X175Y1202D01*
X175Y1202D01*
X175Y1201D01*
X174Y1201D01*
X174Y1201D01*
X174Y1201D01*
X174Y1201D01*
X174Y1201D01*
X174Y1201D01*
X174Y1201D01*
X174Y1200D01*
X173Y1200D01*
X173Y1200D01*
X173Y1200D01*
X173Y1200D01*
X173Y1200D01*
X173Y1200D01*
X172Y1200D01*
X172Y1199D01*
X172Y1199D01*
X172Y1199D01*
X172Y1199D01*
X172Y1199D01*
X171Y1199D01*
X171Y1199D01*
X171Y1199D01*
X171Y1198D01*
X171Y1198D01*
X171Y1198D01*
X170Y1198D01*
X170Y1198D01*
X170Y1198D01*
X170Y1198D01*
X169Y1198D01*
X169Y1197D01*
X169Y1197D01*
X169Y1197D01*
X169Y1197D01*
X169Y1197D01*
X168Y1197D01*
X168Y1197D01*
X168Y1197D01*
X168Y1196D01*
X168Y1196D01*
X168Y1196D01*
X168Y1196D01*
X168Y1195D01*
X168Y1195D01*
X168Y1194D01*
X169Y1194D01*
X169Y1194D01*
X169Y1194D01*
X169Y1193D01*
X169Y1193D01*
X169Y1193D01*
X169Y1193D01*
X169Y1192D01*
X170Y1192D01*
X170Y1191D01*
X170Y1191D01*
X170Y1191D01*
X170Y1191D01*
X170Y1190D01*
X170Y1190D01*
X170Y1190D01*
X171Y1190D01*
X171Y1189D01*
X171Y1189D01*
X171Y1188D01*
X171Y1188D01*
X171Y1188D01*
X171Y1188D01*
X171Y1187D01*
X172Y1187D01*
X172Y1187D01*
X172Y1187D01*
X172Y1186D01*
X172Y1186D01*
X172Y1185D01*
X172Y1185D01*
X172Y1184D01*
X173Y1184D01*
X173Y1184D01*
X173Y1184D01*
X173Y1183D01*
X173Y1183D01*
X173Y1183D01*
X173Y1183D01*
X173Y1182D01*
X174Y1182D01*
X174Y1181D01*
X174Y1181D01*
X174Y1181D01*
X174Y1181D01*
X174Y1180D01*
X174Y1180D01*
X174Y1180D01*
X175Y1180D01*
X175Y1179D01*
X175Y1179D01*
X175Y1178D01*
X175Y1178D01*
X175Y1178D01*
X175Y1178D01*
X175Y1177D01*
X176Y1177D01*
X176Y1177D01*
X176Y1177D01*
X176Y1176D01*
X176Y1176D01*
X176Y1175D01*
X177Y1175D01*
X177Y1175D01*
X177Y1175D01*
X177Y1174D01*
X177Y1174D01*
X177Y1174D01*
X177Y1174D01*
X177Y1173D01*
X178Y1173D01*
X178Y1172D01*
X178Y1172D01*
X178Y1172D01*
X178Y1172D01*
X178Y1171D01*
X178Y1171D01*
X178Y1171D01*
X179Y1171D01*
X179Y1170D01*
X179Y1170D01*
X179Y1169D01*
X179Y1169D01*
X179Y1169D01*
X179Y1169D01*
X179Y1168D01*
X180Y1168D01*
X180Y1168D01*
X180Y1168D01*
X180Y1167D01*
X180Y1167D01*
X180Y1167D01*
X190Y1167D01*
X190Y1166D01*
X191Y1166D01*
X191Y1166D01*
X191Y1166D01*
X191Y1166D01*
X191Y1166D01*
X191Y1166D01*
X192Y1166D01*
X192Y1165D01*
X192Y1165D01*
X192Y1165D01*
X192Y1165D01*
X192Y1165D01*
X193Y1165D01*
X193Y1164D01*
X193Y1164D01*
X193Y1164D01*
X193Y1164D01*
X193Y1164D01*
X194Y1164D01*
X194Y1164D01*
X194Y1164D01*
X194Y1163D01*
X195Y1163D01*
X195Y1163D01*
X195Y1163D01*
X195Y1163D01*
X195Y1163D01*
X195Y1163D01*
X196Y1163D01*
X196Y1162D01*
X196Y1162D01*
X196Y1162D01*
X197Y1162D01*
X197Y1162D01*
X197Y1162D01*
X197Y1162D01*
X197Y1162D01*
X197Y1161D01*
X198Y1161D01*
X198Y1161D01*
X198Y1161D01*
X198Y1161D01*
X198Y1161D01*
X198Y1161D01*
X199Y1161D01*
X199Y1160D01*
X199Y1160D01*
X199Y1160D01*
X200Y1160D01*
X200Y1160D01*
X200Y1160D01*
X200Y1160D01*
X200Y1160D01*
X200Y1159D01*
X201Y1159D01*
X201Y1159D01*
X201Y1159D01*
X201Y1159D01*
X201Y1159D01*
X201Y1159D01*
X202Y1159D01*
X202Y1158D01*
X202Y1158D01*
X202Y1158D01*
X202Y1158D01*
X202Y1158D01*
X203Y1158D01*
X203Y1158D01*
X203Y1158D01*
X203Y1157D01*
X204Y1157D01*
X204Y1157D01*
X204Y1157D01*
X204Y1157D01*
X204Y1157D01*
X204Y1157D01*
X205Y1157D01*
X205Y1156D01*
X205Y1156D01*
X205Y1156D01*
X206Y1156D01*
X206Y1156D01*
X206Y1156D01*
X206Y1157D01*
X207Y1157D01*
X207Y1157D01*
X207Y1157D01*
X207Y1157D01*
X207Y1157D01*
X207Y1157D01*
X207Y1157D01*
X207Y1158D01*
X208Y1158D01*
X208Y1158D01*
X208Y1158D01*
X208Y1158D01*
X208Y1158D01*
X208Y1158D01*
X208Y1158D01*
X208Y1159D01*
X209Y1159D01*
X209Y1159D01*
X209Y1159D01*
X209Y1159D01*
X209Y1159D01*
X209Y1159D01*
X209Y1159D01*
X209Y1160D01*
X210Y1160D01*
X210Y1160D01*
X210Y1160D01*
X210Y1160D01*
X210Y1160D01*
X210Y1160D01*
X210Y1160D01*
X210Y1161D01*
X211Y1161D01*
X211Y1161D01*
X211Y1161D01*
X211Y1161D01*
X211Y1161D01*
X211Y1161D01*
X211Y1161D01*
X211Y1162D01*
X212Y1162D01*
X212Y1162D01*
X212Y1162D01*
X212Y1162D01*
X212Y1162D01*
X212Y1162D01*
X212Y1162D01*
X212Y1163D01*
X213Y1163D01*
X213Y1163D01*
X213Y1163D01*
X213Y1163D01*
X213Y1163D01*
X213Y1163D01*
X213Y1163D01*
X213Y1164D01*
X214Y1164D01*
X214Y1164D01*
X214Y1164D01*
X214Y1164D01*
X214Y1164D01*
X214Y1164D01*
X214Y1164D01*
X214Y1165D01*
X215Y1165D01*
X215Y1165D01*
X215Y1165D01*
X215Y1165D01*
X215Y1165D01*
X215Y1166D01*
X215Y1166D01*
X215Y1166D01*
X216Y1166D01*
X216Y1166D01*
X216Y1166D01*
X216Y1166D01*
X216Y1166D01*
X216Y1167D01*
X216Y1167D01*
X216Y1167D01*
X217Y1167D01*
X217Y1167D01*
X217Y1167D01*
X217Y1167D01*
X217Y1167D01*
X217Y1168D01*
X218Y1168D01*
X218Y1168D01*
X218Y1168D01*
X218Y1168D01*
X218Y1168D01*
X218Y1168D01*
X218Y1168D01*
X218Y1169D01*
X219Y1169D01*
X219Y1169D01*
X219Y1169D01*
X219Y1169D01*
X219Y1169D01*
X219Y1169D01*
X219Y1169D01*
X219Y1170D01*
X220Y1170D01*
X220Y1170D01*
X220Y1170D01*
X220Y1170D01*
X220Y1170D01*
X220Y1171D01*
X220Y1171D01*
X220Y1172D01*
X220Y1172D01*
X220Y1172D01*
X219Y1172D01*
X219Y1172D01*
X219Y1172D01*
X219Y1173D01*
X219Y1173D01*
X219Y1173D01*
X219Y1173D01*
X219Y1174D01*
X218Y1174D01*
X218Y1174D01*
X218Y1174D01*
X218Y1174D01*
X218Y1174D01*
X218Y1175D01*
X218Y1175D01*
X218Y1175D01*
X217Y1175D01*
X217Y1175D01*
X217Y1175D01*
X217Y1176D01*
X217Y1176D01*
X217Y1176D01*
X216Y1176D01*
X216Y1176D01*
X216Y1176D01*
X216Y1177D01*
X216Y1177D01*
X216Y1177D01*
X216Y1177D01*
X216Y1178D01*
X215Y1178D01*
X215Y1178D01*
X215Y1178D01*
X215Y1178D01*
X215Y1178D01*
X215Y1179D01*
X215Y1179D01*
X215Y1179D01*
X214Y1179D01*
X214Y1179D01*
X214Y1179D01*
X214Y1180D01*
X214Y1180D01*
X214Y1180D01*
X214Y1180D01*
X214Y1180D01*
X213Y1180D01*
X213Y1181D01*
X213Y1181D01*
X213Y1181D01*
X213Y1181D01*
X213Y1182D01*
X213Y1182D01*
X213Y1182D01*
X212Y1182D01*
X212Y1182D01*
X212Y1182D01*
X212Y1183D01*
X212Y1183D01*
X212Y1183D01*
X212Y1183D01*
X212Y1183D01*
X211Y1183D01*
X211Y1184D01*
X211Y1184D01*
X211Y1184D01*
X211Y1184D01*
X211Y1184D01*
X211Y1184D01*
X211Y1185D01*
X210Y1185D01*
X210Y1185D01*
X210Y1185D01*
X210Y1186D01*
X210Y1186D01*
X210Y1186D01*
X210Y1186D01*
X210Y1187D01*
X209Y1187D01*
X209Y1187D01*
X210Y1187D01*
X210Y1188D01*
X210Y1188D01*
X210Y1189D01*
X210Y1189D01*
X210Y1189D01*
X210Y1189D01*
X210Y1190D01*
X211Y1190D01*
X211Y1191D01*
X211Y1191D01*
X211Y1191D01*
X211Y1191D01*
X211Y1192D01*
X211Y1192D01*
X211Y1192D01*
X212Y1192D01*
X212Y1193D01*
X212Y1193D01*
X212Y1194D01*
X212Y1194D01*
X212Y1194D01*
X212Y1194D01*
X212Y1195D01*
X213Y1195D01*
X213Y1196D01*
X213Y1196D01*
X213Y1196D01*
X213Y1196D01*
X213Y1197D01*
X213Y1197D01*
X213Y1197D01*
X214Y1197D01*
X214Y1198D01*
X214Y1198D01*
X214Y1199D01*
X214Y1199D01*
X214Y1199D01*
X214Y1199D01*
X214Y1200D01*
X215Y1200D01*
X215Y1201D01*
X215Y1201D01*
X215Y1201D01*
X215Y1201D01*
X215Y1202D01*
X215Y1202D01*
X215Y1202D01*
X216Y1202D01*
X216Y1202D01*
X216Y1202D01*
X216Y1202D01*
X217Y1202D01*
X217Y1203D01*
X219Y1203D01*
X219Y1203D01*
X220Y1203D01*
X220Y1203D01*
X222Y1203D01*
X222Y1203D01*
X223Y1203D01*
X223Y1204D01*
X224Y1204D01*
X224Y1204D01*
X226Y1204D01*
X226Y1204D01*
X227Y1204D01*
X227Y1204D01*
X228Y1204D01*
X228Y1205D01*
X230Y1205D01*
X230Y1205D01*
X231Y1205D01*
X231Y1205D01*
X232Y1205D01*
X232Y1205D01*
X234Y1205D01*
X234Y1206D01*
X234Y1206D01*
X234Y1206D01*
X235Y1206D01*
X235Y1206D01*
X235Y1206D01*
X235Y1226D01*
X235Y1226D01*
X235Y1227D01*
X234Y1227D01*
X234Y1227D01*
X233Y1227D01*
X233Y1227D01*
X231Y1227D01*
X231Y1228D01*
X230Y1228D01*
X230Y1228D01*
X229Y1228D01*
X229Y1228D01*
X227Y1228D01*
X227Y1228D01*
X226Y1228D01*
X226Y1229D01*
X225Y1229D01*
X225Y1229D01*
X223Y1229D01*
X223Y1229D01*
X222Y1229D01*
X222Y1229D01*
X220Y1229D01*
X220Y1230D01*
X219Y1230D01*
X219Y1230D01*
X218Y1230D01*
X218Y1230D01*
X216Y1230D01*
X216Y1230D01*
X215Y1230D01*
X215Y1231D01*
X215Y1231D01*
X215Y1231D01*
X215Y1231D01*
X215Y1231D01*
X214Y1231D01*
X214Y1232D01*
X214Y1232D01*
X214Y1233D01*
X214Y1233D01*
X214Y1233D01*
X214Y1233D01*
X214Y1234D01*
X213Y1234D01*
X213Y1234D01*
X213Y1234D01*
X213Y1235D01*
X213Y1235D01*
X213Y1236D01*
X213Y1236D01*
X213Y1236D01*
X212Y1236D01*
X212Y1237D01*
X212Y1237D01*
X212Y1237D01*
X212Y1237D01*
X212Y1238D01*
X212Y1238D01*
X212Y1238D01*
X211Y1238D01*
X211Y1239D01*
X211Y1239D01*
X211Y1240D01*
X211Y1240D01*
X211Y1240D01*
X211Y1240D01*
X211Y1241D01*
X210Y1241D01*
X210Y1241D01*
X210Y1241D01*
X210Y1242D01*
X210Y1242D01*
X210Y1243D01*
X210Y1243D01*
X210Y1243D01*
X209Y1243D01*
X209Y1244D01*
X209Y1244D01*
X209Y1244D01*
X209Y1244D01*
X209Y1245D01*
X209Y1245D01*
X209Y1246D01*
X209Y1246D01*
X209Y1246D01*
X210Y1246D01*
X210Y1246D01*
X210Y1246D01*
X210Y1247D01*
X210Y1247D01*
X210Y1247D01*
X210Y1247D01*
X210Y1248D01*
X211Y1248D01*
X211Y1248D01*
X211Y1248D01*
X211Y1248D01*
X211Y1248D01*
X211Y1249D01*
X211Y1249D01*
X211Y1249D01*
X212Y1249D01*
X212Y1250D01*
X212Y1250D01*
X212Y1250D01*
X212Y1250D01*
X212Y1250D01*
X212Y1250D01*
X212Y1251D01*
X213Y1251D01*
X213Y1251D01*
X213Y1251D01*
X213Y1251D01*
X213Y1251D01*
X213Y1252D01*
X213Y1252D01*
X213Y1252D01*
X214Y1252D01*
X214Y1252D01*
X214Y1252D01*
X214Y1253D01*
X214Y1253D01*
X214Y1253D01*
X214Y1253D01*
X214Y1254D01*
X215Y1254D01*
X215Y1254D01*
X215Y1254D01*
X215Y1254D01*
X215Y1254D01*
X215Y1255D01*
X215Y1255D01*
X215Y1255D01*
X216Y1255D01*
X216Y1255D01*
X216Y1255D01*
X216Y1256D01*
X216Y1256D01*
X216Y1256D01*
X216Y1256D01*
X216Y1256D01*
X217Y1256D01*
X217Y1257D01*
X217Y1257D01*
X217Y1257D01*
X217Y1257D01*
X217Y1258D01*
X218Y1258D01*
X218Y1258D01*
X218Y1258D01*
X218Y1258D01*
X218Y1258D01*
X218Y1259D01*
X218Y1259D01*
X218Y1259D01*
X219Y1259D01*
X219Y1259D01*
X219Y1259D01*
X219Y1260D01*
X219Y1260D01*
X219Y1260D01*
X219Y1260D01*
X219Y1260D01*
X220Y1260D01*
X220Y1261D01*
X220Y1261D01*
X220Y1261D01*
X220Y1261D01*
X220Y1262D01*
X220Y1262D01*
X220Y1263D01*
X220Y1263D01*
X220Y1263D01*
X219Y1263D01*
X219Y1263D01*
X219Y1263D01*
X219Y1263D01*
X219Y1263D01*
X219Y1264D01*
X219Y1264D01*
X219Y1264D01*
X218Y1264D01*
X218Y1264D01*
X218Y1264D01*
X218Y1264D01*
X218Y1264D01*
X218Y1265D01*
X102Y1265D01*
G37*
D02*
G36*
X108Y1237D02*
X108Y1237D01*
X107Y1237D01*
X107Y1236D01*
X107Y1236D01*
X107Y1235D01*
X107Y1235D01*
X107Y1235D01*
X107Y1235D01*
X107Y1234D01*
X106Y1234D01*
X106Y1234D01*
X106Y1234D01*
X106Y1233D01*
X106Y1233D01*
X106Y1232D01*
X106Y1232D01*
X106Y1232D01*
X105Y1232D01*
X105Y1231D01*
X105Y1231D01*
X105Y1231D01*
X105Y1231D01*
X105Y1231D01*
X105Y1231D01*
X105Y1230D01*
X104Y1230D01*
X104Y1230D01*
X102Y1230D01*
X102Y1230D01*
X101Y1230D01*
X101Y1230D01*
X100Y1230D01*
X100Y1229D01*
X98Y1229D01*
X98Y1229D01*
X97Y1229D01*
X97Y1229D01*
X96Y1229D01*
X96Y1229D01*
X94Y1229D01*
X94Y1228D01*
X93Y1228D01*
X93Y1228D01*
X91Y1228D01*
X91Y1228D01*
X90Y1228D01*
X90Y1228D01*
X89Y1228D01*
X89Y1227D01*
X87Y1227D01*
X87Y1227D01*
X86Y1227D01*
X86Y1227D01*
X85Y1227D01*
X85Y1226D01*
X85Y1226D01*
X85Y1226D01*
X85Y1226D01*
X85Y1206D01*
X85Y1206D01*
X85Y1206D01*
X85Y1206D01*
X85Y1206D01*
X86Y1206D01*
X86Y1205D01*
X88Y1205D01*
X88Y1205D01*
X89Y1205D01*
X89Y1205D01*
X90Y1205D01*
X90Y1205D01*
X92Y1205D01*
X92Y1204D01*
X93Y1204D01*
X93Y1204D01*
X95Y1204D01*
X95Y1204D01*
X96Y1204D01*
X96Y1204D01*
X97Y1204D01*
X97Y1203D01*
X99Y1203D01*
X99Y1203D01*
X100Y1203D01*
X100Y1203D01*
X101Y1203D01*
X101Y1203D01*
X103Y1203D01*
X103Y1202D01*
X104Y1202D01*
X104Y1202D01*
X104Y1202D01*
X104Y1202D01*
X105Y1202D01*
X105Y1201D01*
X105Y1201D01*
X105Y1201D01*
X105Y1201D01*
X105Y1200D01*
X105Y1200D01*
X105Y1200D01*
X106Y1200D01*
X106Y1199D01*
X106Y1199D01*
X106Y1198D01*
X106Y1198D01*
X106Y1198D01*
X106Y1198D01*
X106Y1197D01*
X107Y1197D01*
X107Y1196D01*
X107Y1196D01*
X107Y1196D01*
X107Y1196D01*
X107Y1195D01*
X107Y1195D01*
X107Y1195D01*
X108Y1195D01*
X108Y1194D01*
X108Y1194D01*
X108Y1193D01*
X108Y1193D01*
X108Y1193D01*
X108Y1193D01*
X108Y1192D01*
X109Y1192D01*
X109Y1191D01*
X109Y1191D01*
X109Y1191D01*
X109Y1191D01*
X109Y1190D01*
X109Y1190D01*
X109Y1190D01*
X110Y1190D01*
X110Y1189D01*
X110Y1189D01*
X110Y1188D01*
X110Y1188D01*
X110Y1188D01*
X110Y1188D01*
X110Y1186D01*
X110Y1186D01*
X110Y1186D01*
X110Y1186D01*
X110Y1185D01*
X110Y1185D01*
X110Y1185D01*
X109Y1185D01*
X109Y1185D01*
X109Y1185D01*
X109Y1184D01*
X109Y1184D01*
X109Y1184D01*
X109Y1184D01*
X109Y1184D01*
X108Y1184D01*
X108Y1183D01*
X108Y1183D01*
X108Y1183D01*
X108Y1183D01*
X108Y1183D01*
X108Y1183D01*
X108Y1182D01*
X107Y1182D01*
X107Y1182D01*
X107Y1182D01*
X107Y1181D01*
X107Y1181D01*
X107Y1181D01*
X107Y1181D01*
X107Y1181D01*
X106Y1181D01*
X106Y1180D01*
X106Y1180D01*
X106Y1180D01*
X106Y1180D01*
X106Y1180D01*
X106Y1180D01*
X106Y1179D01*
X105Y1179D01*
X105Y1179D01*
X105Y1179D01*
X105Y1179D01*
X105Y1179D01*
X105Y1178D01*
X105Y1178D01*
X105Y1178D01*
X104Y1178D01*
X104Y1177D01*
X104Y1177D01*
X104Y1177D01*
X104Y1177D01*
X104Y1177D01*
X104Y1177D01*
X104Y1176D01*
X103Y1176D01*
X103Y1176D01*
X103Y1176D01*
X103Y1176D01*
X103Y1176D01*
X103Y1175D01*
X103Y1175D01*
X103Y1175D01*
X102Y1175D01*
X102Y1175D01*
X102Y1175D01*
X102Y1174D01*
X102Y1174D01*
X102Y1174D01*
X102Y1174D01*
X102Y1173D01*
X101Y1173D01*
X101Y1173D01*
X101Y1173D01*
X101Y1173D01*
X101Y1173D01*
X101Y1172D01*
X101Y1172D01*
X101Y1172D01*
X100Y1172D01*
X100Y1172D01*
X100Y1172D01*
X100Y1171D01*
X100Y1171D01*
X100Y1170D01*
X100Y1170D01*
X100Y1170D01*
X100Y1170D01*
X100Y1170D01*
X101Y1170D01*
X101Y1169D01*
X101Y1169D01*
X101Y1169D01*
X101Y1169D01*
X101Y1169D01*
X101Y1169D01*
X101Y1169D01*
X102Y1169D01*
X102Y1168D01*
X102Y1168D01*
X102Y1168D01*
X102Y1168D01*
X102Y1168D01*
X102Y1168D01*
X102Y1168D01*
X103Y1168D01*
X103Y1167D01*
X103Y1167D01*
X103Y1167D01*
X103Y1167D01*
X103Y1167D01*
X103Y1167D01*
X103Y1167D01*
X131Y1167D01*
X131Y1166D01*
X131Y1166D01*
X131Y1166D01*
X132Y1166D01*
X132Y1166D01*
X132Y1166D01*
X132Y1166D01*
X133Y1166D01*
X133Y1165D01*
X133Y1165D01*
X133Y1165D01*
X134Y1165D01*
X134Y1165D01*
X134Y1165D01*
X134Y1164D01*
X135Y1164D01*
X135Y1164D01*
X135Y1164D01*
X135Y1164D01*
X136Y1164D01*
X136Y1164D01*
X136Y1164D01*
X136Y1163D01*
X137Y1163D01*
X137Y1163D01*
X137Y1163D01*
X137Y1163D01*
X138Y1163D01*
X138Y1163D01*
X139Y1163D01*
X139Y1164D01*
X139Y1164D01*
X139Y1164D01*
X139Y1164D01*
X139Y1165D01*
X139Y1165D01*
X139Y1166D01*
X140Y1166D01*
X140Y1166D01*
X140Y1166D01*
X140Y1167D01*
X140Y1167D01*
X140Y1167D01*
X140Y1167D01*
X140Y1168D01*
X141Y1168D01*
X141Y1169D01*
X141Y1169D01*
X141Y1169D01*
X141Y1169D01*
X141Y1170D01*
X141Y1170D01*
X141Y1170D01*
X142Y1170D01*
X142Y1171D01*
X142Y1171D01*
X142Y1172D01*
X142Y1172D01*
X142Y1172D01*
X142Y1172D01*
X142Y1173D01*
X143Y1173D01*
X143Y1173D01*
X143Y1173D01*
X143Y1174D01*
X143Y1174D01*
X143Y1175D01*
X143Y1175D01*
X143Y1175D01*
X144Y1175D01*
X144Y1176D01*
X144Y1176D01*
X144Y1176D01*
X144Y1176D01*
X144Y1177D01*
X144Y1177D01*
X144Y1178D01*
X145Y1178D01*
X145Y1178D01*
X145Y1178D01*
X145Y1179D01*
X145Y1179D01*
X145Y1179D01*
X145Y1179D01*
X145Y1180D01*
X146Y1180D01*
X146Y1181D01*
X146Y1181D01*
X146Y1181D01*
X146Y1181D01*
X146Y1182D01*
X146Y1182D01*
X146Y1183D01*
X147Y1183D01*
X147Y1183D01*
X147Y1183D01*
X147Y1184D01*
X147Y1184D01*
X147Y1184D01*
X147Y1184D01*
X147Y1185D01*
X148Y1185D01*
X148Y1186D01*
X148Y1186D01*
X148Y1186D01*
X148Y1186D01*
X148Y1187D01*
X148Y1187D01*
X148Y1188D01*
X149Y1188D01*
X149Y1188D01*
X149Y1188D01*
X149Y1189D01*
X149Y1189D01*
X149Y1189D01*
X149Y1189D01*
X149Y1190D01*
X150Y1190D01*
X150Y1191D01*
X150Y1191D01*
X150Y1191D01*
X150Y1191D01*
X150Y1192D01*
X150Y1192D01*
X150Y1192D01*
X151Y1192D01*
X151Y1193D01*
X151Y1193D01*
X151Y1194D01*
X151Y1194D01*
X151Y1194D01*
X151Y1194D01*
X151Y1195D01*
X152Y1195D01*
X152Y1195D01*
X152Y1195D01*
X152Y1196D01*
X152Y1196D01*
X152Y1197D01*
X151Y1197D01*
X151Y1197D01*
X151Y1197D01*
X151Y1197D01*
X150Y1197D01*
X150Y1198D01*
X150Y1198D01*
X150Y1198D01*
X150Y1198D01*
X150Y1198D01*
X149Y1198D01*
X149Y1198D01*
X149Y1198D01*
X149Y1199D01*
X149Y1199D01*
X149Y1199D01*
X148Y1199D01*
X148Y1199D01*
X148Y1199D01*
X148Y1199D01*
X148Y1199D01*
X148Y1200D01*
X147Y1200D01*
X147Y1200D01*
X147Y1200D01*
X147Y1200D01*
X147Y1200D01*
X147Y1200D01*
X146Y1200D01*
X146Y1201D01*
X146Y1201D01*
X146Y1201D01*
X146Y1201D01*
X146Y1201D01*
X145Y1201D01*
X145Y1201D01*
X145Y1201D01*
X145Y1202D01*
X145Y1202D01*
X145Y1202D01*
X145Y1202D01*
X145Y1202D01*
X144Y1202D01*
X144Y1203D01*
X144Y1203D01*
X144Y1203D01*
X144Y1203D01*
X144Y1203D01*
X144Y1203D01*
X144Y1203D01*
X143Y1203D01*
X143Y1204D01*
X143Y1204D01*
X143Y1204D01*
X143Y1204D01*
X143Y1205D01*
X143Y1205D01*
X143Y1205D01*
X142Y1205D01*
X142Y1205D01*
X142Y1205D01*
X142Y1206D01*
X142Y1206D01*
X142Y1206D01*
X142Y1206D01*
X142Y1207D01*
X141Y1207D01*
X141Y1207D01*
X141Y1207D01*
X141Y1208D01*
X141Y1208D01*
X141Y1209D01*
X141Y1209D01*
X141Y1209D01*
X140Y1209D01*
X140Y1210D01*
X140Y1210D01*
X140Y1211D01*
X140Y1211D01*
X140Y1212D01*
X140Y1212D01*
X140Y1213D01*
X139Y1213D01*
X139Y1215D01*
X139Y1215D01*
X139Y1217D01*
X139Y1217D01*
X139Y1219D01*
X140Y1219D01*
X140Y1221D01*
X140Y1221D01*
X140Y1222D01*
X140Y1222D01*
X140Y1222D01*
X140Y1222D01*
X140Y1223D01*
X141Y1223D01*
X141Y1224D01*
X141Y1224D01*
X141Y1224D01*
X141Y1224D01*
X141Y1225D01*
X141Y1225D01*
X141Y1225D01*
X142Y1225D01*
X142Y1226D01*
X142Y1226D01*
X142Y1226D01*
X142Y1226D01*
X142Y1227D01*
X142Y1227D01*
X142Y1227D01*
X143Y1227D01*
X143Y1228D01*
X143Y1228D01*
X143Y1228D01*
X143Y1228D01*
X143Y1229D01*
X143Y1229D01*
X143Y1229D01*
X144Y1229D01*
X144Y1229D01*
X144Y1229D01*
X144Y1230D01*
X144Y1230D01*
X144Y1230D01*
X144Y1230D01*
X144Y1230D01*
X145Y1230D01*
X145Y1230D01*
X145Y1230D01*
X145Y1231D01*
X145Y1231D01*
X145Y1231D01*
X145Y1231D01*
X145Y1231D01*
X146Y1231D01*
X146Y1231D01*
X146Y1231D01*
X146Y1232D01*
X146Y1232D01*
X146Y1232D01*
X146Y1232D01*
X146Y1232D01*
X147Y1232D01*
X147Y1232D01*
X147Y1232D01*
X147Y1233D01*
X147Y1233D01*
X147Y1233D01*
X148Y1233D01*
X148Y1233D01*
X148Y1233D01*
X148Y1233D01*
X148Y1233D01*
X148Y1234D01*
X149Y1234D01*
X149Y1234D01*
X149Y1234D01*
X149Y1234D01*
X150Y1234D01*
X150Y1234D01*
X150Y1234D01*
X150Y1235D01*
X151Y1235D01*
X151Y1235D01*
X151Y1235D01*
X151Y1235D01*
X152Y1235D01*
X152Y1235D01*
X152Y1235D01*
X152Y1236D01*
X153Y1236D01*
X153Y1236D01*
X154Y1236D01*
X154Y1236D01*
X154Y1236D01*
X154Y1236D01*
X156Y1236D01*
X156Y1237D01*
X157Y1237D01*
X157Y1237D01*
X108Y1237D01*
G37*
D02*
G36*
X104Y1167D02*
X104Y1166D01*
X104Y1166D01*
X104Y1166D01*
X104Y1166D01*
X104Y1166D01*
X104Y1166D01*
X104Y1166D01*
X105Y1166D01*
X105Y1165D01*
X105Y1165D01*
X105Y1165D01*
X105Y1165D01*
X105Y1165D01*
X105Y1165D01*
X105Y1164D01*
X106Y1164D01*
X106Y1164D01*
X106Y1164D01*
X106Y1164D01*
X106Y1164D01*
X106Y1164D01*
X106Y1164D01*
X106Y1163D01*
X107Y1163D01*
X107Y1163D01*
X107Y1163D01*
X107Y1163D01*
X107Y1163D01*
X107Y1163D01*
X107Y1163D01*
X107Y1162D01*
X108Y1162D01*
X108Y1162D01*
X108Y1162D01*
X108Y1162D01*
X108Y1162D01*
X108Y1162D01*
X108Y1162D01*
X108Y1161D01*
X109Y1161D01*
X109Y1161D01*
X109Y1161D01*
X109Y1161D01*
X109Y1161D01*
X109Y1161D01*
X109Y1161D01*
X109Y1160D01*
X110Y1160D01*
X110Y1160D01*
X110Y1160D01*
X110Y1160D01*
X110Y1160D01*
X110Y1160D01*
X110Y1160D01*
X110Y1159D01*
X111Y1159D01*
X111Y1159D01*
X111Y1159D01*
X111Y1159D01*
X111Y1159D01*
X111Y1159D01*
X111Y1159D01*
X111Y1158D01*
X112Y1158D01*
X112Y1158D01*
X112Y1158D01*
X112Y1158D01*
X112Y1158D01*
X112Y1158D01*
X112Y1158D01*
X112Y1157D01*
X113Y1157D01*
X113Y1157D01*
X113Y1157D01*
X113Y1157D01*
X113Y1157D01*
X113Y1157D01*
X113Y1157D01*
X113Y1156D01*
X114Y1156D01*
X114Y1156D01*
X115Y1156D01*
X115Y1156D01*
X115Y1156D01*
X115Y1157D01*
X116Y1157D01*
X116Y1157D01*
X116Y1157D01*
X116Y1157D01*
X116Y1157D01*
X116Y1157D01*
X117Y1157D01*
X117Y1158D01*
X117Y1158D01*
X117Y1158D01*
X118Y1158D01*
X118Y1158D01*
X118Y1158D01*
X118Y1158D01*
X118Y1158D01*
X118Y1159D01*
X119Y1159D01*
X119Y1159D01*
X119Y1159D01*
X119Y1159D01*
X119Y1159D01*
X119Y1159D01*
X120Y1159D01*
X120Y1160D01*
X120Y1160D01*
X120Y1160D01*
X121Y1160D01*
X121Y1160D01*
X121Y1160D01*
X121Y1160D01*
X121Y1160D01*
X121Y1161D01*
X122Y1161D01*
X122Y1161D01*
X122Y1161D01*
X122Y1161D01*
X122Y1161D01*
X122Y1161D01*
X123Y1161D01*
X123Y1162D01*
X123Y1162D01*
X123Y1162D01*
X123Y1162D01*
X123Y1162D01*
X124Y1162D01*
X124Y1162D01*
X124Y1162D01*
X124Y1163D01*
X125Y1163D01*
X125Y1163D01*
X125Y1163D01*
X125Y1163D01*
X125Y1163D01*
X125Y1163D01*
X126Y1163D01*
X126Y1164D01*
X126Y1164D01*
X126Y1164D01*
X126Y1164D01*
X126Y1164D01*
X127Y1164D01*
X127Y1164D01*
X127Y1164D01*
X127Y1165D01*
X127Y1165D01*
X127Y1165D01*
X128Y1165D01*
X128Y1165D01*
X128Y1165D01*
X128Y1166D01*
X129Y1166D01*
X129Y1166D01*
X129Y1166D01*
X129Y1166D01*
X129Y1166D01*
X129Y1166D01*
X130Y1166D01*
X130Y1167D01*
X104Y1167D01*
G37*
D02*
G36*
X180Y1167D02*
X180Y1166D01*
X180Y1166D01*
X180Y1166D01*
X181Y1166D01*
X181Y1165D01*
X181Y1165D01*
X181Y1164D01*
X181Y1164D01*
X181Y1164D01*
X181Y1164D01*
X181Y1163D01*
X182Y1163D01*
X182Y1163D01*
X183Y1163D01*
X183Y1163D01*
X183Y1163D01*
X183Y1163D01*
X184Y1163D01*
X184Y1164D01*
X184Y1164D01*
X184Y1164D01*
X185Y1164D01*
X185Y1164D01*
X185Y1164D01*
X185Y1164D01*
X186Y1164D01*
X186Y1165D01*
X186Y1165D01*
X186Y1165D01*
X187Y1165D01*
X187Y1165D01*
X187Y1165D01*
X187Y1166D01*
X188Y1166D01*
X188Y1166D01*
X188Y1166D01*
X188Y1166D01*
X188Y1166D01*
X188Y1166D01*
X189Y1166D01*
X189Y1167D01*
X180Y1167D01*
G37*
D02*
G54D15*
X1101Y335D02*
X1101Y346D01*
X1341Y346D01*
X1341Y335D01*
D02*
X1101Y233D02*
X1101Y198D01*
D02*
X1341Y233D02*
X1341Y198D01*
D02*
X616Y335D02*
X616Y346D01*
X856Y346D01*
X856Y335D01*
D02*
X616Y233D02*
X616Y198D01*
D02*
X857Y233D02*
X857Y198D01*
D02*
X616Y95D02*
X616Y84D01*
X856Y84D01*
X856Y95D01*
D02*
G54D16*
X94Y1326D02*
X95Y1326D01*
X106Y1326D02*
X107Y1326D01*
X122Y1326D02*
X123Y1326D01*
X138Y1326D02*
X139Y1326D01*
X159Y1326D02*
X161Y1326D01*
X181Y1326D02*
X195Y1326D01*
X203Y1326D02*
X217Y1326D01*
X230Y1326D02*
X239Y1326D01*
X247Y1326D02*
X248Y1326D01*
X259Y1326D02*
X260Y1326D01*
X291Y1326D02*
X303Y1326D01*
X314Y1326D02*
X325Y1326D01*
X335Y1326D02*
X342Y1326D01*
X357Y1326D02*
X359Y1326D01*
X93Y1325D02*
X95Y1325D01*
X105Y1325D02*
X108Y1325D01*
X121Y1325D02*
X123Y1325D01*
X137Y1325D02*
X139Y1325D01*
X159Y1325D02*
X161Y1325D01*
X181Y1325D02*
X195Y1325D01*
X203Y1325D02*
X217Y1325D01*
X229Y1325D02*
X239Y1325D01*
X247Y1325D02*
X249Y1325D01*
X259Y1325D02*
X261Y1325D01*
X290Y1325D02*
X304Y1325D01*
X313Y1325D02*
X326Y1325D01*
X334Y1325D02*
X342Y1325D01*
X357Y1325D02*
X359Y1325D01*
X93Y1324D02*
X95Y1324D01*
X105Y1324D02*
X108Y1324D01*
X121Y1324D02*
X124Y1324D01*
X137Y1324D02*
X139Y1324D01*
X159Y1324D02*
X161Y1324D01*
X181Y1324D02*
X195Y1324D01*
X203Y1324D02*
X216Y1324D01*
X228Y1324D02*
X238Y1324D01*
X247Y1324D02*
X249Y1324D01*
X259Y1324D02*
X261Y1324D01*
X291Y1324D02*
X304Y1324D01*
X312Y1324D02*
X326Y1324D01*
X335Y1324D02*
X342Y1324D01*
X357Y1324D02*
X359Y1324D01*
X367Y1324D02*
X367Y1324D01*
X93Y1323D02*
X95Y1323D01*
X105Y1323D02*
X108Y1323D01*
X121Y1323D02*
X124Y1323D01*
X137Y1323D02*
X139Y1323D01*
X159Y1323D02*
X161Y1323D01*
X181Y1323D02*
X183Y1323D01*
X187Y1323D02*
X189Y1323D01*
X193Y1323D02*
X195Y1323D01*
X203Y1323D02*
X205Y1323D01*
X228Y1323D02*
X231Y1323D01*
X247Y1323D02*
X249Y1323D01*
X259Y1323D02*
X261Y1323D01*
X302Y1323D02*
X305Y1323D01*
X312Y1323D02*
X314Y1323D01*
X324Y1323D02*
X326Y1323D01*
X340Y1323D02*
X342Y1323D01*
X357Y1323D02*
X359Y1323D01*
X366Y1323D02*
X368Y1323D01*
X93Y1322D02*
X95Y1322D01*
X105Y1322D02*
X108Y1322D01*
X120Y1322D02*
X124Y1322D01*
X137Y1322D02*
X139Y1322D01*
X159Y1322D02*
X161Y1322D01*
X181Y1322D02*
X183Y1322D01*
X187Y1322D02*
X189Y1322D01*
X193Y1322D02*
X195Y1322D01*
X203Y1322D02*
X205Y1322D01*
X227Y1322D02*
X230Y1322D01*
X247Y1322D02*
X249Y1322D01*
X259Y1322D02*
X261Y1322D01*
X302Y1322D02*
X305Y1322D01*
X312Y1322D02*
X314Y1322D01*
X324Y1322D02*
X326Y1322D01*
X340Y1322D02*
X342Y1322D01*
X357Y1322D02*
X359Y1322D01*
X366Y1322D02*
X368Y1322D01*
X93Y1321D02*
X95Y1321D01*
X105Y1321D02*
X108Y1321D01*
X120Y1321D02*
X125Y1321D01*
X137Y1321D02*
X139Y1321D01*
X159Y1321D02*
X161Y1321D01*
X187Y1321D02*
X189Y1321D01*
X203Y1321D02*
X205Y1321D01*
X227Y1321D02*
X229Y1321D01*
X247Y1321D02*
X249Y1321D01*
X259Y1321D02*
X261Y1321D01*
X302Y1321D02*
X305Y1321D01*
X312Y1321D02*
X314Y1321D01*
X324Y1321D02*
X326Y1321D01*
X340Y1321D02*
X342Y1321D01*
X357Y1321D02*
X359Y1321D01*
X366Y1321D02*
X368Y1321D01*
X93Y1320D02*
X95Y1320D01*
X105Y1320D02*
X108Y1320D01*
X120Y1320D02*
X125Y1320D01*
X137Y1320D02*
X139Y1320D01*
X159Y1320D02*
X161Y1320D01*
X187Y1320D02*
X189Y1320D01*
X203Y1320D02*
X205Y1320D01*
X227Y1320D02*
X229Y1320D01*
X247Y1320D02*
X249Y1320D01*
X259Y1320D02*
X261Y1320D01*
X302Y1320D02*
X305Y1320D01*
X312Y1320D02*
X314Y1320D01*
X324Y1320D02*
X326Y1320D01*
X340Y1320D02*
X342Y1320D01*
X357Y1320D02*
X359Y1320D01*
X366Y1320D02*
X368Y1320D01*
X93Y1319D02*
X95Y1319D01*
X105Y1319D02*
X108Y1319D01*
X119Y1319D02*
X125Y1319D01*
X137Y1319D02*
X139Y1319D01*
X159Y1319D02*
X161Y1319D01*
X187Y1319D02*
X189Y1319D01*
X203Y1319D02*
X205Y1319D01*
X226Y1319D02*
X228Y1319D01*
X247Y1319D02*
X249Y1319D01*
X259Y1319D02*
X261Y1319D01*
X302Y1319D02*
X305Y1319D01*
X312Y1319D02*
X314Y1319D01*
X324Y1319D02*
X326Y1319D01*
X340Y1319D02*
X342Y1319D01*
X357Y1319D02*
X359Y1319D01*
X366Y1319D02*
X368Y1319D01*
X93Y1318D02*
X95Y1318D01*
X100Y1318D02*
X101Y1318D01*
X105Y1318D02*
X108Y1318D01*
X119Y1318D02*
X121Y1318D01*
X123Y1318D02*
X126Y1318D01*
X137Y1318D02*
X139Y1318D01*
X159Y1318D02*
X161Y1318D01*
X187Y1318D02*
X189Y1318D01*
X203Y1318D02*
X205Y1318D01*
X226Y1318D02*
X228Y1318D01*
X247Y1318D02*
X249Y1318D01*
X259Y1318D02*
X261Y1318D01*
X302Y1318D02*
X305Y1318D01*
X312Y1318D02*
X314Y1318D01*
X324Y1318D02*
X326Y1318D01*
X340Y1318D02*
X342Y1318D01*
X357Y1318D02*
X359Y1318D01*
X366Y1318D02*
X368Y1318D01*
X93Y1317D02*
X95Y1317D01*
X99Y1317D02*
X101Y1317D01*
X105Y1317D02*
X108Y1317D01*
X119Y1317D02*
X121Y1317D01*
X124Y1317D02*
X126Y1317D01*
X137Y1317D02*
X139Y1317D01*
X159Y1317D02*
X161Y1317D01*
X187Y1317D02*
X189Y1317D01*
X203Y1317D02*
X205Y1317D01*
X225Y1317D02*
X227Y1317D01*
X247Y1317D02*
X249Y1317D01*
X259Y1317D02*
X261Y1317D01*
X302Y1317D02*
X305Y1317D01*
X312Y1317D02*
X314Y1317D01*
X324Y1317D02*
X326Y1317D01*
X340Y1317D02*
X342Y1317D01*
X357Y1317D02*
X359Y1317D01*
X366Y1317D02*
X368Y1317D01*
X1288Y1317D02*
X1362Y1317D01*
X93Y1316D02*
X95Y1316D01*
X99Y1316D02*
X101Y1316D01*
X105Y1316D02*
X108Y1316D01*
X119Y1316D02*
X121Y1316D01*
X124Y1316D02*
X126Y1316D01*
X137Y1316D02*
X139Y1316D01*
X159Y1316D02*
X161Y1316D01*
X187Y1316D02*
X189Y1316D01*
X203Y1316D02*
X210Y1316D01*
X225Y1316D02*
X227Y1316D01*
X247Y1316D02*
X261Y1316D01*
X292Y1316D02*
X304Y1316D01*
X312Y1316D02*
X314Y1316D01*
X324Y1316D02*
X326Y1316D01*
X340Y1316D02*
X342Y1316D01*
X357Y1316D02*
X359Y1316D01*
X366Y1316D02*
X368Y1316D01*
X1288Y1316D02*
X1362Y1316D01*
X93Y1315D02*
X95Y1315D01*
X99Y1315D02*
X101Y1315D01*
X105Y1315D02*
X108Y1315D01*
X118Y1315D02*
X120Y1315D01*
X124Y1315D02*
X126Y1315D01*
X137Y1315D02*
X139Y1315D01*
X159Y1315D02*
X161Y1315D01*
X187Y1315D02*
X189Y1315D01*
X203Y1315D02*
X211Y1315D01*
X225Y1315D02*
X227Y1315D01*
X247Y1315D02*
X261Y1315D01*
X291Y1315D02*
X304Y1315D01*
X312Y1315D02*
X314Y1315D01*
X324Y1315D02*
X326Y1315D01*
X340Y1315D02*
X342Y1315D01*
X357Y1315D02*
X359Y1315D01*
X366Y1315D02*
X368Y1315D01*
X1288Y1315D02*
X1362Y1315D01*
X93Y1314D02*
X95Y1314D01*
X99Y1314D02*
X101Y1314D01*
X105Y1314D02*
X108Y1314D01*
X118Y1314D02*
X120Y1314D01*
X124Y1314D02*
X127Y1314D01*
X137Y1314D02*
X139Y1314D01*
X159Y1314D02*
X161Y1314D01*
X187Y1314D02*
X189Y1314D01*
X203Y1314D02*
X211Y1314D01*
X225Y1314D02*
X227Y1314D01*
X247Y1314D02*
X261Y1314D01*
X291Y1314D02*
X303Y1314D01*
X312Y1314D02*
X314Y1314D01*
X324Y1314D02*
X326Y1314D01*
X340Y1314D02*
X342Y1314D01*
X357Y1314D02*
X359Y1314D01*
X366Y1314D02*
X368Y1314D01*
X1288Y1314D02*
X1290Y1314D01*
X1360Y1314D02*
X1362Y1314D01*
X93Y1313D02*
X95Y1313D01*
X99Y1313D02*
X101Y1313D01*
X105Y1313D02*
X108Y1313D01*
X118Y1313D02*
X120Y1313D01*
X125Y1313D02*
X127Y1313D01*
X137Y1313D02*
X139Y1313D01*
X159Y1313D02*
X161Y1313D01*
X187Y1313D02*
X189Y1313D01*
X203Y1313D02*
X205Y1313D01*
X225Y1313D02*
X227Y1313D01*
X247Y1313D02*
X249Y1313D01*
X259Y1313D02*
X261Y1313D01*
X290Y1313D02*
X293Y1313D01*
X312Y1313D02*
X314Y1313D01*
X324Y1313D02*
X326Y1313D01*
X340Y1313D02*
X342Y1313D01*
X346Y1313D02*
X348Y1313D01*
X357Y1313D02*
X369Y1313D01*
X1288Y1313D02*
X1290Y1313D01*
X1360Y1313D02*
X1362Y1313D01*
X93Y1312D02*
X95Y1312D01*
X99Y1312D02*
X101Y1312D01*
X105Y1312D02*
X108Y1312D01*
X117Y1312D02*
X120Y1312D01*
X125Y1312D02*
X127Y1312D01*
X137Y1312D02*
X139Y1312D01*
X159Y1312D02*
X161Y1312D01*
X187Y1312D02*
X189Y1312D01*
X203Y1312D02*
X205Y1312D01*
X225Y1312D02*
X228Y1312D01*
X247Y1312D02*
X249Y1312D01*
X259Y1312D02*
X261Y1312D01*
X290Y1312D02*
X293Y1312D01*
X312Y1312D02*
X314Y1312D01*
X324Y1312D02*
X326Y1312D01*
X340Y1312D02*
X342Y1312D01*
X346Y1312D02*
X348Y1312D01*
X357Y1312D02*
X369Y1312D01*
X1288Y1312D02*
X1290Y1312D01*
X1360Y1312D02*
X1362Y1312D01*
X93Y1311D02*
X95Y1311D01*
X99Y1311D02*
X101Y1311D01*
X105Y1311D02*
X108Y1311D01*
X117Y1311D02*
X128Y1311D01*
X137Y1311D02*
X139Y1311D01*
X159Y1311D02*
X161Y1311D01*
X187Y1311D02*
X189Y1311D01*
X203Y1311D02*
X205Y1311D01*
X226Y1311D02*
X228Y1311D01*
X247Y1311D02*
X249Y1311D01*
X259Y1311D02*
X261Y1311D01*
X290Y1311D02*
X293Y1311D01*
X312Y1311D02*
X314Y1311D01*
X324Y1311D02*
X326Y1311D01*
X340Y1311D02*
X342Y1311D01*
X346Y1311D02*
X348Y1311D01*
X357Y1311D02*
X369Y1311D01*
X1288Y1311D02*
X1290Y1311D01*
X1360Y1311D02*
X1362Y1311D01*
X93Y1310D02*
X95Y1310D01*
X99Y1310D02*
X101Y1310D01*
X105Y1310D02*
X108Y1310D01*
X117Y1310D02*
X128Y1310D01*
X137Y1310D02*
X139Y1310D01*
X159Y1310D02*
X161Y1310D01*
X187Y1310D02*
X189Y1310D01*
X203Y1310D02*
X205Y1310D01*
X226Y1310D02*
X229Y1310D01*
X247Y1310D02*
X249Y1310D01*
X259Y1310D02*
X261Y1310D01*
X290Y1310D02*
X293Y1310D01*
X312Y1310D02*
X314Y1310D01*
X324Y1310D02*
X326Y1310D01*
X340Y1310D02*
X342Y1310D01*
X346Y1310D02*
X348Y1310D01*
X366Y1310D02*
X368Y1310D01*
X1288Y1310D02*
X1290Y1310D01*
X1360Y1310D02*
X1362Y1310D01*
X93Y1309D02*
X95Y1309D01*
X99Y1309D02*
X101Y1309D01*
X105Y1309D02*
X108Y1309D01*
X117Y1309D02*
X128Y1309D01*
X137Y1309D02*
X139Y1309D01*
X159Y1309D02*
X161Y1309D01*
X187Y1309D02*
X189Y1309D01*
X203Y1309D02*
X205Y1309D01*
X227Y1309D02*
X229Y1309D01*
X247Y1309D02*
X249Y1309D01*
X259Y1309D02*
X261Y1309D01*
X290Y1309D02*
X293Y1309D01*
X312Y1309D02*
X314Y1309D01*
X324Y1309D02*
X326Y1309D01*
X340Y1309D02*
X342Y1309D01*
X346Y1309D02*
X348Y1309D01*
X366Y1309D02*
X368Y1309D01*
X1288Y1309D02*
X1290Y1309D01*
X1360Y1309D02*
X1362Y1309D01*
X93Y1308D02*
X95Y1308D01*
X99Y1308D02*
X101Y1308D01*
X105Y1308D02*
X108Y1308D01*
X116Y1308D02*
X119Y1308D01*
X126Y1308D02*
X128Y1308D01*
X137Y1308D02*
X139Y1308D01*
X159Y1308D02*
X161Y1308D01*
X187Y1308D02*
X189Y1308D01*
X203Y1308D02*
X205Y1308D01*
X227Y1308D02*
X230Y1308D01*
X247Y1308D02*
X249Y1308D01*
X259Y1308D02*
X261Y1308D01*
X290Y1308D02*
X293Y1308D01*
X312Y1308D02*
X314Y1308D01*
X324Y1308D02*
X326Y1308D01*
X340Y1308D02*
X342Y1308D01*
X346Y1308D02*
X348Y1308D01*
X366Y1308D02*
X368Y1308D01*
X1288Y1308D02*
X1290Y1308D01*
X1360Y1308D02*
X1362Y1308D01*
X93Y1307D02*
X96Y1307D01*
X99Y1307D02*
X102Y1307D01*
X105Y1307D02*
X108Y1307D01*
X116Y1307D02*
X118Y1307D01*
X127Y1307D02*
X129Y1307D01*
X137Y1307D02*
X139Y1307D01*
X159Y1307D02*
X161Y1307D01*
X187Y1307D02*
X189Y1307D01*
X203Y1307D02*
X205Y1307D01*
X228Y1307D02*
X230Y1307D01*
X247Y1307D02*
X249Y1307D01*
X259Y1307D02*
X261Y1307D01*
X290Y1307D02*
X293Y1307D01*
X312Y1307D02*
X314Y1307D01*
X324Y1307D02*
X326Y1307D01*
X340Y1307D02*
X342Y1307D01*
X346Y1307D02*
X348Y1307D01*
X366Y1307D02*
X368Y1307D01*
X1288Y1307D02*
X1290Y1307D01*
X1360Y1307D02*
X1362Y1307D01*
X94Y1306D02*
X107Y1306D01*
X116Y1306D02*
X118Y1306D01*
X127Y1306D02*
X129Y1306D01*
X137Y1306D02*
X150Y1306D01*
X159Y1306D02*
X172Y1306D01*
X187Y1306D02*
X189Y1306D01*
X203Y1306D02*
X216Y1306D01*
X228Y1306D02*
X238Y1306D01*
X247Y1306D02*
X249Y1306D01*
X259Y1306D02*
X261Y1306D01*
X290Y1306D02*
X303Y1306D01*
X312Y1306D02*
X326Y1306D01*
X335Y1306D02*
X348Y1306D01*
X366Y1306D02*
X368Y1306D01*
X1288Y1306D02*
X1290Y1306D01*
X1360Y1306D02*
X1362Y1306D01*
X94Y1305D02*
X106Y1305D01*
X115Y1305D02*
X118Y1305D01*
X127Y1305D02*
X129Y1305D01*
X137Y1305D02*
X151Y1305D01*
X159Y1305D02*
X173Y1305D01*
X187Y1305D02*
X189Y1305D01*
X203Y1305D02*
X217Y1305D01*
X229Y1305D02*
X239Y1305D01*
X247Y1305D02*
X249Y1305D01*
X259Y1305D02*
X261Y1305D01*
X290Y1305D02*
X304Y1305D01*
X313Y1305D02*
X326Y1305D01*
X334Y1305D02*
X348Y1305D01*
X366Y1305D02*
X368Y1305D01*
X1288Y1305D02*
X1290Y1305D01*
X1360Y1305D02*
X1362Y1305D01*
X95Y1304D02*
X106Y1304D01*
X115Y1304D02*
X117Y1304D01*
X127Y1304D02*
X129Y1304D01*
X137Y1304D02*
X151Y1304D01*
X159Y1304D02*
X173Y1304D01*
X187Y1304D02*
X189Y1304D01*
X203Y1304D02*
X217Y1304D01*
X230Y1304D02*
X239Y1304D01*
X247Y1304D02*
X249Y1304D01*
X259Y1304D02*
X261Y1304D01*
X290Y1304D02*
X304Y1304D01*
X313Y1304D02*
X326Y1304D01*
X334Y1304D02*
X348Y1304D01*
X366Y1304D02*
X368Y1304D01*
X1288Y1304D02*
X1290Y1304D01*
X1360Y1304D02*
X1362Y1304D01*
X1288Y1303D02*
X1290Y1303D01*
X1360Y1303D02*
X1362Y1303D01*
X1288Y1302D02*
X1290Y1302D01*
X1360Y1302D02*
X1362Y1302D01*
X1288Y1301D02*
X1290Y1301D01*
X1360Y1301D02*
X1362Y1301D01*
X1288Y1300D02*
X1290Y1300D01*
X1360Y1300D02*
X1362Y1300D01*
X1288Y1299D02*
X1290Y1299D01*
X1360Y1299D02*
X1362Y1299D01*
X1288Y1298D02*
X1290Y1298D01*
X1360Y1298D02*
X1362Y1298D01*
X1288Y1297D02*
X1290Y1297D01*
X1360Y1297D02*
X1362Y1297D01*
X1288Y1296D02*
X1290Y1296D01*
X1360Y1296D02*
X1362Y1296D01*
X1288Y1295D02*
X1290Y1295D01*
X1360Y1295D02*
X1362Y1295D01*
X1288Y1294D02*
X1290Y1294D01*
X1360Y1294D02*
X1362Y1294D01*
X1288Y1293D02*
X1290Y1293D01*
X1360Y1293D02*
X1362Y1293D01*
X1288Y1292D02*
X1290Y1292D01*
X1360Y1292D02*
X1362Y1292D01*
X1288Y1291D02*
X1290Y1291D01*
X1360Y1291D02*
X1362Y1291D01*
X1288Y1290D02*
X1290Y1290D01*
X1360Y1290D02*
X1362Y1290D01*
X1288Y1289D02*
X1290Y1289D01*
X1360Y1289D02*
X1362Y1289D01*
X1288Y1288D02*
X1290Y1288D01*
X1360Y1288D02*
X1362Y1288D01*
X1288Y1287D02*
X1290Y1287D01*
X1360Y1287D02*
X1362Y1287D01*
X1288Y1286D02*
X1290Y1286D01*
X1360Y1286D02*
X1362Y1286D01*
X1288Y1285D02*
X1290Y1285D01*
X1360Y1285D02*
X1362Y1285D01*
X1288Y1284D02*
X1290Y1284D01*
X1360Y1284D02*
X1362Y1284D01*
X1288Y1283D02*
X1290Y1283D01*
X1360Y1283D02*
X1362Y1283D01*
X1288Y1282D02*
X1290Y1282D01*
X1360Y1282D02*
X1362Y1282D01*
X1288Y1281D02*
X1290Y1281D01*
X1360Y1281D02*
X1362Y1281D01*
X1288Y1280D02*
X1290Y1280D01*
X1360Y1280D02*
X1362Y1280D01*
X1288Y1279D02*
X1290Y1279D01*
X1360Y1279D02*
X1362Y1279D01*
X1288Y1278D02*
X1290Y1278D01*
X1360Y1278D02*
X1362Y1278D01*
X1288Y1277D02*
X1290Y1277D01*
X1360Y1277D02*
X1362Y1277D01*
X1288Y1276D02*
X1290Y1276D01*
X1360Y1276D02*
X1362Y1276D01*
X1288Y1275D02*
X1290Y1275D01*
X1360Y1275D02*
X1362Y1275D01*
X1288Y1274D02*
X1290Y1274D01*
X1360Y1274D02*
X1362Y1274D01*
X1288Y1273D02*
X1290Y1273D01*
X1360Y1273D02*
X1362Y1273D01*
X1288Y1272D02*
X1290Y1272D01*
X1360Y1272D02*
X1362Y1272D01*
X1288Y1271D02*
X1290Y1271D01*
X1360Y1271D02*
X1362Y1271D01*
X1288Y1270D02*
X1290Y1270D01*
X1360Y1270D02*
X1362Y1270D01*
X1288Y1269D02*
X1290Y1269D01*
X1360Y1269D02*
X1362Y1269D01*
X1288Y1268D02*
X1290Y1268D01*
X1360Y1268D02*
X1362Y1268D01*
X1288Y1267D02*
X1290Y1267D01*
X1360Y1267D02*
X1362Y1267D01*
X1288Y1266D02*
X1290Y1266D01*
X1360Y1266D02*
X1362Y1266D01*
X1288Y1265D02*
X1290Y1265D01*
X1360Y1265D02*
X1362Y1265D01*
X1288Y1264D02*
X1290Y1264D01*
X1360Y1264D02*
X1362Y1264D01*
X1288Y1263D02*
X1290Y1263D01*
X1360Y1263D02*
X1362Y1263D01*
X1288Y1262D02*
X1290Y1262D01*
X1360Y1262D02*
X1362Y1262D01*
X1288Y1261D02*
X1290Y1261D01*
X1360Y1261D02*
X1362Y1261D01*
X1288Y1260D02*
X1290Y1260D01*
X1360Y1260D02*
X1362Y1260D01*
X1288Y1259D02*
X1290Y1259D01*
X1360Y1259D02*
X1362Y1259D01*
X1288Y1258D02*
X1290Y1258D01*
X1360Y1258D02*
X1362Y1258D01*
X1288Y1257D02*
X1290Y1257D01*
X1360Y1257D02*
X1362Y1257D01*
X1288Y1256D02*
X1290Y1256D01*
X1360Y1256D02*
X1362Y1256D01*
X1288Y1255D02*
X1290Y1255D01*
X1360Y1255D02*
X1362Y1255D01*
X1288Y1254D02*
X1290Y1254D01*
X1360Y1254D02*
X1362Y1254D01*
X1288Y1253D02*
X1290Y1253D01*
X1360Y1253D02*
X1362Y1253D01*
X1288Y1252D02*
X1290Y1252D01*
X1360Y1252D02*
X1362Y1252D01*
X1288Y1251D02*
X1290Y1251D01*
X1360Y1251D02*
X1362Y1251D01*
X1288Y1250D02*
X1290Y1250D01*
X1360Y1250D02*
X1362Y1250D01*
X1288Y1249D02*
X1291Y1249D01*
X1359Y1249D02*
X1362Y1249D01*
X1288Y1248D02*
X1291Y1248D01*
X1359Y1248D02*
X1362Y1248D01*
X1288Y1247D02*
X1291Y1247D01*
X1359Y1247D02*
X1362Y1247D01*
X1288Y1246D02*
X1291Y1246D01*
X1359Y1246D02*
X1362Y1246D01*
X1288Y1245D02*
X1291Y1245D01*
X1359Y1245D02*
X1362Y1245D01*
X1288Y1244D02*
X1291Y1244D01*
X1359Y1244D02*
X1362Y1244D01*
X1288Y1243D02*
X1291Y1243D01*
X1359Y1243D02*
X1362Y1243D01*
X1288Y1242D02*
X1291Y1242D01*
X1359Y1242D02*
X1362Y1242D01*
X1288Y1241D02*
X1291Y1241D01*
X1359Y1241D02*
X1362Y1241D01*
X1288Y1240D02*
X1291Y1240D01*
X1359Y1240D02*
X1362Y1240D01*
X1288Y1239D02*
X1291Y1239D01*
X1359Y1239D02*
X1362Y1239D01*
X1288Y1238D02*
X1291Y1238D01*
X1359Y1238D02*
X1362Y1238D01*
X1288Y1237D02*
X1291Y1237D01*
X1296Y1237D02*
X1353Y1237D01*
X1359Y1237D02*
X1362Y1237D01*
X1288Y1236D02*
X1291Y1236D01*
X1296Y1236D02*
X1354Y1236D01*
X1359Y1236D02*
X1362Y1236D01*
X1288Y1235D02*
X1291Y1235D01*
X1296Y1235D02*
X1354Y1235D01*
X1359Y1235D02*
X1362Y1235D01*
X1288Y1234D02*
X1290Y1234D01*
X1360Y1234D02*
X1362Y1234D01*
X1288Y1233D02*
X1290Y1233D01*
X1360Y1233D02*
X1362Y1233D01*
X1288Y1232D02*
X1290Y1232D01*
X1360Y1232D02*
X1362Y1232D01*
X1288Y1231D02*
X1290Y1231D01*
X1360Y1231D02*
X1362Y1231D01*
X1288Y1230D02*
X1290Y1230D01*
X1360Y1230D02*
X1362Y1230D01*
X1288Y1229D02*
X1290Y1229D01*
X1360Y1229D02*
X1362Y1229D01*
X1288Y1228D02*
X1290Y1228D01*
X1360Y1228D02*
X1362Y1228D01*
X1288Y1227D02*
X1290Y1227D01*
X1360Y1227D02*
X1362Y1227D01*
X1288Y1226D02*
X1290Y1226D01*
X1360Y1226D02*
X1362Y1226D01*
X1288Y1225D02*
X1290Y1225D01*
X1360Y1225D02*
X1362Y1225D01*
X1288Y1224D02*
X1290Y1224D01*
X1360Y1224D02*
X1362Y1224D01*
X1288Y1223D02*
X1290Y1223D01*
X1360Y1223D02*
X1362Y1223D01*
X1288Y1222D02*
X1290Y1222D01*
X1360Y1222D02*
X1362Y1222D01*
X1288Y1221D02*
X1290Y1221D01*
X1360Y1221D02*
X1362Y1221D01*
X1288Y1220D02*
X1290Y1220D01*
X1360Y1220D02*
X1362Y1220D01*
X1288Y1219D02*
X1290Y1219D01*
X1360Y1219D02*
X1362Y1219D01*
X1288Y1218D02*
X1290Y1218D01*
X1360Y1218D02*
X1362Y1218D01*
X1288Y1217D02*
X1290Y1217D01*
X1360Y1217D02*
X1362Y1217D01*
X1288Y1216D02*
X1290Y1216D01*
X1360Y1216D02*
X1362Y1216D01*
X1288Y1215D02*
X1290Y1215D01*
X1360Y1215D02*
X1362Y1215D01*
X1288Y1214D02*
X1290Y1214D01*
X1360Y1214D02*
X1362Y1214D01*
X1288Y1213D02*
X1290Y1213D01*
X1360Y1213D02*
X1362Y1213D01*
X1288Y1212D02*
X1290Y1212D01*
X1360Y1212D02*
X1362Y1212D01*
X1288Y1211D02*
X1290Y1211D01*
X1360Y1211D02*
X1362Y1211D01*
X1288Y1210D02*
X1290Y1210D01*
X1360Y1210D02*
X1362Y1210D01*
X1288Y1209D02*
X1290Y1209D01*
X1360Y1209D02*
X1362Y1209D01*
X1288Y1208D02*
X1290Y1208D01*
X1360Y1208D02*
X1362Y1208D01*
X1288Y1207D02*
X1290Y1207D01*
X1360Y1207D02*
X1362Y1207D01*
X1288Y1206D02*
X1290Y1206D01*
X1360Y1206D02*
X1362Y1206D01*
X1288Y1205D02*
X1290Y1205D01*
X1360Y1205D02*
X1362Y1205D01*
X1288Y1204D02*
X1290Y1204D01*
X1360Y1204D02*
X1362Y1204D01*
X1288Y1203D02*
X1290Y1203D01*
X1360Y1203D02*
X1362Y1203D01*
X1288Y1202D02*
X1290Y1202D01*
X1360Y1202D02*
X1362Y1202D01*
X1288Y1201D02*
X1290Y1201D01*
X1360Y1201D02*
X1362Y1201D01*
X1288Y1200D02*
X1290Y1200D01*
X1360Y1200D02*
X1362Y1200D01*
X1288Y1199D02*
X1290Y1199D01*
X1360Y1199D02*
X1362Y1199D01*
X1288Y1198D02*
X1290Y1198D01*
X1360Y1198D02*
X1362Y1198D01*
X1288Y1197D02*
X1290Y1197D01*
X1360Y1197D02*
X1362Y1197D01*
X1288Y1196D02*
X1290Y1196D01*
X1360Y1196D02*
X1362Y1196D01*
X1288Y1195D02*
X1290Y1195D01*
X1360Y1195D02*
X1362Y1195D01*
X1288Y1194D02*
X1290Y1194D01*
X1360Y1194D02*
X1362Y1194D01*
X1288Y1193D02*
X1290Y1193D01*
X1360Y1193D02*
X1362Y1193D01*
X1288Y1192D02*
X1290Y1192D01*
X1360Y1192D02*
X1362Y1192D01*
X1288Y1191D02*
X1290Y1191D01*
X1360Y1191D02*
X1362Y1191D01*
X1288Y1190D02*
X1290Y1190D01*
X1360Y1190D02*
X1362Y1190D01*
X1288Y1189D02*
X1290Y1189D01*
X1360Y1189D02*
X1362Y1189D01*
X1288Y1188D02*
X1290Y1188D01*
X1360Y1188D02*
X1362Y1188D01*
X1288Y1187D02*
X1290Y1187D01*
X1360Y1187D02*
X1362Y1187D01*
X1288Y1186D02*
X1290Y1186D01*
X1360Y1186D02*
X1362Y1186D01*
X1288Y1185D02*
X1290Y1185D01*
X1360Y1185D02*
X1362Y1185D01*
X1288Y1184D02*
X1290Y1184D01*
X1360Y1184D02*
X1362Y1184D01*
X1288Y1183D02*
X1290Y1183D01*
X1360Y1183D02*
X1362Y1183D01*
X1288Y1182D02*
X1290Y1182D01*
X1360Y1182D02*
X1362Y1182D01*
X1288Y1181D02*
X1290Y1181D01*
X1360Y1181D02*
X1362Y1181D01*
X1288Y1180D02*
X1290Y1180D01*
X1360Y1180D02*
X1362Y1180D01*
X1288Y1179D02*
X1290Y1179D01*
X1360Y1179D02*
X1362Y1179D01*
X1288Y1178D02*
X1290Y1178D01*
X1360Y1178D02*
X1362Y1178D01*
X1288Y1177D02*
X1290Y1177D01*
X1360Y1177D02*
X1362Y1177D01*
X1288Y1176D02*
X1290Y1176D01*
X1360Y1176D02*
X1362Y1176D01*
X1288Y1175D02*
X1290Y1175D01*
X1360Y1175D02*
X1362Y1175D01*
X1288Y1174D02*
X1290Y1174D01*
X1360Y1174D02*
X1362Y1174D01*
X1288Y1173D02*
X1290Y1173D01*
X1360Y1173D02*
X1362Y1173D01*
X1288Y1172D02*
X1290Y1172D01*
X1360Y1172D02*
X1362Y1172D01*
X1288Y1171D02*
X1290Y1171D01*
X1360Y1171D02*
X1362Y1171D01*
X1288Y1170D02*
X1290Y1170D01*
X1360Y1170D02*
X1362Y1170D01*
X1288Y1169D02*
X1362Y1169D01*
X1288Y1168D02*
X1362Y1168D01*
X1288Y1167D02*
X1362Y1167D01*
X119Y1120D02*
X125Y1120D01*
X170Y1120D02*
X182Y1120D01*
X213Y1120D02*
X216Y1120D01*
X116Y1119D02*
X127Y1119D01*
X170Y1119D02*
X183Y1119D01*
X211Y1119D02*
X217Y1119D01*
X115Y1118D02*
X129Y1118D01*
X170Y1118D02*
X183Y1118D01*
X210Y1118D02*
X218Y1118D01*
X113Y1117D02*
X130Y1117D01*
X170Y1117D02*
X184Y1117D01*
X210Y1117D02*
X219Y1117D01*
X112Y1116D02*
X131Y1116D01*
X170Y1116D02*
X184Y1116D01*
X210Y1116D02*
X219Y1116D01*
X112Y1115D02*
X132Y1115D01*
X170Y1115D02*
X185Y1115D01*
X210Y1115D02*
X219Y1115D01*
X111Y1114D02*
X133Y1114D01*
X170Y1114D02*
X185Y1114D01*
X210Y1114D02*
X219Y1114D01*
X110Y1113D02*
X133Y1113D01*
X170Y1113D02*
X185Y1113D01*
X210Y1113D02*
X219Y1113D01*
X110Y1112D02*
X134Y1112D01*
X170Y1112D02*
X186Y1112D01*
X210Y1112D02*
X219Y1112D01*
X109Y1111D02*
X134Y1111D01*
X170Y1111D02*
X186Y1111D01*
X210Y1111D02*
X219Y1111D01*
X109Y1110D02*
X120Y1110D01*
X123Y1110D02*
X135Y1110D01*
X170Y1110D02*
X187Y1110D01*
X210Y1110D02*
X219Y1110D01*
X108Y1109D02*
X119Y1109D01*
X125Y1109D02*
X135Y1109D01*
X170Y1109D02*
X187Y1109D01*
X210Y1109D02*
X219Y1109D01*
X108Y1108D02*
X118Y1108D01*
X125Y1108D02*
X136Y1108D01*
X170Y1108D02*
X188Y1108D01*
X210Y1108D02*
X219Y1108D01*
X107Y1107D02*
X118Y1107D01*
X126Y1107D02*
X136Y1107D01*
X170Y1107D02*
X188Y1107D01*
X210Y1107D02*
X219Y1107D01*
X107Y1106D02*
X117Y1106D01*
X126Y1106D02*
X137Y1106D01*
X170Y1106D02*
X188Y1106D01*
X210Y1106D02*
X219Y1106D01*
X106Y1105D02*
X117Y1105D01*
X127Y1105D02*
X137Y1105D01*
X170Y1105D02*
X189Y1105D01*
X210Y1105D02*
X219Y1105D01*
X106Y1104D02*
X116Y1104D01*
X127Y1104D02*
X138Y1104D01*
X170Y1104D02*
X189Y1104D01*
X210Y1104D02*
X219Y1104D01*
X105Y1103D02*
X116Y1103D01*
X128Y1103D02*
X138Y1103D01*
X170Y1103D02*
X190Y1103D01*
X210Y1103D02*
X219Y1103D01*
X105Y1102D02*
X115Y1102D01*
X128Y1102D02*
X139Y1102D01*
X170Y1102D02*
X190Y1102D01*
X210Y1102D02*
X219Y1102D01*
X104Y1101D02*
X115Y1101D01*
X129Y1101D02*
X139Y1101D01*
X170Y1101D02*
X179Y1101D01*
X181Y1101D02*
X191Y1101D01*
X210Y1101D02*
X219Y1101D01*
X104Y1100D02*
X114Y1100D01*
X129Y1100D02*
X140Y1100D01*
X170Y1100D02*
X179Y1100D01*
X181Y1100D02*
X191Y1100D01*
X210Y1100D02*
X219Y1100D01*
X103Y1099D02*
X114Y1099D01*
X130Y1099D02*
X140Y1099D01*
X170Y1099D02*
X179Y1099D01*
X181Y1099D02*
X192Y1099D01*
X210Y1099D02*
X219Y1099D01*
X103Y1098D02*
X113Y1098D01*
X130Y1098D02*
X141Y1098D01*
X170Y1098D02*
X179Y1098D01*
X182Y1098D02*
X192Y1098D01*
X210Y1098D02*
X219Y1098D01*
X102Y1097D02*
X113Y1097D01*
X131Y1097D02*
X141Y1097D01*
X170Y1097D02*
X179Y1097D01*
X182Y1097D02*
X192Y1097D01*
X210Y1097D02*
X219Y1097D01*
X102Y1096D02*
X112Y1096D01*
X131Y1096D02*
X142Y1096D01*
X170Y1096D02*
X179Y1096D01*
X183Y1096D02*
X193Y1096D01*
X210Y1096D02*
X219Y1096D01*
X101Y1095D02*
X112Y1095D01*
X132Y1095D02*
X142Y1095D01*
X170Y1095D02*
X179Y1095D01*
X183Y1095D02*
X193Y1095D01*
X210Y1095D02*
X219Y1095D01*
X101Y1094D02*
X111Y1094D01*
X132Y1094D02*
X143Y1094D01*
X170Y1094D02*
X179Y1094D01*
X184Y1094D02*
X194Y1094D01*
X210Y1094D02*
X219Y1094D01*
X100Y1093D02*
X111Y1093D01*
X133Y1093D02*
X143Y1093D01*
X170Y1093D02*
X179Y1093D01*
X184Y1093D02*
X194Y1093D01*
X210Y1093D02*
X219Y1093D01*
X100Y1092D02*
X110Y1092D01*
X133Y1092D02*
X144Y1092D01*
X170Y1092D02*
X179Y1092D01*
X184Y1092D02*
X195Y1092D01*
X210Y1092D02*
X219Y1092D01*
X99Y1091D02*
X110Y1091D01*
X134Y1091D02*
X144Y1091D01*
X170Y1091D02*
X179Y1091D01*
X185Y1091D02*
X195Y1091D01*
X210Y1091D02*
X219Y1091D01*
X99Y1090D02*
X109Y1090D01*
X134Y1090D02*
X144Y1090D01*
X170Y1090D02*
X179Y1090D01*
X185Y1090D02*
X195Y1090D01*
X210Y1090D02*
X219Y1090D01*
X99Y1089D02*
X109Y1089D01*
X135Y1089D02*
X145Y1089D01*
X170Y1089D02*
X179Y1089D01*
X186Y1089D02*
X196Y1089D01*
X210Y1089D02*
X219Y1089D01*
X98Y1088D02*
X108Y1088D01*
X135Y1088D02*
X145Y1088D01*
X170Y1088D02*
X179Y1088D01*
X186Y1088D02*
X196Y1088D01*
X210Y1088D02*
X219Y1088D01*
X98Y1087D02*
X108Y1087D01*
X136Y1087D02*
X145Y1087D01*
X170Y1087D02*
X179Y1087D01*
X187Y1087D02*
X197Y1087D01*
X210Y1087D02*
X219Y1087D01*
X98Y1086D02*
X107Y1086D01*
X136Y1086D02*
X146Y1086D01*
X170Y1086D02*
X179Y1086D01*
X187Y1086D02*
X197Y1086D01*
X210Y1086D02*
X219Y1086D01*
X98Y1085D02*
X107Y1085D01*
X137Y1085D02*
X146Y1085D01*
X170Y1085D02*
X179Y1085D01*
X188Y1085D02*
X198Y1085D01*
X210Y1085D02*
X219Y1085D01*
X1288Y1085D02*
X1362Y1085D01*
X97Y1084D02*
X107Y1084D01*
X137Y1084D02*
X146Y1084D01*
X170Y1084D02*
X179Y1084D01*
X188Y1084D02*
X198Y1084D01*
X210Y1084D02*
X219Y1084D01*
X1288Y1084D02*
X1362Y1084D01*
X97Y1083D02*
X106Y1083D01*
X137Y1083D02*
X146Y1083D01*
X170Y1083D02*
X179Y1083D01*
X188Y1083D02*
X199Y1083D01*
X210Y1083D02*
X219Y1083D01*
X1288Y1083D02*
X1362Y1083D01*
X97Y1082D02*
X106Y1082D01*
X137Y1082D02*
X146Y1082D01*
X170Y1082D02*
X179Y1082D01*
X189Y1082D02*
X199Y1082D01*
X210Y1082D02*
X219Y1082D01*
X1288Y1082D02*
X1290Y1082D01*
X1360Y1082D02*
X1362Y1082D01*
X97Y1081D02*
X106Y1081D01*
X137Y1081D02*
X146Y1081D01*
X170Y1081D02*
X179Y1081D01*
X189Y1081D02*
X199Y1081D01*
X210Y1081D02*
X219Y1081D01*
X1288Y1081D02*
X1290Y1081D01*
X1360Y1081D02*
X1362Y1081D01*
X97Y1080D02*
X106Y1080D01*
X137Y1080D02*
X146Y1080D01*
X170Y1080D02*
X179Y1080D01*
X190Y1080D02*
X200Y1080D01*
X210Y1080D02*
X219Y1080D01*
X1288Y1080D02*
X1290Y1080D01*
X1360Y1080D02*
X1362Y1080D01*
X97Y1079D02*
X107Y1079D01*
X137Y1079D02*
X146Y1079D01*
X170Y1079D02*
X179Y1079D01*
X190Y1079D02*
X200Y1079D01*
X210Y1079D02*
X219Y1079D01*
X1288Y1079D02*
X1290Y1079D01*
X1360Y1079D02*
X1362Y1079D01*
X97Y1078D02*
X107Y1078D01*
X137Y1078D02*
X146Y1078D01*
X170Y1078D02*
X179Y1078D01*
X191Y1078D02*
X201Y1078D01*
X210Y1078D02*
X219Y1078D01*
X1288Y1078D02*
X1290Y1078D01*
X1360Y1078D02*
X1362Y1078D01*
X98Y1077D02*
X107Y1077D01*
X136Y1077D02*
X146Y1077D01*
X170Y1077D02*
X179Y1077D01*
X191Y1077D02*
X201Y1077D01*
X210Y1077D02*
X219Y1077D01*
X1288Y1077D02*
X1290Y1077D01*
X1360Y1077D02*
X1362Y1077D01*
X98Y1076D02*
X107Y1076D01*
X136Y1076D02*
X146Y1076D01*
X170Y1076D02*
X179Y1076D01*
X191Y1076D02*
X202Y1076D01*
X210Y1076D02*
X219Y1076D01*
X1288Y1076D02*
X1290Y1076D01*
X1360Y1076D02*
X1362Y1076D01*
X98Y1075D02*
X108Y1075D01*
X135Y1075D02*
X145Y1075D01*
X170Y1075D02*
X179Y1075D01*
X192Y1075D02*
X202Y1075D01*
X210Y1075D02*
X219Y1075D01*
X1288Y1075D02*
X1290Y1075D01*
X1360Y1075D02*
X1362Y1075D01*
X98Y1074D02*
X108Y1074D01*
X135Y1074D02*
X145Y1074D01*
X170Y1074D02*
X179Y1074D01*
X192Y1074D02*
X203Y1074D01*
X210Y1074D02*
X219Y1074D01*
X1288Y1074D02*
X1290Y1074D01*
X1360Y1074D02*
X1362Y1074D01*
X99Y1073D02*
X109Y1073D01*
X134Y1073D02*
X145Y1073D01*
X170Y1073D02*
X179Y1073D01*
X193Y1073D02*
X203Y1073D01*
X210Y1073D02*
X219Y1073D01*
X1288Y1073D02*
X1290Y1073D01*
X1360Y1073D02*
X1362Y1073D01*
X99Y1072D02*
X109Y1072D01*
X134Y1072D02*
X144Y1072D01*
X170Y1072D02*
X179Y1072D01*
X193Y1072D02*
X203Y1072D01*
X210Y1072D02*
X219Y1072D01*
X1288Y1072D02*
X1290Y1072D01*
X1360Y1072D02*
X1362Y1072D01*
X100Y1071D02*
X110Y1071D01*
X133Y1071D02*
X144Y1071D01*
X170Y1071D02*
X179Y1071D01*
X194Y1071D02*
X204Y1071D01*
X210Y1071D02*
X219Y1071D01*
X1288Y1071D02*
X1290Y1071D01*
X1360Y1071D02*
X1362Y1071D01*
X100Y1070D02*
X110Y1070D01*
X133Y1070D02*
X143Y1070D01*
X170Y1070D02*
X179Y1070D01*
X194Y1070D02*
X204Y1070D01*
X210Y1070D02*
X219Y1070D01*
X1288Y1070D02*
X1290Y1070D01*
X1360Y1070D02*
X1362Y1070D01*
X101Y1069D02*
X111Y1069D01*
X132Y1069D02*
X143Y1069D01*
X170Y1069D02*
X179Y1069D01*
X195Y1069D02*
X205Y1069D01*
X210Y1069D02*
X219Y1069D01*
X1288Y1069D02*
X1290Y1069D01*
X1360Y1069D02*
X1362Y1069D01*
X101Y1068D02*
X111Y1068D01*
X132Y1068D02*
X142Y1068D01*
X170Y1068D02*
X179Y1068D01*
X195Y1068D02*
X205Y1068D01*
X210Y1068D02*
X219Y1068D01*
X1288Y1068D02*
X1290Y1068D01*
X1360Y1068D02*
X1362Y1068D01*
X102Y1067D02*
X112Y1067D01*
X131Y1067D02*
X142Y1067D01*
X170Y1067D02*
X179Y1067D01*
X195Y1067D02*
X206Y1067D01*
X210Y1067D02*
X219Y1067D01*
X1288Y1067D02*
X1290Y1067D01*
X1360Y1067D02*
X1362Y1067D01*
X102Y1066D02*
X112Y1066D01*
X131Y1066D02*
X141Y1066D01*
X170Y1066D02*
X179Y1066D01*
X196Y1066D02*
X206Y1066D01*
X210Y1066D02*
X219Y1066D01*
X1288Y1066D02*
X1290Y1066D01*
X1360Y1066D02*
X1362Y1066D01*
X103Y1065D02*
X113Y1065D01*
X130Y1065D02*
X141Y1065D01*
X170Y1065D02*
X179Y1065D01*
X196Y1065D02*
X206Y1065D01*
X210Y1065D02*
X219Y1065D01*
X1288Y1065D02*
X1290Y1065D01*
X1360Y1065D02*
X1362Y1065D01*
X103Y1064D02*
X113Y1064D01*
X130Y1064D02*
X140Y1064D01*
X170Y1064D02*
X179Y1064D01*
X197Y1064D02*
X207Y1064D01*
X210Y1064D02*
X219Y1064D01*
X1288Y1064D02*
X1290Y1064D01*
X1360Y1064D02*
X1362Y1064D01*
X104Y1063D02*
X114Y1063D01*
X129Y1063D02*
X140Y1063D01*
X170Y1063D02*
X179Y1063D01*
X197Y1063D02*
X207Y1063D01*
X210Y1063D02*
X219Y1063D01*
X1288Y1063D02*
X1290Y1063D01*
X1360Y1063D02*
X1362Y1063D01*
X104Y1062D02*
X114Y1062D01*
X129Y1062D02*
X139Y1062D01*
X170Y1062D02*
X179Y1062D01*
X198Y1062D02*
X208Y1062D01*
X210Y1062D02*
X219Y1062D01*
X1288Y1062D02*
X1290Y1062D01*
X1360Y1062D02*
X1362Y1062D01*
X105Y1061D02*
X115Y1061D01*
X128Y1061D02*
X139Y1061D01*
X170Y1061D02*
X179Y1061D01*
X198Y1061D02*
X219Y1061D01*
X1288Y1061D02*
X1290Y1061D01*
X1360Y1061D02*
X1362Y1061D01*
X105Y1060D02*
X115Y1060D01*
X128Y1060D02*
X138Y1060D01*
X170Y1060D02*
X179Y1060D01*
X199Y1060D02*
X219Y1060D01*
X1288Y1060D02*
X1290Y1060D01*
X1360Y1060D02*
X1362Y1060D01*
X106Y1059D02*
X116Y1059D01*
X127Y1059D02*
X138Y1059D01*
X170Y1059D02*
X179Y1059D01*
X199Y1059D02*
X219Y1059D01*
X1288Y1059D02*
X1290Y1059D01*
X1360Y1059D02*
X1362Y1059D01*
X106Y1058D02*
X116Y1058D01*
X127Y1058D02*
X137Y1058D01*
X170Y1058D02*
X179Y1058D01*
X199Y1058D02*
X219Y1058D01*
X1288Y1058D02*
X1290Y1058D01*
X1360Y1058D02*
X1362Y1058D01*
X107Y1057D02*
X117Y1057D01*
X127Y1057D02*
X137Y1057D01*
X170Y1057D02*
X179Y1057D01*
X200Y1057D02*
X219Y1057D01*
X1288Y1057D02*
X1290Y1057D01*
X1360Y1057D02*
X1362Y1057D01*
X107Y1056D02*
X118Y1056D01*
X126Y1056D02*
X136Y1056D01*
X170Y1056D02*
X179Y1056D01*
X200Y1056D02*
X219Y1056D01*
X1288Y1056D02*
X1290Y1056D01*
X1360Y1056D02*
X1362Y1056D01*
X108Y1055D02*
X118Y1055D01*
X126Y1055D02*
X136Y1055D01*
X170Y1055D02*
X179Y1055D01*
X201Y1055D02*
X219Y1055D01*
X1288Y1055D02*
X1290Y1055D01*
X1360Y1055D02*
X1362Y1055D01*
X108Y1054D02*
X119Y1054D01*
X125Y1054D02*
X135Y1054D01*
X170Y1054D02*
X179Y1054D01*
X201Y1054D02*
X219Y1054D01*
X1288Y1054D02*
X1290Y1054D01*
X1360Y1054D02*
X1362Y1054D01*
X109Y1053D02*
X119Y1053D01*
X124Y1053D02*
X135Y1053D01*
X170Y1053D02*
X179Y1053D01*
X202Y1053D02*
X219Y1053D01*
X1288Y1053D02*
X1290Y1053D01*
X1360Y1053D02*
X1362Y1053D01*
X109Y1052D02*
X134Y1052D01*
X170Y1052D02*
X179Y1052D01*
X202Y1052D02*
X219Y1052D01*
X1288Y1052D02*
X1290Y1052D01*
X1360Y1052D02*
X1362Y1052D01*
X110Y1051D02*
X134Y1051D01*
X170Y1051D02*
X179Y1051D01*
X202Y1051D02*
X219Y1051D01*
X1288Y1051D02*
X1290Y1051D01*
X1360Y1051D02*
X1362Y1051D01*
X110Y1050D02*
X133Y1050D01*
X170Y1050D02*
X179Y1050D01*
X203Y1050D02*
X219Y1050D01*
X1288Y1050D02*
X1290Y1050D01*
X1360Y1050D02*
X1362Y1050D01*
X111Y1049D02*
X133Y1049D01*
X170Y1049D02*
X179Y1049D01*
X203Y1049D02*
X219Y1049D01*
X1288Y1049D02*
X1290Y1049D01*
X1360Y1049D02*
X1362Y1049D01*
X111Y1048D02*
X132Y1048D01*
X170Y1048D02*
X179Y1048D01*
X204Y1048D02*
X219Y1048D01*
X1288Y1048D02*
X1290Y1048D01*
X1360Y1048D02*
X1362Y1048D01*
X112Y1047D02*
X131Y1047D01*
X170Y1047D02*
X179Y1047D01*
X204Y1047D02*
X219Y1047D01*
X1288Y1047D02*
X1290Y1047D01*
X1360Y1047D02*
X1362Y1047D01*
X113Y1046D02*
X130Y1046D01*
X170Y1046D02*
X179Y1046D01*
X205Y1046D02*
X219Y1046D01*
X1288Y1046D02*
X1290Y1046D01*
X1360Y1046D02*
X1362Y1046D01*
X114Y1045D02*
X129Y1045D01*
X170Y1045D02*
X178Y1045D01*
X205Y1045D02*
X219Y1045D01*
X1288Y1045D02*
X1290Y1045D01*
X1360Y1045D02*
X1362Y1045D01*
X115Y1044D02*
X128Y1044D01*
X171Y1044D02*
X178Y1044D01*
X206Y1044D02*
X219Y1044D01*
X1288Y1044D02*
X1290Y1044D01*
X1360Y1044D02*
X1362Y1044D01*
X117Y1043D02*
X126Y1043D01*
X172Y1043D02*
X177Y1043D01*
X206Y1043D02*
X219Y1043D01*
X1288Y1043D02*
X1290Y1043D01*
X1360Y1043D02*
X1362Y1043D01*
X1288Y1042D02*
X1290Y1042D01*
X1360Y1042D02*
X1362Y1042D01*
X1288Y1041D02*
X1290Y1041D01*
X1360Y1041D02*
X1362Y1041D01*
X1288Y1040D02*
X1290Y1040D01*
X1360Y1040D02*
X1362Y1040D01*
X1288Y1039D02*
X1290Y1039D01*
X1360Y1039D02*
X1362Y1039D01*
X1288Y1038D02*
X1290Y1038D01*
X1360Y1038D02*
X1362Y1038D01*
X1288Y1037D02*
X1290Y1037D01*
X1360Y1037D02*
X1362Y1037D01*
X1288Y1036D02*
X1290Y1036D01*
X1360Y1036D02*
X1362Y1036D01*
X1288Y1035D02*
X1290Y1035D01*
X1360Y1035D02*
X1362Y1035D01*
X1288Y1034D02*
X1290Y1034D01*
X1360Y1034D02*
X1362Y1034D01*
X1288Y1033D02*
X1290Y1033D01*
X1360Y1033D02*
X1362Y1033D01*
X1288Y1032D02*
X1290Y1032D01*
X1360Y1032D02*
X1362Y1032D01*
X1288Y1031D02*
X1290Y1031D01*
X1360Y1031D02*
X1362Y1031D01*
X1288Y1030D02*
X1290Y1030D01*
X1360Y1030D02*
X1362Y1030D01*
X1288Y1029D02*
X1290Y1029D01*
X1360Y1029D02*
X1362Y1029D01*
X1288Y1028D02*
X1290Y1028D01*
X1360Y1028D02*
X1362Y1028D01*
X1288Y1027D02*
X1290Y1027D01*
X1360Y1027D02*
X1362Y1027D01*
X1288Y1026D02*
X1290Y1026D01*
X1360Y1026D02*
X1362Y1026D01*
X1288Y1025D02*
X1290Y1025D01*
X1360Y1025D02*
X1362Y1025D01*
X1288Y1024D02*
X1290Y1024D01*
X1360Y1024D02*
X1362Y1024D01*
X1288Y1023D02*
X1290Y1023D01*
X1360Y1023D02*
X1362Y1023D01*
X1288Y1022D02*
X1290Y1022D01*
X1360Y1022D02*
X1362Y1022D01*
X1288Y1021D02*
X1290Y1021D01*
X1360Y1021D02*
X1362Y1021D01*
X1288Y1020D02*
X1290Y1020D01*
X1360Y1020D02*
X1362Y1020D01*
X1288Y1019D02*
X1290Y1019D01*
X1360Y1019D02*
X1362Y1019D01*
X1288Y1018D02*
X1290Y1018D01*
X1360Y1018D02*
X1362Y1018D01*
X1288Y1017D02*
X1291Y1017D01*
X1359Y1017D02*
X1362Y1017D01*
X1288Y1016D02*
X1291Y1016D01*
X1359Y1016D02*
X1362Y1016D01*
X1288Y1015D02*
X1291Y1015D01*
X1359Y1015D02*
X1362Y1015D01*
X1288Y1014D02*
X1291Y1014D01*
X1359Y1014D02*
X1362Y1014D01*
X1288Y1013D02*
X1291Y1013D01*
X1359Y1013D02*
X1362Y1013D01*
X1288Y1012D02*
X1291Y1012D01*
X1359Y1012D02*
X1362Y1012D01*
X1288Y1011D02*
X1291Y1011D01*
X1359Y1011D02*
X1362Y1011D01*
X1288Y1010D02*
X1291Y1010D01*
X1359Y1010D02*
X1362Y1010D01*
X1288Y1009D02*
X1291Y1009D01*
X1359Y1009D02*
X1362Y1009D01*
X1288Y1008D02*
X1291Y1008D01*
X1359Y1008D02*
X1362Y1008D01*
X1288Y1007D02*
X1291Y1007D01*
X1359Y1007D02*
X1362Y1007D01*
X1288Y1006D02*
X1291Y1006D01*
X1359Y1006D02*
X1362Y1006D01*
X1288Y1005D02*
X1291Y1005D01*
X1359Y1005D02*
X1362Y1005D01*
X1288Y1004D02*
X1291Y1004D01*
X1296Y1004D02*
X1354Y1004D01*
X1359Y1004D02*
X1362Y1004D01*
X1288Y1003D02*
X1291Y1003D01*
X1296Y1003D02*
X1354Y1003D01*
X1359Y1003D02*
X1362Y1003D01*
X1288Y1002D02*
X1291Y1002D01*
X1296Y1002D02*
X1354Y1002D01*
X1359Y1002D02*
X1362Y1002D01*
X1288Y1001D02*
X1290Y1001D01*
X1360Y1001D02*
X1362Y1001D01*
X1288Y1000D02*
X1290Y1000D01*
X1360Y1000D02*
X1362Y1000D01*
X1288Y999D02*
X1290Y999D01*
X1360Y999D02*
X1362Y999D01*
X1288Y998D02*
X1290Y998D01*
X1360Y998D02*
X1362Y998D01*
X1288Y997D02*
X1290Y997D01*
X1360Y997D02*
X1362Y997D01*
X1288Y996D02*
X1290Y996D01*
X1360Y996D02*
X1362Y996D01*
X1288Y995D02*
X1290Y995D01*
X1360Y995D02*
X1362Y995D01*
X1288Y994D02*
X1290Y994D01*
X1360Y994D02*
X1362Y994D01*
X1288Y993D02*
X1290Y993D01*
X1360Y993D02*
X1362Y993D01*
X1288Y992D02*
X1290Y992D01*
X1360Y992D02*
X1362Y992D01*
X1288Y991D02*
X1290Y991D01*
X1360Y991D02*
X1362Y991D01*
X1288Y990D02*
X1290Y990D01*
X1360Y990D02*
X1362Y990D01*
X1288Y989D02*
X1290Y989D01*
X1360Y989D02*
X1362Y989D01*
X1288Y988D02*
X1290Y988D01*
X1360Y988D02*
X1362Y988D01*
X1288Y987D02*
X1290Y987D01*
X1360Y987D02*
X1362Y987D01*
X1288Y986D02*
X1290Y986D01*
X1360Y986D02*
X1362Y986D01*
X1288Y985D02*
X1290Y985D01*
X1360Y985D02*
X1362Y985D01*
X1288Y984D02*
X1290Y984D01*
X1360Y984D02*
X1362Y984D01*
X1288Y983D02*
X1290Y983D01*
X1360Y983D02*
X1362Y983D01*
X1288Y982D02*
X1290Y982D01*
X1360Y982D02*
X1362Y982D01*
X1288Y981D02*
X1290Y981D01*
X1360Y981D02*
X1362Y981D01*
X1288Y980D02*
X1290Y980D01*
X1360Y980D02*
X1362Y980D01*
X1288Y979D02*
X1290Y979D01*
X1360Y979D02*
X1362Y979D01*
X1288Y978D02*
X1290Y978D01*
X1360Y978D02*
X1362Y978D01*
X1288Y977D02*
X1290Y977D01*
X1360Y977D02*
X1362Y977D01*
X1288Y976D02*
X1290Y976D01*
X1360Y976D02*
X1362Y976D01*
X1288Y975D02*
X1290Y975D01*
X1360Y975D02*
X1362Y975D01*
X1288Y974D02*
X1290Y974D01*
X1360Y974D02*
X1362Y974D01*
X1288Y973D02*
X1290Y973D01*
X1360Y973D02*
X1362Y973D01*
X1288Y972D02*
X1290Y972D01*
X1360Y972D02*
X1362Y972D01*
X1288Y971D02*
X1290Y971D01*
X1360Y971D02*
X1362Y971D01*
X1288Y970D02*
X1290Y970D01*
X1360Y970D02*
X1362Y970D01*
X1288Y969D02*
X1290Y969D01*
X1360Y969D02*
X1362Y969D01*
X1288Y968D02*
X1290Y968D01*
X1360Y968D02*
X1362Y968D01*
X1288Y967D02*
X1290Y967D01*
X1360Y967D02*
X1362Y967D01*
X1288Y966D02*
X1290Y966D01*
X1360Y966D02*
X1362Y966D01*
X1288Y965D02*
X1290Y965D01*
X1360Y965D02*
X1362Y965D01*
X1288Y964D02*
X1290Y964D01*
X1360Y964D02*
X1362Y964D01*
X1288Y963D02*
X1290Y963D01*
X1360Y963D02*
X1362Y963D01*
X1288Y962D02*
X1290Y962D01*
X1360Y962D02*
X1362Y962D01*
X1288Y961D02*
X1290Y961D01*
X1360Y961D02*
X1362Y961D01*
X1288Y960D02*
X1290Y960D01*
X1360Y960D02*
X1362Y960D01*
X1288Y959D02*
X1290Y959D01*
X1360Y959D02*
X1362Y959D01*
X1288Y958D02*
X1290Y958D01*
X1360Y958D02*
X1362Y958D01*
X1288Y957D02*
X1290Y957D01*
X1360Y957D02*
X1362Y957D01*
X1288Y956D02*
X1290Y956D01*
X1360Y956D02*
X1362Y956D01*
X1288Y955D02*
X1290Y955D01*
X1360Y955D02*
X1362Y955D01*
X1288Y954D02*
X1290Y954D01*
X1360Y954D02*
X1362Y954D01*
X1288Y953D02*
X1290Y953D01*
X1360Y953D02*
X1362Y953D01*
X1288Y952D02*
X1290Y952D01*
X1360Y952D02*
X1362Y952D01*
X1288Y951D02*
X1290Y951D01*
X1360Y951D02*
X1362Y951D01*
X1288Y950D02*
X1290Y950D01*
X1360Y950D02*
X1362Y950D01*
X1288Y949D02*
X1290Y949D01*
X1360Y949D02*
X1362Y949D01*
X1288Y948D02*
X1290Y948D01*
X1360Y948D02*
X1362Y948D01*
X1288Y947D02*
X1290Y947D01*
X1360Y947D02*
X1362Y947D01*
X1288Y946D02*
X1290Y946D01*
X1360Y946D02*
X1362Y946D01*
X1288Y945D02*
X1290Y945D01*
X1360Y945D02*
X1362Y945D01*
X1288Y944D02*
X1290Y944D01*
X1360Y944D02*
X1362Y944D01*
X1288Y943D02*
X1290Y943D01*
X1360Y943D02*
X1362Y943D01*
X1288Y942D02*
X1290Y942D01*
X1360Y942D02*
X1362Y942D01*
X1288Y941D02*
X1290Y941D01*
X1360Y941D02*
X1362Y941D01*
X1288Y940D02*
X1290Y940D01*
X1360Y940D02*
X1362Y940D01*
X1288Y939D02*
X1290Y939D01*
X1360Y939D02*
X1362Y939D01*
X1288Y938D02*
X1290Y938D01*
X1360Y938D02*
X1362Y938D01*
X1288Y937D02*
X1290Y937D01*
X1359Y937D02*
X1362Y937D01*
X1288Y936D02*
X1362Y936D01*
X1288Y935D02*
X1362Y935D01*
X1288Y845D02*
X1362Y845D01*
X1288Y844D02*
X1362Y844D01*
X1288Y843D02*
X1362Y843D01*
X1288Y842D02*
X1290Y842D01*
X1360Y842D02*
X1362Y842D01*
X1288Y841D02*
X1290Y841D01*
X1360Y841D02*
X1362Y841D01*
X1288Y840D02*
X1290Y840D01*
X1360Y840D02*
X1362Y840D01*
X1288Y839D02*
X1290Y839D01*
X1360Y839D02*
X1362Y839D01*
X1288Y838D02*
X1290Y838D01*
X1360Y838D02*
X1362Y838D01*
X1288Y837D02*
X1290Y837D01*
X1360Y837D02*
X1362Y837D01*
X1288Y836D02*
X1290Y836D01*
X1360Y836D02*
X1362Y836D01*
X1288Y835D02*
X1290Y835D01*
X1360Y835D02*
X1362Y835D01*
X1288Y834D02*
X1290Y834D01*
X1360Y834D02*
X1362Y834D01*
X1288Y833D02*
X1290Y833D01*
X1360Y833D02*
X1362Y833D01*
X1288Y832D02*
X1290Y832D01*
X1360Y832D02*
X1362Y832D01*
X1288Y831D02*
X1290Y831D01*
X1360Y831D02*
X1362Y831D01*
X1288Y830D02*
X1290Y830D01*
X1360Y830D02*
X1362Y830D01*
X1288Y829D02*
X1290Y829D01*
X1360Y829D02*
X1362Y829D01*
X1288Y828D02*
X1290Y828D01*
X1360Y828D02*
X1362Y828D01*
X1288Y827D02*
X1290Y827D01*
X1360Y827D02*
X1362Y827D01*
X1288Y826D02*
X1290Y826D01*
X1360Y826D02*
X1362Y826D01*
X1288Y825D02*
X1290Y825D01*
X1360Y825D02*
X1362Y825D01*
X1288Y824D02*
X1290Y824D01*
X1360Y824D02*
X1362Y824D01*
X1288Y823D02*
X1290Y823D01*
X1360Y823D02*
X1362Y823D01*
X1288Y822D02*
X1290Y822D01*
X1360Y822D02*
X1362Y822D01*
X1288Y821D02*
X1290Y821D01*
X1360Y821D02*
X1362Y821D01*
X1288Y820D02*
X1290Y820D01*
X1360Y820D02*
X1362Y820D01*
X1288Y819D02*
X1290Y819D01*
X1360Y819D02*
X1362Y819D01*
X1288Y818D02*
X1290Y818D01*
X1360Y818D02*
X1362Y818D01*
X1288Y817D02*
X1290Y817D01*
X1360Y817D02*
X1362Y817D01*
X1288Y816D02*
X1290Y816D01*
X1360Y816D02*
X1362Y816D01*
X1288Y815D02*
X1290Y815D01*
X1360Y815D02*
X1362Y815D01*
X1288Y814D02*
X1290Y814D01*
X1360Y814D02*
X1362Y814D01*
X1288Y813D02*
X1290Y813D01*
X1360Y813D02*
X1362Y813D01*
X1288Y812D02*
X1290Y812D01*
X1360Y812D02*
X1362Y812D01*
X1288Y811D02*
X1290Y811D01*
X1360Y811D02*
X1362Y811D01*
X1288Y810D02*
X1290Y810D01*
X1360Y810D02*
X1362Y810D01*
X1288Y809D02*
X1290Y809D01*
X1360Y809D02*
X1362Y809D01*
X1288Y808D02*
X1290Y808D01*
X1360Y808D02*
X1362Y808D01*
X1288Y807D02*
X1290Y807D01*
X1360Y807D02*
X1362Y807D01*
X1288Y806D02*
X1290Y806D01*
X1360Y806D02*
X1362Y806D01*
X1288Y805D02*
X1290Y805D01*
X1360Y805D02*
X1362Y805D01*
X1288Y804D02*
X1290Y804D01*
X1360Y804D02*
X1362Y804D01*
X1288Y803D02*
X1290Y803D01*
X1360Y803D02*
X1362Y803D01*
X1288Y802D02*
X1290Y802D01*
X1360Y802D02*
X1362Y802D01*
X1288Y801D02*
X1290Y801D01*
X1360Y801D02*
X1362Y801D01*
X1288Y800D02*
X1290Y800D01*
X1360Y800D02*
X1362Y800D01*
X1288Y799D02*
X1290Y799D01*
X1360Y799D02*
X1362Y799D01*
X1288Y798D02*
X1290Y798D01*
X1360Y798D02*
X1362Y798D01*
X1288Y797D02*
X1290Y797D01*
X1360Y797D02*
X1362Y797D01*
X1288Y796D02*
X1290Y796D01*
X1360Y796D02*
X1362Y796D01*
X1288Y795D02*
X1290Y795D01*
X1360Y795D02*
X1362Y795D01*
X1288Y794D02*
X1290Y794D01*
X1360Y794D02*
X1362Y794D01*
X1288Y793D02*
X1290Y793D01*
X1360Y793D02*
X1362Y793D01*
X1288Y792D02*
X1290Y792D01*
X1360Y792D02*
X1362Y792D01*
X1288Y791D02*
X1290Y791D01*
X1360Y791D02*
X1362Y791D01*
X1288Y790D02*
X1290Y790D01*
X1360Y790D02*
X1362Y790D01*
X1288Y789D02*
X1290Y789D01*
X1360Y789D02*
X1362Y789D01*
X1288Y788D02*
X1290Y788D01*
X1360Y788D02*
X1362Y788D01*
X1288Y787D02*
X1290Y787D01*
X1360Y787D02*
X1362Y787D01*
X1288Y786D02*
X1290Y786D01*
X1360Y786D02*
X1362Y786D01*
X1288Y785D02*
X1290Y785D01*
X1360Y785D02*
X1362Y785D01*
X1288Y784D02*
X1290Y784D01*
X1360Y784D02*
X1362Y784D01*
X1288Y783D02*
X1290Y783D01*
X1360Y783D02*
X1362Y783D01*
X1288Y782D02*
X1290Y782D01*
X1360Y782D02*
X1362Y782D01*
X1288Y781D02*
X1290Y781D01*
X1360Y781D02*
X1362Y781D01*
X1288Y780D02*
X1290Y780D01*
X1360Y780D02*
X1362Y780D01*
X1288Y779D02*
X1290Y779D01*
X1360Y779D02*
X1362Y779D01*
X1288Y778D02*
X1290Y778D01*
X1360Y778D02*
X1362Y778D01*
X1288Y777D02*
X1291Y777D01*
X1359Y777D02*
X1362Y777D01*
X1288Y776D02*
X1291Y776D01*
X1359Y776D02*
X1362Y776D01*
X1288Y775D02*
X1291Y775D01*
X1359Y775D02*
X1362Y775D01*
X1288Y774D02*
X1291Y774D01*
X1359Y774D02*
X1362Y774D01*
X1288Y773D02*
X1291Y773D01*
X1359Y773D02*
X1362Y773D01*
X1288Y772D02*
X1291Y772D01*
X1359Y772D02*
X1362Y772D01*
X1288Y771D02*
X1291Y771D01*
X1359Y771D02*
X1362Y771D01*
X1288Y770D02*
X1291Y770D01*
X1359Y770D02*
X1362Y770D01*
X1288Y769D02*
X1291Y769D01*
X1359Y769D02*
X1362Y769D01*
X1288Y768D02*
X1291Y768D01*
X1359Y768D02*
X1362Y768D01*
X1288Y767D02*
X1291Y767D01*
X1359Y767D02*
X1362Y767D01*
X1288Y766D02*
X1291Y766D01*
X1359Y766D02*
X1362Y766D01*
X1288Y765D02*
X1291Y765D01*
X1359Y765D02*
X1362Y765D01*
X1288Y764D02*
X1291Y764D01*
X1296Y764D02*
X1354Y764D01*
X1359Y764D02*
X1362Y764D01*
X1288Y763D02*
X1291Y763D01*
X1296Y763D02*
X1354Y763D01*
X1359Y763D02*
X1362Y763D01*
X1288Y762D02*
X1291Y762D01*
X1296Y762D02*
X1354Y762D01*
X1359Y762D02*
X1362Y762D01*
X1288Y761D02*
X1290Y761D01*
X1360Y761D02*
X1362Y761D01*
X1288Y760D02*
X1290Y760D01*
X1360Y760D02*
X1362Y760D01*
X1288Y759D02*
X1290Y759D01*
X1360Y759D02*
X1362Y759D01*
X1288Y758D02*
X1290Y758D01*
X1360Y758D02*
X1362Y758D01*
X1288Y757D02*
X1290Y757D01*
X1360Y757D02*
X1362Y757D01*
X1288Y756D02*
X1290Y756D01*
X1360Y756D02*
X1362Y756D01*
X1288Y755D02*
X1290Y755D01*
X1360Y755D02*
X1362Y755D01*
X1288Y754D02*
X1290Y754D01*
X1360Y754D02*
X1362Y754D01*
X1288Y753D02*
X1290Y753D01*
X1360Y753D02*
X1362Y753D01*
X1288Y752D02*
X1290Y752D01*
X1360Y752D02*
X1362Y752D01*
X1288Y751D02*
X1290Y751D01*
X1360Y751D02*
X1362Y751D01*
X1288Y750D02*
X1290Y750D01*
X1360Y750D02*
X1362Y750D01*
X1288Y749D02*
X1290Y749D01*
X1360Y749D02*
X1362Y749D01*
X1288Y748D02*
X1290Y748D01*
X1360Y748D02*
X1362Y748D01*
X1288Y747D02*
X1290Y747D01*
X1360Y747D02*
X1362Y747D01*
X1288Y746D02*
X1290Y746D01*
X1360Y746D02*
X1362Y746D01*
X1288Y745D02*
X1290Y745D01*
X1360Y745D02*
X1362Y745D01*
X1288Y744D02*
X1290Y744D01*
X1360Y744D02*
X1362Y744D01*
X1288Y743D02*
X1290Y743D01*
X1360Y743D02*
X1362Y743D01*
X1288Y742D02*
X1290Y742D01*
X1360Y742D02*
X1362Y742D01*
X1288Y741D02*
X1290Y741D01*
X1360Y741D02*
X1362Y741D01*
X1288Y740D02*
X1290Y740D01*
X1360Y740D02*
X1362Y740D01*
X1288Y739D02*
X1290Y739D01*
X1360Y739D02*
X1362Y739D01*
X1288Y738D02*
X1290Y738D01*
X1360Y738D02*
X1362Y738D01*
X1288Y737D02*
X1290Y737D01*
X1360Y737D02*
X1362Y737D01*
X1288Y736D02*
X1290Y736D01*
X1360Y736D02*
X1362Y736D01*
X1288Y735D02*
X1290Y735D01*
X1360Y735D02*
X1362Y735D01*
X1288Y734D02*
X1290Y734D01*
X1360Y734D02*
X1362Y734D01*
X1288Y733D02*
X1290Y733D01*
X1360Y733D02*
X1362Y733D01*
X1288Y732D02*
X1290Y732D01*
X1360Y732D02*
X1362Y732D01*
X1288Y731D02*
X1290Y731D01*
X1360Y731D02*
X1362Y731D01*
X1288Y730D02*
X1290Y730D01*
X1360Y730D02*
X1362Y730D01*
X1288Y729D02*
X1290Y729D01*
X1360Y729D02*
X1362Y729D01*
X1288Y728D02*
X1290Y728D01*
X1360Y728D02*
X1362Y728D01*
X1288Y727D02*
X1290Y727D01*
X1360Y727D02*
X1362Y727D01*
X1288Y726D02*
X1290Y726D01*
X1360Y726D02*
X1362Y726D01*
X1288Y725D02*
X1290Y725D01*
X1360Y725D02*
X1362Y725D01*
X1288Y724D02*
X1290Y724D01*
X1360Y724D02*
X1362Y724D01*
X1288Y723D02*
X1290Y723D01*
X1360Y723D02*
X1362Y723D01*
X1288Y722D02*
X1290Y722D01*
X1360Y722D02*
X1362Y722D01*
X1288Y721D02*
X1290Y721D01*
X1360Y721D02*
X1362Y721D01*
X1288Y720D02*
X1290Y720D01*
X1360Y720D02*
X1362Y720D01*
X1288Y719D02*
X1290Y719D01*
X1360Y719D02*
X1362Y719D01*
X1288Y718D02*
X1290Y718D01*
X1360Y718D02*
X1362Y718D01*
X1288Y717D02*
X1290Y717D01*
X1360Y717D02*
X1362Y717D01*
X1288Y716D02*
X1290Y716D01*
X1360Y716D02*
X1362Y716D01*
X1288Y715D02*
X1290Y715D01*
X1360Y715D02*
X1362Y715D01*
X1288Y714D02*
X1290Y714D01*
X1360Y714D02*
X1362Y714D01*
X1288Y713D02*
X1290Y713D01*
X1360Y713D02*
X1362Y713D01*
X1288Y712D02*
X1290Y712D01*
X1360Y712D02*
X1362Y712D01*
X1288Y711D02*
X1290Y711D01*
X1360Y711D02*
X1362Y711D01*
X1288Y710D02*
X1290Y710D01*
X1360Y710D02*
X1362Y710D01*
X1288Y709D02*
X1290Y709D01*
X1360Y709D02*
X1362Y709D01*
X1288Y708D02*
X1290Y708D01*
X1360Y708D02*
X1362Y708D01*
X1288Y707D02*
X1290Y707D01*
X1360Y707D02*
X1362Y707D01*
X1288Y706D02*
X1290Y706D01*
X1360Y706D02*
X1362Y706D01*
X1288Y705D02*
X1290Y705D01*
X1360Y705D02*
X1362Y705D01*
X1288Y704D02*
X1290Y704D01*
X1360Y704D02*
X1362Y704D01*
X1288Y703D02*
X1290Y703D01*
X1360Y703D02*
X1362Y703D01*
X1288Y702D02*
X1290Y702D01*
X1360Y702D02*
X1362Y702D01*
X1288Y701D02*
X1290Y701D01*
X1360Y701D02*
X1362Y701D01*
X1288Y700D02*
X1290Y700D01*
X1360Y700D02*
X1362Y700D01*
X1288Y699D02*
X1290Y699D01*
X1360Y699D02*
X1362Y699D01*
X1288Y698D02*
X1290Y698D01*
X1360Y698D02*
X1362Y698D01*
X1288Y697D02*
X1290Y697D01*
X1360Y697D02*
X1362Y697D01*
X1288Y696D02*
X1362Y696D01*
X1288Y695D02*
X1362Y695D01*
X1288Y694D02*
X1361Y694D01*
X1322Y634D02*
X1329Y634D01*
X1319Y633D02*
X1330Y633D01*
X1317Y632D02*
X1331Y632D01*
X1315Y631D02*
X1331Y631D01*
X1312Y630D02*
X1331Y630D01*
X1310Y629D02*
X1331Y629D01*
X1308Y628D02*
X1330Y628D01*
X1306Y627D02*
X1322Y627D01*
X1303Y626D02*
X1320Y626D01*
X1301Y625D02*
X1317Y625D01*
X1299Y624D02*
X1315Y624D01*
X1296Y623D02*
X1313Y623D01*
X1294Y622D02*
X1310Y622D01*
X1294Y621D02*
X1308Y621D01*
X1293Y620D02*
X1306Y620D01*
X1293Y619D02*
X1304Y619D01*
X1293Y618D02*
X1301Y618D01*
X1293Y617D02*
X1300Y617D01*
X1293Y616D02*
X1302Y616D01*
X1293Y615D02*
X1304Y615D01*
X1293Y614D02*
X1307Y614D01*
X1294Y613D02*
X1309Y613D01*
X1295Y612D02*
X1311Y612D01*
X1297Y611D02*
X1313Y611D01*
X1299Y610D02*
X1316Y610D01*
X1302Y609D02*
X1318Y609D01*
X1304Y608D02*
X1320Y608D01*
X1306Y607D02*
X1323Y607D01*
X1309Y606D02*
X1330Y606D01*
X1311Y605D02*
X1331Y605D01*
X1313Y604D02*
X1331Y604D01*
X1315Y603D02*
X1331Y603D01*
X1318Y602D02*
X1331Y602D01*
X1320Y601D02*
X1330Y601D01*
X1323Y600D02*
X1328Y600D01*
X1311Y582D02*
X1345Y582D01*
X1311Y581D02*
X1345Y581D01*
X1311Y580D02*
X1346Y580D01*
X1311Y579D02*
X1346Y579D01*
X1311Y578D02*
X1346Y578D01*
X1311Y577D02*
X1345Y577D01*
X1311Y576D02*
X1343Y576D01*
X1311Y575D02*
X1317Y575D01*
X1311Y574D02*
X1317Y574D01*
X1311Y573D02*
X1317Y573D01*
X1311Y572D02*
X1317Y572D01*
X1311Y571D02*
X1317Y571D01*
X1311Y570D02*
X1317Y570D01*
X1311Y569D02*
X1317Y569D01*
X1311Y568D02*
X1317Y568D01*
X1311Y567D02*
X1317Y567D01*
X1311Y566D02*
X1317Y566D01*
X1311Y565D02*
X1317Y565D01*
X1311Y564D02*
X1317Y564D01*
X1311Y563D02*
X1317Y563D01*
X1295Y562D02*
X1338Y562D01*
X1294Y561D02*
X1339Y561D01*
X1293Y560D02*
X1340Y560D01*
X1293Y559D02*
X1340Y559D01*
X1293Y558D02*
X1340Y558D01*
X1294Y557D02*
X1340Y557D01*
X1295Y556D02*
X1339Y556D01*
X1311Y555D02*
X1317Y555D01*
X1311Y554D02*
X1316Y554D01*
X1312Y553D02*
X1316Y553D01*
X1313Y552D02*
X1314Y552D01*
X1304Y524D02*
X1312Y524D01*
X1303Y523D02*
X1313Y523D01*
X1302Y522D02*
X1314Y522D01*
X1302Y521D02*
X1314Y521D01*
X1302Y520D02*
X1314Y520D01*
X1302Y519D02*
X1314Y519D01*
X1302Y518D02*
X1314Y518D01*
X1302Y517D02*
X1314Y517D01*
X1302Y516D02*
X1314Y516D01*
X1302Y515D02*
X1314Y515D01*
X1302Y514D02*
X1314Y514D01*
X1302Y513D02*
X1314Y513D01*
X1303Y512D02*
X1313Y512D01*
X1304Y511D02*
X1312Y511D01*
X1294Y484D02*
X1298Y484D01*
X1341Y484D02*
X1345Y484D01*
X1294Y483D02*
X1299Y483D01*
X1340Y483D02*
X1346Y483D01*
X1293Y482D02*
X1299Y482D01*
X1340Y482D02*
X1346Y482D01*
X1293Y481D02*
X1299Y481D01*
X1340Y481D02*
X1346Y481D01*
X1293Y480D02*
X1299Y480D01*
X1340Y480D02*
X1346Y480D01*
X1293Y479D02*
X1299Y479D01*
X1340Y479D02*
X1346Y479D01*
X1293Y478D02*
X1299Y478D01*
X1319Y478D02*
X1320Y478D01*
X1340Y478D02*
X1346Y478D01*
X1293Y477D02*
X1299Y477D01*
X1318Y477D02*
X1322Y477D01*
X1340Y477D02*
X1346Y477D01*
X1293Y476D02*
X1299Y476D01*
X1317Y476D02*
X1322Y476D01*
X1340Y476D02*
X1346Y476D01*
X1293Y475D02*
X1299Y475D01*
X1317Y475D02*
X1323Y475D01*
X1340Y475D02*
X1346Y475D01*
X1293Y474D02*
X1299Y474D01*
X1317Y474D02*
X1323Y474D01*
X1340Y474D02*
X1346Y474D01*
X1293Y473D02*
X1299Y473D01*
X1317Y473D02*
X1323Y473D01*
X1340Y473D02*
X1346Y473D01*
X1293Y472D02*
X1299Y472D01*
X1317Y472D02*
X1323Y472D01*
X1340Y472D02*
X1346Y472D01*
X1293Y471D02*
X1299Y471D01*
X1317Y471D02*
X1323Y471D01*
X1340Y471D02*
X1346Y471D01*
X1293Y470D02*
X1299Y470D01*
X1317Y470D02*
X1323Y470D01*
X1340Y470D02*
X1346Y470D01*
X1293Y469D02*
X1299Y469D01*
X1317Y469D02*
X1323Y469D01*
X1340Y469D02*
X1346Y469D01*
X1293Y468D02*
X1299Y468D01*
X1317Y468D02*
X1323Y468D01*
X1340Y468D02*
X1346Y468D01*
X1293Y467D02*
X1299Y467D01*
X1317Y467D02*
X1323Y467D01*
X1340Y467D02*
X1346Y467D01*
X1293Y466D02*
X1299Y466D01*
X1317Y466D02*
X1323Y466D01*
X1340Y466D02*
X1346Y466D01*
X1293Y465D02*
X1299Y465D01*
X1317Y465D02*
X1323Y465D01*
X1340Y465D02*
X1346Y465D01*
X1293Y464D02*
X1299Y464D01*
X1317Y464D02*
X1323Y464D01*
X1340Y464D02*
X1346Y464D01*
X1293Y463D02*
X1299Y463D01*
X1317Y463D02*
X1323Y463D01*
X1340Y463D02*
X1346Y463D01*
X1293Y462D02*
X1299Y462D01*
X1317Y462D02*
X1323Y462D01*
X1340Y462D02*
X1346Y462D01*
X1293Y461D02*
X1299Y461D01*
X1317Y461D02*
X1323Y461D01*
X1340Y461D02*
X1346Y461D01*
X1293Y460D02*
X1299Y460D01*
X1316Y460D02*
X1323Y460D01*
X1340Y460D02*
X1346Y460D01*
X1293Y459D02*
X1299Y459D01*
X1316Y459D02*
X1323Y459D01*
X1340Y459D02*
X1346Y459D01*
X1293Y458D02*
X1299Y458D01*
X1315Y458D02*
X1324Y458D01*
X1340Y458D02*
X1346Y458D01*
X1293Y457D02*
X1346Y457D01*
X1293Y456D02*
X1346Y456D01*
X1294Y455D02*
X1345Y455D01*
X1294Y454D02*
X1345Y454D01*
X1295Y453D02*
X1344Y453D01*
X1296Y452D02*
X1317Y452D01*
X1322Y452D02*
X1343Y452D01*
X1298Y451D02*
X1315Y451D01*
X1324Y451D02*
X1341Y451D01*
X131Y349D02*
X373Y349D01*
X131Y348D02*
X374Y348D01*
X131Y347D02*
X374Y347D01*
X131Y346D02*
X374Y346D01*
X131Y345D02*
X134Y345D01*
X371Y345D02*
X374Y345D01*
X131Y344D02*
X134Y344D01*
X371Y344D02*
X374Y344D01*
X131Y343D02*
X134Y343D01*
X371Y343D02*
X374Y343D01*
X131Y342D02*
X134Y342D01*
X371Y342D02*
X374Y342D01*
X131Y341D02*
X134Y341D01*
X371Y341D02*
X374Y341D01*
X131Y340D02*
X134Y340D01*
X371Y340D02*
X374Y340D01*
X131Y339D02*
X134Y339D01*
X371Y339D02*
X374Y339D01*
X131Y338D02*
X134Y338D01*
X371Y338D02*
X374Y338D01*
X131Y337D02*
X134Y337D01*
X371Y337D02*
X374Y337D01*
X131Y336D02*
X134Y336D01*
X371Y336D02*
X374Y336D01*
X131Y335D02*
X133Y335D01*
X371Y335D02*
X374Y335D01*
X132Y334D02*
X133Y334D01*
X372Y334D02*
X373Y334D01*
X243Y274D02*
X261Y274D01*
X727Y274D02*
X746Y274D01*
X1211Y274D02*
X1230Y274D01*
X238Y273D02*
X266Y273D01*
X722Y273D02*
X750Y273D01*
X1206Y273D02*
X1234Y273D01*
X235Y272D02*
X270Y272D01*
X719Y272D02*
X754Y272D01*
X1203Y272D02*
X1238Y272D01*
X232Y271D02*
X273Y271D01*
X716Y271D02*
X757Y271D01*
X1200Y271D02*
X1241Y271D01*
X229Y270D02*
X241Y270D01*
X263Y270D02*
X275Y270D01*
X713Y270D02*
X726Y270D01*
X747Y270D02*
X759Y270D01*
X1198Y270D02*
X1210Y270D01*
X1231Y270D02*
X1243Y270D01*
X227Y269D02*
X237Y269D01*
X267Y269D02*
X277Y269D01*
X711Y269D02*
X721Y269D01*
X751Y269D02*
X761Y269D01*
X1195Y269D02*
X1205Y269D01*
X1235Y269D02*
X1246Y269D01*
X225Y268D02*
X234Y268D01*
X270Y268D02*
X279Y268D01*
X709Y268D02*
X718Y268D01*
X755Y268D02*
X763Y268D01*
X1193Y268D02*
X1202Y268D01*
X1239Y268D02*
X1248Y268D01*
X223Y267D02*
X231Y267D01*
X273Y267D02*
X281Y267D01*
X707Y267D02*
X715Y267D01*
X757Y267D02*
X765Y267D01*
X1192Y267D02*
X1200Y267D01*
X1241Y267D02*
X1249Y267D01*
X222Y266D02*
X229Y266D01*
X275Y266D02*
X283Y266D01*
X706Y266D02*
X713Y266D01*
X760Y266D02*
X767Y266D01*
X1190Y266D02*
X1197Y266D01*
X1244Y266D02*
X1251Y266D01*
X220Y265D02*
X227Y265D01*
X278Y265D02*
X284Y265D01*
X704Y265D02*
X711Y265D01*
X762Y265D02*
X768Y265D01*
X1188Y265D02*
X1195Y265D01*
X1246Y265D02*
X1253Y265D01*
X219Y264D02*
X225Y264D01*
X279Y264D02*
X286Y264D01*
X703Y264D02*
X709Y264D01*
X764Y264D02*
X770Y264D01*
X1187Y264D02*
X1193Y264D01*
X1248Y264D02*
X1254Y264D01*
X217Y263D02*
X223Y263D01*
X281Y263D02*
X287Y263D01*
X701Y263D02*
X707Y263D01*
X765Y263D02*
X771Y263D01*
X1186Y263D02*
X1192Y263D01*
X1249Y263D02*
X1255Y263D01*
X216Y262D02*
X222Y262D01*
X283Y262D02*
X288Y262D01*
X700Y262D02*
X706Y262D01*
X767Y262D02*
X773Y262D01*
X1184Y262D02*
X1190Y262D01*
X1251Y262D02*
X1257Y262D01*
X215Y261D02*
X220Y261D01*
X284Y261D02*
X290Y261D01*
X699Y261D02*
X704Y261D01*
X768Y261D02*
X774Y261D01*
X1183Y261D02*
X1188Y261D01*
X1253Y261D02*
X1258Y261D01*
X214Y260D02*
X219Y260D01*
X286Y260D02*
X291Y260D01*
X698Y260D02*
X703Y260D01*
X770Y260D02*
X775Y260D01*
X1182Y260D02*
X1187Y260D01*
X1254Y260D02*
X1259Y260D01*
X212Y259D02*
X217Y259D01*
X287Y259D02*
X292Y259D01*
X697Y259D02*
X702Y259D01*
X771Y259D02*
X776Y259D01*
X1181Y259D02*
X1186Y259D01*
X1255Y259D02*
X1260Y259D01*
X211Y258D02*
X216Y258D01*
X288Y258D02*
X293Y258D01*
X696Y258D02*
X700Y258D01*
X772Y258D02*
X777Y258D01*
X1180Y258D02*
X1184Y258D01*
X1256Y258D02*
X1261Y258D01*
X210Y257D02*
X215Y257D01*
X289Y257D02*
X294Y257D01*
X695Y257D02*
X699Y257D01*
X773Y257D02*
X778Y257D01*
X1179Y257D02*
X1183Y257D01*
X1258Y257D02*
X1262Y257D01*
X210Y256D02*
X214Y256D01*
X290Y256D02*
X295Y256D01*
X694Y256D02*
X698Y256D01*
X775Y256D02*
X779Y256D01*
X1178Y256D02*
X1182Y256D01*
X1259Y256D02*
X1263Y256D01*
X209Y255D02*
X213Y255D01*
X291Y255D02*
X296Y255D01*
X693Y255D02*
X697Y255D01*
X776Y255D02*
X780Y255D01*
X1177Y255D02*
X1181Y255D01*
X1260Y255D02*
X1264Y255D01*
X208Y254D02*
X212Y254D01*
X292Y254D02*
X297Y254D01*
X692Y254D02*
X696Y254D01*
X777Y254D02*
X781Y254D01*
X1176Y254D02*
X1180Y254D01*
X1261Y254D02*
X1265Y254D01*
X207Y253D02*
X211Y253D01*
X293Y253D02*
X297Y253D01*
X691Y253D02*
X695Y253D01*
X778Y253D02*
X782Y253D01*
X1175Y253D02*
X1179Y253D01*
X1262Y253D02*
X1266Y253D01*
X206Y252D02*
X210Y252D01*
X294Y252D02*
X298Y252D01*
X690Y252D02*
X694Y252D01*
X778Y252D02*
X782Y252D01*
X1174Y252D02*
X1178Y252D01*
X1263Y252D02*
X1267Y252D01*
X205Y251D02*
X209Y251D01*
X295Y251D02*
X299Y251D01*
X690Y251D02*
X693Y251D01*
X779Y251D02*
X783Y251D01*
X1174Y251D02*
X1177Y251D01*
X1263Y251D02*
X1267Y251D01*
X205Y250D02*
X208Y250D01*
X296Y250D02*
X300Y250D01*
X689Y250D02*
X693Y250D01*
X780Y250D02*
X784Y250D01*
X1173Y250D02*
X1177Y250D01*
X1264Y250D02*
X1268Y250D01*
X204Y249D02*
X208Y249D01*
X297Y249D02*
X300Y249D01*
X688Y249D02*
X692Y249D01*
X781Y249D02*
X785Y249D01*
X1172Y249D02*
X1176Y249D01*
X1265Y249D02*
X1269Y249D01*
X203Y248D02*
X207Y248D01*
X298Y248D02*
X301Y248D01*
X687Y248D02*
X691Y248D01*
X782Y248D02*
X785Y248D01*
X1172Y248D02*
X1175Y248D01*
X1266Y248D02*
X1269Y248D01*
X203Y247D02*
X206Y247D01*
X298Y247D02*
X302Y247D01*
X687Y247D02*
X690Y247D01*
X782Y247D02*
X786Y247D01*
X1171Y247D02*
X1174Y247D01*
X1266Y247D02*
X1270Y247D01*
X202Y246D02*
X206Y246D01*
X299Y246D02*
X302Y246D01*
X686Y246D02*
X690Y246D01*
X783Y246D02*
X786Y246D01*
X1170Y246D02*
X1174Y246D01*
X1267Y246D02*
X1271Y246D01*
X201Y245D02*
X205Y245D01*
X300Y245D02*
X303Y245D01*
X686Y245D02*
X689Y245D01*
X784Y245D02*
X787Y245D01*
X1170Y245D02*
X1173Y245D01*
X1268Y245D02*
X1271Y245D01*
X201Y244D02*
X204Y244D01*
X300Y244D02*
X304Y244D01*
X685Y244D02*
X688Y244D01*
X784Y244D02*
X788Y244D01*
X1169Y244D02*
X1173Y244D01*
X1268Y244D02*
X1272Y244D01*
X200Y243D02*
X204Y243D01*
X301Y243D02*
X304Y243D01*
X684Y243D02*
X688Y243D01*
X785Y243D02*
X788Y243D01*
X1169Y243D02*
X1172Y243D01*
X1269Y243D02*
X1272Y243D01*
X200Y242D02*
X203Y242D01*
X301Y242D02*
X305Y242D01*
X684Y242D02*
X687Y242D01*
X785Y242D02*
X789Y242D01*
X1168Y242D02*
X1171Y242D01*
X1270Y242D02*
X1273Y242D01*
X199Y241D02*
X203Y241D01*
X302Y241D02*
X305Y241D01*
X684Y241D02*
X687Y241D01*
X786Y241D02*
X789Y241D01*
X1168Y241D02*
X1171Y241D01*
X1270Y241D02*
X1273Y241D01*
X199Y240D02*
X202Y240D01*
X302Y240D02*
X305Y240D01*
X683Y240D02*
X686Y240D01*
X786Y240D02*
X790Y240D01*
X1167Y240D02*
X1170Y240D01*
X1271Y240D02*
X1274Y240D01*
X198Y239D02*
X202Y239D01*
X303Y239D02*
X306Y239D01*
X683Y239D02*
X686Y239D01*
X787Y239D02*
X790Y239D01*
X1167Y239D02*
X1170Y239D01*
X1271Y239D02*
X1274Y239D01*
X198Y238D02*
X201Y238D01*
X303Y238D02*
X306Y238D01*
X682Y238D02*
X685Y238D01*
X787Y238D02*
X790Y238D01*
X1166Y238D02*
X1169Y238D01*
X1271Y238D02*
X1275Y238D01*
X198Y237D02*
X201Y237D01*
X304Y237D02*
X307Y237D01*
X682Y237D02*
X685Y237D01*
X788Y237D02*
X791Y237D01*
X1166Y237D02*
X1169Y237D01*
X1272Y237D02*
X1275Y237D01*
X197Y236D02*
X200Y236D01*
X304Y236D02*
X307Y236D01*
X681Y236D02*
X685Y236D01*
X788Y236D02*
X791Y236D01*
X1166Y236D02*
X1169Y236D01*
X1272Y236D02*
X1275Y236D01*
X132Y235D02*
X133Y235D01*
X197Y235D02*
X200Y235D01*
X304Y235D02*
X307Y235D01*
X372Y235D02*
X373Y235D01*
X681Y235D02*
X684Y235D01*
X789Y235D02*
X792Y235D01*
X1165Y235D02*
X1168Y235D01*
X1273Y235D02*
X1276Y235D01*
X131Y234D02*
X134Y234D01*
X197Y234D02*
X200Y234D01*
X305Y234D02*
X308Y234D01*
X371Y234D02*
X374Y234D01*
X681Y234D02*
X684Y234D01*
X789Y234D02*
X792Y234D01*
X1165Y234D02*
X1168Y234D01*
X1273Y234D02*
X1276Y234D01*
X131Y233D02*
X134Y233D01*
X196Y233D02*
X199Y233D01*
X305Y233D02*
X308Y233D01*
X371Y233D02*
X374Y233D01*
X680Y233D02*
X683Y233D01*
X789Y233D02*
X792Y233D01*
X1165Y233D02*
X1168Y233D01*
X1273Y233D02*
X1276Y233D01*
X131Y232D02*
X134Y232D01*
X196Y232D02*
X199Y232D01*
X305Y232D02*
X308Y232D01*
X371Y232D02*
X374Y232D01*
X680Y232D02*
X683Y232D01*
X790Y232D02*
X793Y232D01*
X1164Y232D02*
X1167Y232D01*
X1274Y232D02*
X1277Y232D01*
X131Y231D02*
X134Y231D01*
X196Y231D02*
X199Y231D01*
X306Y231D02*
X309Y231D01*
X371Y231D02*
X374Y231D01*
X680Y231D02*
X683Y231D01*
X790Y231D02*
X793Y231D01*
X1164Y231D02*
X1167Y231D01*
X1274Y231D02*
X1277Y231D01*
X131Y230D02*
X134Y230D01*
X195Y230D02*
X198Y230D01*
X306Y230D02*
X309Y230D01*
X371Y230D02*
X374Y230D01*
X680Y230D02*
X683Y230D01*
X790Y230D02*
X793Y230D01*
X1164Y230D02*
X1167Y230D01*
X1274Y230D02*
X1277Y230D01*
X131Y229D02*
X134Y229D01*
X195Y229D02*
X198Y229D01*
X306Y229D02*
X309Y229D01*
X371Y229D02*
X374Y229D01*
X679Y229D02*
X682Y229D01*
X790Y229D02*
X793Y229D01*
X1163Y229D02*
X1166Y229D01*
X1274Y229D02*
X1277Y229D01*
X131Y228D02*
X134Y228D01*
X195Y228D02*
X198Y228D01*
X306Y228D02*
X309Y228D01*
X371Y228D02*
X374Y228D01*
X679Y228D02*
X682Y228D01*
X791Y228D02*
X794Y228D01*
X1163Y228D02*
X1166Y228D01*
X1275Y228D02*
X1278Y228D01*
X131Y227D02*
X134Y227D01*
X195Y227D02*
X198Y227D01*
X307Y227D02*
X310Y227D01*
X371Y227D02*
X374Y227D01*
X679Y227D02*
X682Y227D01*
X791Y227D02*
X794Y227D01*
X1163Y227D02*
X1166Y227D01*
X1275Y227D02*
X1278Y227D01*
X131Y226D02*
X134Y226D01*
X195Y226D02*
X198Y226D01*
X307Y226D02*
X310Y226D01*
X371Y226D02*
X374Y226D01*
X679Y226D02*
X682Y226D01*
X791Y226D02*
X794Y226D01*
X1163Y226D02*
X1166Y226D01*
X1275Y226D02*
X1278Y226D01*
X131Y225D02*
X134Y225D01*
X194Y225D02*
X197Y225D01*
X307Y225D02*
X310Y225D01*
X371Y225D02*
X374Y225D01*
X679Y225D02*
X681Y225D01*
X791Y225D02*
X794Y225D01*
X1163Y225D02*
X1166Y225D01*
X1275Y225D02*
X1278Y225D01*
X131Y224D02*
X134Y224D01*
X194Y224D02*
X197Y224D01*
X307Y224D02*
X310Y224D01*
X371Y224D02*
X374Y224D01*
X678Y224D02*
X681Y224D01*
X791Y224D02*
X794Y224D01*
X1163Y224D02*
X1165Y224D01*
X1275Y224D02*
X1278Y224D01*
X131Y223D02*
X134Y223D01*
X194Y223D02*
X197Y223D01*
X307Y223D02*
X310Y223D01*
X371Y223D02*
X374Y223D01*
X678Y223D02*
X681Y223D01*
X791Y223D02*
X794Y223D01*
X1162Y223D02*
X1165Y223D01*
X1276Y223D02*
X1279Y223D01*
X131Y222D02*
X134Y222D01*
X194Y222D02*
X197Y222D01*
X307Y222D02*
X310Y222D01*
X371Y222D02*
X374Y222D01*
X678Y222D02*
X681Y222D01*
X792Y222D02*
X795Y222D01*
X1162Y222D02*
X1165Y222D01*
X1276Y222D02*
X1279Y222D01*
X131Y221D02*
X134Y221D01*
X194Y221D02*
X197Y221D01*
X308Y221D02*
X311Y221D01*
X371Y221D02*
X374Y221D01*
X678Y221D02*
X681Y221D01*
X792Y221D02*
X795Y221D01*
X1162Y221D02*
X1165Y221D01*
X1276Y221D02*
X1279Y221D01*
X131Y220D02*
X134Y220D01*
X194Y220D02*
X197Y220D01*
X308Y220D02*
X311Y220D01*
X371Y220D02*
X374Y220D01*
X678Y220D02*
X681Y220D01*
X792Y220D02*
X795Y220D01*
X1162Y220D02*
X1165Y220D01*
X1276Y220D02*
X1279Y220D01*
X131Y219D02*
X134Y219D01*
X194Y219D02*
X197Y219D01*
X308Y219D02*
X311Y219D01*
X371Y219D02*
X374Y219D01*
X678Y219D02*
X681Y219D01*
X792Y219D02*
X795Y219D01*
X1162Y219D02*
X1165Y219D01*
X1276Y219D02*
X1279Y219D01*
X131Y218D02*
X134Y218D01*
X194Y218D02*
X197Y218D01*
X308Y218D02*
X311Y218D01*
X371Y218D02*
X374Y218D01*
X678Y218D02*
X681Y218D01*
X792Y218D02*
X795Y218D01*
X1162Y218D02*
X1165Y218D01*
X1276Y218D02*
X1279Y218D01*
X131Y217D02*
X134Y217D01*
X194Y217D02*
X197Y217D01*
X308Y217D02*
X311Y217D01*
X371Y217D02*
X374Y217D01*
X678Y217D02*
X681Y217D01*
X792Y217D02*
X795Y217D01*
X1162Y217D02*
X1165Y217D01*
X1276Y217D02*
X1279Y217D01*
X131Y216D02*
X134Y216D01*
X194Y216D02*
X197Y216D01*
X308Y216D02*
X311Y216D01*
X371Y216D02*
X374Y216D01*
X678Y216D02*
X681Y216D01*
X792Y216D02*
X795Y216D01*
X1162Y216D02*
X1165Y216D01*
X1276Y216D02*
X1279Y216D01*
X131Y215D02*
X134Y215D01*
X194Y215D02*
X197Y215D01*
X308Y215D02*
X311Y215D01*
X371Y215D02*
X374Y215D01*
X678Y215D02*
X681Y215D01*
X792Y215D02*
X795Y215D01*
X1162Y215D02*
X1165Y215D01*
X1276Y215D02*
X1279Y215D01*
X131Y214D02*
X134Y214D01*
X194Y214D02*
X197Y214D01*
X308Y214D02*
X311Y214D01*
X371Y214D02*
X374Y214D01*
X678Y214D02*
X681Y214D01*
X792Y214D02*
X795Y214D01*
X1162Y214D02*
X1165Y214D01*
X1276Y214D02*
X1279Y214D01*
X131Y213D02*
X134Y213D01*
X194Y213D02*
X197Y213D01*
X308Y213D02*
X311Y213D01*
X371Y213D02*
X374Y213D01*
X678Y213D02*
X681Y213D01*
X792Y213D02*
X795Y213D01*
X1162Y213D02*
X1165Y213D01*
X1276Y213D02*
X1279Y213D01*
X131Y212D02*
X134Y212D01*
X194Y212D02*
X197Y212D01*
X308Y212D02*
X311Y212D01*
X371Y212D02*
X374Y212D01*
X678Y212D02*
X681Y212D01*
X792Y212D02*
X795Y212D01*
X1162Y212D02*
X1165Y212D01*
X1276Y212D02*
X1279Y212D01*
X131Y211D02*
X134Y211D01*
X194Y211D02*
X197Y211D01*
X308Y211D02*
X311Y211D01*
X371Y211D02*
X374Y211D01*
X678Y211D02*
X681Y211D01*
X792Y211D02*
X795Y211D01*
X1162Y211D02*
X1165Y211D01*
X1276Y211D02*
X1279Y211D01*
X131Y210D02*
X134Y210D01*
X194Y210D02*
X197Y210D01*
X308Y210D02*
X310Y210D01*
X371Y210D02*
X374Y210D01*
X678Y210D02*
X681Y210D01*
X792Y210D02*
X795Y210D01*
X1162Y210D02*
X1165Y210D01*
X1276Y210D02*
X1279Y210D01*
X131Y209D02*
X134Y209D01*
X194Y209D02*
X197Y209D01*
X307Y209D02*
X310Y209D01*
X371Y209D02*
X374Y209D01*
X678Y209D02*
X681Y209D01*
X792Y209D02*
X794Y209D01*
X1162Y209D02*
X1165Y209D01*
X1276Y209D02*
X1279Y209D01*
X131Y208D02*
X134Y208D01*
X194Y208D02*
X197Y208D01*
X307Y208D02*
X310Y208D01*
X371Y208D02*
X374Y208D01*
X678Y208D02*
X681Y208D01*
X791Y208D02*
X794Y208D01*
X1162Y208D02*
X1165Y208D01*
X1276Y208D02*
X1279Y208D01*
X131Y207D02*
X134Y207D01*
X194Y207D02*
X197Y207D01*
X307Y207D02*
X310Y207D01*
X371Y207D02*
X374Y207D01*
X678Y207D02*
X681Y207D01*
X791Y207D02*
X794Y207D01*
X1163Y207D02*
X1166Y207D01*
X1275Y207D02*
X1278Y207D01*
X131Y206D02*
X134Y206D01*
X194Y206D02*
X197Y206D01*
X307Y206D02*
X310Y206D01*
X371Y206D02*
X374Y206D01*
X679Y206D02*
X682Y206D01*
X791Y206D02*
X794Y206D01*
X1163Y206D02*
X1166Y206D01*
X1275Y206D02*
X1278Y206D01*
X131Y205D02*
X134Y205D01*
X195Y205D02*
X198Y205D01*
X307Y205D02*
X310Y205D01*
X371Y205D02*
X374Y205D01*
X679Y205D02*
X682Y205D01*
X791Y205D02*
X794Y205D01*
X1163Y205D02*
X1166Y205D01*
X1275Y205D02*
X1278Y205D01*
X131Y204D02*
X134Y204D01*
X195Y204D02*
X198Y204D01*
X307Y204D02*
X310Y204D01*
X371Y204D02*
X374Y204D01*
X679Y204D02*
X682Y204D01*
X791Y204D02*
X794Y204D01*
X1163Y204D02*
X1166Y204D01*
X1275Y204D02*
X1278Y204D01*
X131Y203D02*
X134Y203D01*
X195Y203D02*
X198Y203D01*
X306Y203D02*
X309Y203D01*
X371Y203D02*
X374Y203D01*
X679Y203D02*
X682Y203D01*
X791Y203D02*
X793Y203D01*
X1163Y203D02*
X1166Y203D01*
X1275Y203D02*
X1278Y203D01*
X131Y202D02*
X134Y202D01*
X195Y202D02*
X198Y202D01*
X306Y202D02*
X309Y202D01*
X371Y202D02*
X374Y202D01*
X679Y202D02*
X682Y202D01*
X790Y202D02*
X793Y202D01*
X1164Y202D02*
X1167Y202D01*
X1274Y202D02*
X1277Y202D01*
X131Y201D02*
X134Y201D01*
X196Y201D02*
X199Y201D01*
X306Y201D02*
X309Y201D01*
X371Y201D02*
X374Y201D01*
X680Y201D02*
X683Y201D01*
X790Y201D02*
X793Y201D01*
X1164Y201D02*
X1167Y201D01*
X1274Y201D02*
X1277Y201D01*
X131Y200D02*
X134Y200D01*
X196Y200D02*
X199Y200D01*
X306Y200D02*
X309Y200D01*
X371Y200D02*
X374Y200D01*
X680Y200D02*
X683Y200D01*
X790Y200D02*
X793Y200D01*
X1164Y200D02*
X1167Y200D01*
X1274Y200D02*
X1277Y200D01*
X131Y199D02*
X134Y199D01*
X196Y199D02*
X199Y199D01*
X305Y199D02*
X308Y199D01*
X371Y199D02*
X374Y199D01*
X680Y199D02*
X683Y199D01*
X789Y199D02*
X792Y199D01*
X1164Y199D02*
X1167Y199D01*
X1274Y199D02*
X1277Y199D01*
X131Y198D02*
X134Y198D01*
X196Y198D02*
X199Y198D01*
X305Y198D02*
X308Y198D01*
X371Y198D02*
X374Y198D01*
X681Y198D02*
X684Y198D01*
X789Y198D02*
X792Y198D01*
X1165Y198D02*
X1168Y198D01*
X1273Y198D02*
X1276Y198D01*
X131Y197D02*
X133Y197D01*
X197Y197D02*
X200Y197D01*
X305Y197D02*
X308Y197D01*
X371Y197D02*
X373Y197D01*
X681Y197D02*
X684Y197D01*
X789Y197D02*
X792Y197D01*
X1165Y197D02*
X1168Y197D01*
X1273Y197D02*
X1276Y197D01*
X197Y196D02*
X200Y196D01*
X304Y196D02*
X307Y196D01*
X681Y196D02*
X684Y196D01*
X788Y196D02*
X791Y196D01*
X1165Y196D02*
X1168Y196D01*
X1273Y196D02*
X1276Y196D01*
X197Y195D02*
X201Y195D01*
X304Y195D02*
X307Y195D01*
X682Y195D02*
X685Y195D01*
X788Y195D02*
X791Y195D01*
X1166Y195D02*
X1169Y195D01*
X1272Y195D02*
X1275Y195D01*
X198Y194D02*
X201Y194D01*
X303Y194D02*
X307Y194D01*
X682Y194D02*
X685Y194D01*
X788Y194D02*
X791Y194D01*
X1166Y194D02*
X1169Y194D01*
X1272Y194D02*
X1275Y194D01*
X198Y193D02*
X201Y193D01*
X303Y193D02*
X306Y193D01*
X682Y193D02*
X686Y193D01*
X787Y193D02*
X790Y193D01*
X1166Y193D02*
X1170Y193D01*
X1271Y193D02*
X1274Y193D01*
X199Y192D02*
X202Y192D01*
X303Y192D02*
X306Y192D01*
X683Y192D02*
X686Y192D01*
X787Y192D02*
X790Y192D01*
X1167Y192D02*
X1170Y192D01*
X1271Y192D02*
X1274Y192D01*
X199Y191D02*
X202Y191D01*
X302Y191D02*
X305Y191D01*
X683Y191D02*
X686Y191D01*
X786Y191D02*
X789Y191D01*
X1167Y191D02*
X1171Y191D01*
X1270Y191D02*
X1274Y191D01*
X200Y190D02*
X203Y190D01*
X302Y190D02*
X305Y190D01*
X684Y190D02*
X687Y190D01*
X786Y190D02*
X789Y190D01*
X1168Y190D02*
X1171Y190D01*
X1270Y190D02*
X1273Y190D01*
X200Y189D02*
X203Y189D01*
X301Y189D02*
X304Y189D01*
X684Y189D02*
X688Y189D01*
X785Y189D02*
X788Y189D01*
X1168Y189D02*
X1172Y189D01*
X1269Y189D02*
X1273Y189D01*
X201Y188D02*
X204Y188D01*
X300Y188D02*
X304Y188D01*
X685Y188D02*
X688Y188D01*
X785Y188D02*
X788Y188D01*
X1169Y188D02*
X1172Y188D01*
X1269Y188D02*
X1272Y188D01*
X201Y187D02*
X205Y187D01*
X300Y187D02*
X303Y187D01*
X685Y187D02*
X689Y187D01*
X784Y187D02*
X787Y187D01*
X1169Y187D02*
X1173Y187D01*
X1268Y187D02*
X1272Y187D01*
X202Y186D02*
X205Y186D01*
X299Y186D02*
X303Y186D01*
X686Y186D02*
X689Y186D01*
X783Y186D02*
X787Y186D01*
X1170Y186D02*
X1173Y186D01*
X1268Y186D02*
X1271Y186D01*
X202Y185D02*
X206Y185D01*
X299Y185D02*
X302Y185D01*
X686Y185D02*
X690Y185D01*
X783Y185D02*
X786Y185D01*
X1171Y185D02*
X1174Y185D01*
X1267Y185D02*
X1270Y185D01*
X203Y184D02*
X207Y184D01*
X298Y184D02*
X301Y184D01*
X687Y184D02*
X691Y184D01*
X782Y184D02*
X786Y184D01*
X1171Y184D02*
X1175Y184D01*
X1266Y184D02*
X1270Y184D01*
X204Y183D02*
X207Y183D01*
X297Y183D02*
X301Y183D01*
X688Y183D02*
X691Y183D01*
X781Y183D02*
X785Y183D01*
X1172Y183D02*
X1175Y183D01*
X1265Y183D02*
X1269Y183D01*
X204Y182D02*
X208Y182D01*
X296Y182D02*
X300Y182D01*
X688Y182D02*
X692Y182D01*
X781Y182D02*
X784Y182D01*
X1172Y182D02*
X1176Y182D01*
X1265Y182D02*
X1268Y182D01*
X205Y181D02*
X209Y181D01*
X296Y181D02*
X299Y181D01*
X689Y181D02*
X693Y181D01*
X780Y181D02*
X784Y181D01*
X1173Y181D02*
X1177Y181D01*
X1264Y181D02*
X1268Y181D01*
X206Y180D02*
X210Y180D01*
X295Y180D02*
X299Y180D01*
X690Y180D02*
X694Y180D01*
X779Y180D02*
X783Y180D01*
X1174Y180D02*
X1178Y180D01*
X1263Y180D02*
X1267Y180D01*
X206Y179D02*
X210Y179D01*
X294Y179D02*
X298Y179D01*
X691Y179D02*
X695Y179D01*
X778Y179D02*
X782Y179D01*
X1175Y179D02*
X1179Y179D01*
X1262Y179D02*
X1266Y179D01*
X207Y178D02*
X211Y178D01*
X293Y178D02*
X297Y178D01*
X691Y178D02*
X696Y178D01*
X777Y178D02*
X781Y178D01*
X1176Y178D02*
X1180Y178D01*
X1261Y178D02*
X1265Y178D01*
X208Y177D02*
X212Y177D01*
X292Y177D02*
X296Y177D01*
X692Y177D02*
X696Y177D01*
X776Y177D02*
X780Y177D01*
X1176Y177D02*
X1181Y177D01*
X1260Y177D02*
X1265Y177D01*
X209Y176D02*
X213Y176D01*
X291Y176D02*
X295Y176D01*
X693Y176D02*
X698Y176D01*
X775Y176D02*
X780Y176D01*
X1177Y176D02*
X1182Y176D01*
X1259Y176D02*
X1264Y176D01*
X210Y175D02*
X214Y175D01*
X290Y175D02*
X295Y175D01*
X694Y175D02*
X699Y175D01*
X774Y175D02*
X779Y175D01*
X1178Y175D02*
X1183Y175D01*
X1258Y175D02*
X1263Y175D01*
X211Y174D02*
X216Y174D01*
X289Y174D02*
X294Y174D01*
X695Y174D02*
X700Y174D01*
X773Y174D02*
X778Y174D01*
X1179Y174D02*
X1184Y174D01*
X1257Y174D02*
X1262Y174D01*
X212Y173D02*
X217Y173D01*
X288Y173D02*
X293Y173D01*
X696Y173D02*
X701Y173D01*
X772Y173D02*
X777Y173D01*
X1180Y173D02*
X1185Y173D01*
X1256Y173D02*
X1261Y173D01*
X213Y172D02*
X218Y172D01*
X286Y172D02*
X291Y172D01*
X697Y172D02*
X702Y172D01*
X771Y172D02*
X776Y172D01*
X1181Y172D02*
X1186Y172D01*
X1255Y172D02*
X1260Y172D01*
X214Y171D02*
X219Y171D01*
X285Y171D02*
X290Y171D01*
X698Y171D02*
X704Y171D01*
X769Y171D02*
X774Y171D01*
X1182Y171D02*
X1188Y171D01*
X1253Y171D02*
X1259Y171D01*
X215Y170D02*
X221Y170D01*
X284Y170D02*
X289Y170D01*
X699Y170D02*
X705Y170D01*
X768Y170D02*
X773Y170D01*
X1184Y170D02*
X1189Y170D01*
X1252Y170D02*
X1257Y170D01*
X216Y169D02*
X222Y169D01*
X282Y169D02*
X288Y169D01*
X701Y169D02*
X706Y169D01*
X766Y169D02*
X772Y169D01*
X1185Y169D02*
X1191Y169D01*
X1250Y169D02*
X1256Y169D01*
X218Y168D02*
X224Y168D01*
X280Y168D02*
X287Y168D01*
X702Y168D02*
X708Y168D01*
X765Y168D02*
X771Y168D01*
X1186Y168D02*
X1192Y168D01*
X1249Y168D02*
X1255Y168D01*
X219Y167D02*
X226Y167D01*
X279Y167D02*
X285Y167D01*
X703Y167D02*
X710Y167D01*
X763Y167D02*
X769Y167D01*
X1187Y167D02*
X1194Y167D01*
X1247Y167D02*
X1253Y167D01*
X221Y166D02*
X228Y166D01*
X277Y166D02*
X284Y166D01*
X705Y166D02*
X712Y166D01*
X761Y166D02*
X768Y166D01*
X1189Y166D02*
X1196Y166D01*
X1245Y166D02*
X1252Y166D01*
X222Y165D02*
X230Y165D01*
X275Y165D02*
X282Y165D01*
X706Y165D02*
X714Y165D01*
X759Y165D02*
X766Y165D01*
X1191Y165D02*
X1198Y165D01*
X1243Y165D02*
X1250Y165D01*
X224Y164D02*
X232Y164D01*
X272Y164D02*
X280Y164D01*
X708Y164D02*
X717Y164D01*
X756Y164D02*
X764Y164D01*
X1192Y164D02*
X1201Y164D01*
X1240Y164D02*
X1249Y164D01*
X226Y163D02*
X235Y163D01*
X269Y163D02*
X279Y163D01*
X710Y163D02*
X719Y163D01*
X753Y163D02*
X763Y163D01*
X1194Y163D02*
X1204Y163D01*
X1237Y163D02*
X1247Y163D01*
X228Y162D02*
X239Y162D01*
X266Y162D02*
X276Y162D01*
X712Y162D02*
X723Y162D01*
X750Y162D02*
X761Y162D01*
X1196Y162D02*
X1207Y162D01*
X1234Y162D02*
X1245Y162D01*
X230Y161D02*
X244Y161D01*
X260Y161D02*
X274Y161D01*
X714Y161D02*
X728Y161D01*
X749Y161D02*
X758Y161D01*
X1199Y161D02*
X1212Y161D01*
X1229Y161D02*
X1242Y161D01*
X233Y160D02*
X271Y160D01*
X717Y160D02*
X726Y160D01*
X750Y160D02*
X756Y160D01*
X1201Y160D02*
X1240Y160D01*
X236Y159D02*
X268Y159D01*
X720Y159D02*
X725Y159D01*
X752Y159D02*
X752Y159D01*
X1204Y159D02*
X1237Y159D01*
X240Y158D02*
X264Y158D01*
X1208Y158D02*
X1233Y158D01*
X246Y157D02*
X258Y157D01*
X1214Y157D02*
X1226Y157D01*
X131Y97D02*
X133Y97D01*
X371Y97D02*
X373Y97D01*
X1100Y97D02*
X1101Y97D01*
X1340Y97D02*
X1341Y97D01*
X131Y96D02*
X134Y96D01*
X371Y96D02*
X374Y96D01*
X1099Y96D02*
X1102Y96D01*
X1339Y96D02*
X1342Y96D01*
X131Y95D02*
X134Y95D01*
X371Y95D02*
X374Y95D01*
X1099Y95D02*
X1102Y95D01*
X1339Y95D02*
X1342Y95D01*
X131Y94D02*
X134Y94D01*
X371Y94D02*
X374Y94D01*
X1099Y94D02*
X1102Y94D01*
X1339Y94D02*
X1342Y94D01*
X131Y93D02*
X134Y93D01*
X371Y93D02*
X374Y93D01*
X1099Y93D02*
X1102Y93D01*
X1339Y93D02*
X1342Y93D01*
X131Y92D02*
X134Y92D01*
X371Y92D02*
X374Y92D01*
X1099Y92D02*
X1102Y92D01*
X1339Y92D02*
X1342Y92D01*
X131Y91D02*
X134Y91D01*
X371Y91D02*
X374Y91D01*
X1099Y91D02*
X1102Y91D01*
X1339Y91D02*
X1342Y91D01*
X131Y90D02*
X134Y90D01*
X371Y90D02*
X374Y90D01*
X1099Y90D02*
X1102Y90D01*
X1339Y90D02*
X1342Y90D01*
X131Y89D02*
X134Y89D01*
X371Y89D02*
X374Y89D01*
X1099Y89D02*
X1102Y89D01*
X1339Y89D02*
X1342Y89D01*
X131Y88D02*
X134Y88D01*
X371Y88D02*
X374Y88D01*
X1099Y88D02*
X1102Y88D01*
X1339Y88D02*
X1342Y88D01*
X131Y87D02*
X134Y87D01*
X371Y87D02*
X374Y87D01*
X1099Y87D02*
X1102Y87D01*
X1339Y87D02*
X1342Y87D01*
X131Y86D02*
X134Y86D01*
X370Y86D02*
X374Y86D01*
X1099Y86D02*
X1102Y86D01*
X1339Y86D02*
X1342Y86D01*
X131Y85D02*
X374Y85D01*
X1099Y85D02*
X1251Y85D01*
X1301Y85D02*
X1342Y85D01*
X131Y84D02*
X374Y84D01*
X1099Y84D02*
X1251Y84D01*
X1301Y84D02*
X1342Y84D01*
X131Y83D02*
X374Y83D01*
X1099Y83D02*
X1251Y83D01*
X1301Y83D02*
X1342Y83D01*
X132Y82D02*
X372Y82D01*
X1100Y82D02*
X1251Y82D01*
X1301Y82D02*
X1341Y82D01*
D02*
G04 End of Silk1*
M02*