M48
INCH
T10C0.015748
T11C0.023622
T12C0.039370
%
T10
X004988Y012880
X005539Y012369
X009516Y008215
X012767Y000860
X007393Y000348
X007390Y001384
X004555Y010203
X004122Y006660
X007705Y005558
X007075Y005558
X012429Y003904
X010618Y008747
X013118Y003904
X000460Y006030
X001957Y002841
X010106Y007664
X006110Y010144
X006642Y010219
X006681Y013884
X013512Y000361
X012055Y011632
T11
X007665Y011861
X007665Y012361
X007665Y012861
X007665Y013361
X007665Y013861
X007665Y014361
X007153Y014800
X006653Y014900
X006153Y014800
X005653Y014900
X005153Y014800
X004653Y014900
X004153Y014800
X003653Y014900
X003153Y014800
X002653Y014900
X002153Y014800
X001653Y014900
X001153Y014800
T12
X006396Y004098
X007396Y004098
X008396Y004098
X009396Y004098
X001112Y009534
X002112Y009534
X001112Y008534
X002112Y008534
X001112Y007534
X002112Y007534
T00
M30
