G04 MADE WITH FRITZING*
G04 WWW.FRITZING.ORG*
G04 DOUBLE SIDED*
G04 HOLES PLATED*
G04 CONTOUR ON CENTER OF CONTOUR VECTOR*
%ASAXBY*%
%FSLAX23Y23*%
%MOIN*%
%OFA0B0*%
%SFA1.0B1.0*%
%ADD10C,0.049370*%
%ADD11C,0.057244*%
%ADD12C,0.088740*%
%ADD13R,0.050158X0.026142*%
%ADD14R,0.104488X0.104488*%
%ADD15R,0.069055X0.065118*%
%ADD16R,0.088740X0.088740*%
%ADD17R,0.147795X0.088740*%
%LNMASK1*%
G90*
G70*
G54D10*
X1206Y1163D03*
X1351Y36D03*
X668Y1388D03*
X664Y1022D03*
X611Y1014D03*
G54D11*
X115Y1480D03*
X165Y1490D03*
X215Y1480D03*
X265Y1490D03*
X315Y1480D03*
X365Y1490D03*
X415Y1480D03*
X465Y1490D03*
X515Y1480D03*
X565Y1490D03*
X615Y1480D03*
X665Y1490D03*
X715Y1480D03*
X767Y1436D03*
X767Y1386D03*
X767Y1336D03*
X767Y1286D03*
X767Y1236D03*
X767Y1186D03*
G54D10*
X1011Y766D03*
X196Y284D03*
X46Y603D03*
X1312Y390D03*
X1062Y875D03*
X1243Y390D03*
X708Y556D03*
X771Y556D03*
X412Y666D03*
X456Y1020D03*
X739Y138D03*
X739Y35D03*
X1277Y86D03*
X952Y822D03*
G54D12*
X211Y753D03*
X111Y753D03*
X211Y853D03*
X111Y853D03*
X211Y953D03*
X111Y953D03*
X940Y410D03*
X840Y410D03*
X740Y410D03*
X640Y410D03*
G54D10*
X554Y1237D03*
X499Y1288D03*
G54D13*
X1034Y1335D03*
X1034Y1310D03*
X1034Y1284D03*
X1034Y1259D03*
X1223Y1259D03*
X1223Y1284D03*
X1223Y1310D03*
X1223Y1335D03*
G54D14*
X160Y603D03*
X160Y430D03*
G54D15*
X1326Y729D03*
X1326Y810D03*
X1326Y969D03*
X1326Y1050D03*
X1326Y1201D03*
X1326Y1282D03*
G54D16*
X211Y753D03*
G54D17*
X1054Y284D03*
X1054Y146D03*
X1389Y146D03*
X1389Y284D03*
X420Y146D03*
X420Y284D03*
X85Y284D03*
X85Y146D03*
X570Y284D03*
X570Y146D03*
X904Y146D03*
X904Y284D03*
G04 End of Mask1*
M02*