G04 MADE WITH FRITZING*
G04 WWW.FRITZING.ORG*
G04 DOUBLE SIDED*
G04 HOLES PLATED*
G04 CONTOUR ON CENTER OF CONTOUR VECTOR*
%ASAXBY*%
%FSLAX23Y23*%
%MOIN*%
%OFA0B0*%
%SFA1.0B1.0*%
%ADD10C,0.008000*%
%ADD11C,0.010000*%
%ADD12C,0.005000*%
%ADD13C,0.006000*%
%ADD14R,0.001000X0.001000*%
%LNSILK0*%
G90*
G70*
G54D10*
X1076Y1403D02*
X956Y1283D01*
D02*
X956Y1283D02*
X956Y1043D01*
D02*
X956Y1043D02*
X1076Y923D01*
D02*
X1224Y421D02*
X1258Y421D01*
D02*
X1258Y533D02*
X1224Y533D01*
D02*
X1209Y488D02*
X1209Y467D01*
G54D11*
D02*
X817Y1486D02*
X817Y1136D01*
D02*
X817Y1136D02*
X717Y1136D01*
G54D12*
D02*
X817Y1451D02*
X782Y1486D01*
G54D13*
D02*
X1390Y197D02*
X1390Y25D01*
D02*
X1251Y212D02*
X1375Y212D01*
G54D14*
X61Y1535D02*
X769Y1535D01*
X60Y1534D02*
X769Y1534D01*
X60Y1533D02*
X769Y1533D01*
X60Y1532D02*
X769Y1532D01*
X60Y1531D02*
X769Y1531D01*
X60Y1530D02*
X69Y1530D01*
X92Y1530D02*
X98Y1530D01*
X760Y1530D02*
X769Y1530D01*
X60Y1529D02*
X69Y1529D01*
X91Y1529D02*
X97Y1529D01*
X760Y1529D02*
X769Y1529D01*
X60Y1528D02*
X69Y1528D01*
X90Y1528D02*
X96Y1528D01*
X760Y1528D02*
X769Y1528D01*
X60Y1527D02*
X69Y1527D01*
X89Y1527D02*
X95Y1527D01*
X760Y1527D02*
X769Y1527D01*
X60Y1526D02*
X69Y1526D01*
X88Y1526D02*
X94Y1526D01*
X760Y1526D02*
X769Y1526D01*
X60Y1525D02*
X69Y1525D01*
X87Y1525D02*
X93Y1525D01*
X760Y1525D02*
X769Y1525D01*
X60Y1524D02*
X69Y1524D01*
X86Y1524D02*
X92Y1524D01*
X760Y1524D02*
X769Y1524D01*
X60Y1523D02*
X69Y1523D01*
X85Y1523D02*
X91Y1523D01*
X760Y1523D02*
X769Y1523D01*
X60Y1522D02*
X69Y1522D01*
X84Y1522D02*
X90Y1522D01*
X760Y1522D02*
X769Y1522D01*
X60Y1521D02*
X69Y1521D01*
X83Y1521D02*
X89Y1521D01*
X760Y1521D02*
X769Y1521D01*
X60Y1520D02*
X69Y1520D01*
X82Y1520D02*
X88Y1520D01*
X760Y1520D02*
X769Y1520D01*
X60Y1519D02*
X69Y1519D01*
X81Y1519D02*
X87Y1519D01*
X760Y1519D02*
X769Y1519D01*
X60Y1518D02*
X69Y1518D01*
X80Y1518D02*
X86Y1518D01*
X760Y1518D02*
X769Y1518D01*
X60Y1517D02*
X69Y1517D01*
X79Y1517D02*
X85Y1517D01*
X760Y1517D02*
X769Y1517D01*
X60Y1516D02*
X69Y1516D01*
X78Y1516D02*
X84Y1516D01*
X760Y1516D02*
X769Y1516D01*
X60Y1515D02*
X69Y1515D01*
X77Y1515D02*
X83Y1515D01*
X760Y1515D02*
X769Y1515D01*
X60Y1514D02*
X69Y1514D01*
X76Y1514D02*
X82Y1514D01*
X760Y1514D02*
X769Y1514D01*
X60Y1513D02*
X69Y1513D01*
X75Y1513D02*
X81Y1513D01*
X760Y1513D02*
X769Y1513D01*
X60Y1512D02*
X69Y1512D01*
X74Y1512D02*
X80Y1512D01*
X760Y1512D02*
X769Y1512D01*
X60Y1511D02*
X69Y1511D01*
X73Y1511D02*
X79Y1511D01*
X760Y1511D02*
X769Y1511D01*
X60Y1510D02*
X69Y1510D01*
X72Y1510D02*
X78Y1510D01*
X760Y1510D02*
X769Y1510D01*
X60Y1509D02*
X69Y1509D01*
X71Y1509D02*
X77Y1509D01*
X760Y1509D02*
X769Y1509D01*
X60Y1508D02*
X76Y1508D01*
X760Y1508D02*
X769Y1508D01*
X60Y1507D02*
X75Y1507D01*
X760Y1507D02*
X769Y1507D01*
X60Y1506D02*
X74Y1506D01*
X760Y1506D02*
X769Y1506D01*
X60Y1505D02*
X73Y1505D01*
X760Y1505D02*
X769Y1505D01*
X60Y1504D02*
X72Y1504D01*
X760Y1504D02*
X769Y1504D01*
X60Y1503D02*
X71Y1503D01*
X760Y1503D02*
X769Y1503D01*
X60Y1502D02*
X70Y1502D01*
X760Y1502D02*
X769Y1502D01*
X60Y1501D02*
X69Y1501D01*
X760Y1501D02*
X769Y1501D01*
X60Y1500D02*
X69Y1500D01*
X760Y1500D02*
X769Y1500D01*
X60Y1499D02*
X69Y1499D01*
X760Y1499D02*
X769Y1499D01*
X60Y1498D02*
X69Y1498D01*
X760Y1498D02*
X769Y1498D01*
X60Y1497D02*
X69Y1497D01*
X760Y1497D02*
X769Y1497D01*
X60Y1496D02*
X69Y1496D01*
X760Y1496D02*
X769Y1496D01*
X60Y1495D02*
X69Y1495D01*
X760Y1495D02*
X769Y1495D01*
X60Y1494D02*
X69Y1494D01*
X760Y1494D02*
X769Y1494D01*
X60Y1493D02*
X69Y1493D01*
X760Y1493D02*
X769Y1493D01*
X60Y1492D02*
X69Y1492D01*
X760Y1492D02*
X769Y1492D01*
X60Y1491D02*
X69Y1491D01*
X741Y1491D02*
X815Y1491D01*
X60Y1490D02*
X69Y1490D01*
X742Y1490D02*
X815Y1490D01*
X60Y1489D02*
X69Y1489D01*
X742Y1489D02*
X815Y1489D01*
X60Y1488D02*
X69Y1488D01*
X742Y1488D02*
X815Y1488D01*
X60Y1487D02*
X69Y1487D01*
X743Y1487D02*
X815Y1487D01*
X60Y1486D02*
X69Y1486D01*
X743Y1486D02*
X815Y1486D01*
X60Y1485D02*
X69Y1485D01*
X743Y1485D02*
X815Y1485D01*
X60Y1484D02*
X69Y1484D01*
X743Y1484D02*
X815Y1484D01*
X60Y1483D02*
X69Y1483D01*
X744Y1483D02*
X815Y1483D01*
X60Y1482D02*
X69Y1482D01*
X744Y1482D02*
X815Y1482D01*
X60Y1481D02*
X69Y1481D01*
X760Y1481D02*
X769Y1481D01*
X60Y1480D02*
X69Y1480D01*
X760Y1480D02*
X769Y1480D01*
X60Y1479D02*
X69Y1479D01*
X760Y1479D02*
X769Y1479D01*
X60Y1478D02*
X69Y1478D01*
X760Y1478D02*
X769Y1478D01*
X60Y1477D02*
X69Y1477D01*
X760Y1477D02*
X769Y1477D01*
X60Y1476D02*
X69Y1476D01*
X760Y1476D02*
X769Y1476D01*
X60Y1475D02*
X69Y1475D01*
X760Y1475D02*
X769Y1475D01*
X60Y1474D02*
X69Y1474D01*
X760Y1474D02*
X769Y1474D01*
X60Y1473D02*
X69Y1473D01*
X760Y1473D02*
X769Y1473D01*
X60Y1472D02*
X69Y1472D01*
X760Y1472D02*
X769Y1472D01*
X60Y1471D02*
X69Y1471D01*
X760Y1471D02*
X769Y1471D01*
X60Y1470D02*
X69Y1470D01*
X760Y1470D02*
X769Y1470D01*
X60Y1469D02*
X69Y1469D01*
X760Y1469D02*
X769Y1469D01*
X60Y1468D02*
X69Y1468D01*
X760Y1468D02*
X769Y1468D01*
X60Y1467D02*
X69Y1467D01*
X760Y1467D02*
X769Y1467D01*
X60Y1466D02*
X69Y1466D01*
X760Y1466D02*
X769Y1466D01*
X60Y1465D02*
X69Y1465D01*
X760Y1465D02*
X769Y1465D01*
X60Y1464D02*
X69Y1464D01*
X60Y1463D02*
X69Y1463D01*
X60Y1462D02*
X69Y1462D01*
X60Y1461D02*
X69Y1461D01*
X60Y1460D02*
X69Y1460D01*
X60Y1459D02*
X69Y1459D01*
X60Y1458D02*
X69Y1458D01*
X60Y1457D02*
X69Y1457D01*
X60Y1456D02*
X69Y1456D01*
X60Y1455D02*
X69Y1455D01*
X60Y1454D02*
X69Y1454D01*
X60Y1453D02*
X69Y1453D01*
X60Y1452D02*
X69Y1452D01*
X720Y1452D02*
X720Y1452D01*
X60Y1451D02*
X69Y1451D01*
X711Y1451D02*
X720Y1451D01*
X60Y1450D02*
X69Y1450D01*
X711Y1450D02*
X720Y1450D01*
X60Y1449D02*
X69Y1449D01*
X711Y1449D02*
X720Y1449D01*
X60Y1448D02*
X69Y1448D01*
X711Y1448D02*
X720Y1448D01*
X60Y1447D02*
X69Y1447D01*
X711Y1447D02*
X720Y1447D01*
X60Y1446D02*
X69Y1446D01*
X711Y1446D02*
X720Y1446D01*
X60Y1445D02*
X69Y1445D01*
X711Y1445D02*
X720Y1445D01*
X60Y1444D02*
X69Y1444D01*
X711Y1444D02*
X720Y1444D01*
X60Y1443D02*
X69Y1443D01*
X711Y1443D02*
X720Y1443D01*
X60Y1442D02*
X69Y1442D01*
X711Y1442D02*
X720Y1442D01*
X60Y1441D02*
X69Y1441D01*
X711Y1441D02*
X720Y1441D01*
X60Y1440D02*
X737Y1440D01*
X60Y1439D02*
X737Y1439D01*
X60Y1438D02*
X737Y1438D01*
X60Y1437D02*
X737Y1437D01*
X60Y1436D02*
X737Y1436D01*
X65Y1435D02*
X737Y1435D01*
X65Y1434D02*
X737Y1434D01*
X65Y1433D02*
X737Y1433D01*
X65Y1432D02*
X737Y1432D01*
X65Y1431D02*
X737Y1431D01*
X711Y1430D02*
X720Y1430D01*
X711Y1429D02*
X720Y1429D01*
X711Y1428D02*
X720Y1428D01*
X711Y1427D02*
X720Y1427D01*
X711Y1426D02*
X720Y1426D01*
X711Y1425D02*
X720Y1425D01*
X711Y1424D02*
X720Y1424D01*
X711Y1423D02*
X720Y1423D01*
X711Y1422D02*
X720Y1422D01*
X711Y1421D02*
X720Y1421D01*
X711Y1420D02*
X720Y1420D01*
X711Y1419D02*
X720Y1419D01*
X711Y1418D02*
X720Y1418D01*
X711Y1417D02*
X720Y1417D01*
X711Y1416D02*
X720Y1416D01*
X711Y1415D02*
X720Y1415D01*
X711Y1414D02*
X720Y1414D01*
X711Y1413D02*
X720Y1413D01*
X711Y1412D02*
X720Y1412D01*
X711Y1411D02*
X720Y1411D01*
X711Y1410D02*
X720Y1410D01*
X711Y1409D02*
X720Y1409D01*
X711Y1408D02*
X720Y1408D01*
X711Y1407D02*
X720Y1407D01*
X1074Y1407D02*
X1137Y1407D01*
X1273Y1407D02*
X1375Y1407D01*
X711Y1406D02*
X720Y1406D01*
X1072Y1406D02*
X1137Y1406D01*
X1273Y1406D02*
X1378Y1406D01*
X711Y1405D02*
X720Y1405D01*
X1072Y1405D02*
X1380Y1405D01*
X711Y1404D02*
X720Y1404D01*
X1071Y1404D02*
X1382Y1404D01*
X711Y1403D02*
X720Y1403D01*
X1071Y1403D02*
X1384Y1403D01*
X711Y1402D02*
X720Y1402D01*
X1071Y1402D02*
X1386Y1402D01*
X711Y1401D02*
X720Y1401D01*
X1072Y1401D02*
X1388Y1401D01*
X711Y1400D02*
X720Y1400D01*
X1073Y1400D02*
X1389Y1400D01*
X711Y1399D02*
X720Y1399D01*
X1375Y1399D02*
X1391Y1399D01*
X711Y1398D02*
X720Y1398D01*
X1377Y1398D02*
X1392Y1398D01*
X711Y1397D02*
X720Y1397D01*
X1379Y1397D02*
X1393Y1397D01*
X711Y1396D02*
X720Y1396D01*
X1381Y1396D02*
X1395Y1396D01*
X711Y1395D02*
X720Y1395D01*
X1383Y1395D02*
X1396Y1395D01*
X711Y1394D02*
X720Y1394D01*
X1385Y1394D02*
X1397Y1394D01*
X711Y1393D02*
X720Y1393D01*
X1386Y1393D02*
X1398Y1393D01*
X711Y1392D02*
X720Y1392D01*
X1388Y1392D02*
X1399Y1392D01*
X711Y1391D02*
X720Y1391D01*
X1389Y1391D02*
X1400Y1391D01*
X711Y1390D02*
X720Y1390D01*
X1391Y1390D02*
X1401Y1390D01*
X711Y1389D02*
X720Y1389D01*
X1392Y1389D02*
X1402Y1389D01*
X711Y1388D02*
X720Y1388D01*
X1393Y1388D02*
X1403Y1388D01*
X711Y1387D02*
X720Y1387D01*
X1394Y1387D02*
X1404Y1387D01*
X711Y1386D02*
X720Y1386D01*
X1395Y1386D02*
X1405Y1386D01*
X711Y1385D02*
X720Y1385D01*
X1396Y1385D02*
X1406Y1385D01*
X711Y1384D02*
X720Y1384D01*
X1397Y1384D02*
X1407Y1384D01*
X711Y1383D02*
X720Y1383D01*
X1398Y1383D02*
X1407Y1383D01*
X711Y1382D02*
X720Y1382D01*
X1399Y1382D02*
X1408Y1382D01*
X711Y1381D02*
X720Y1381D01*
X1400Y1381D02*
X1409Y1381D01*
X711Y1380D02*
X720Y1380D01*
X1401Y1380D02*
X1409Y1380D01*
X711Y1379D02*
X720Y1379D01*
X1402Y1379D02*
X1410Y1379D01*
X711Y1378D02*
X720Y1378D01*
X1403Y1378D02*
X1411Y1378D01*
X711Y1377D02*
X720Y1377D01*
X1403Y1377D02*
X1411Y1377D01*
X711Y1376D02*
X720Y1376D01*
X1404Y1376D02*
X1412Y1376D01*
X711Y1375D02*
X720Y1375D01*
X1405Y1375D02*
X1413Y1375D01*
X711Y1374D02*
X720Y1374D01*
X1405Y1374D02*
X1413Y1374D01*
X711Y1373D02*
X720Y1373D01*
X1406Y1373D02*
X1414Y1373D01*
X711Y1372D02*
X720Y1372D01*
X1407Y1372D02*
X1414Y1372D01*
X711Y1371D02*
X720Y1371D01*
X1407Y1371D02*
X1415Y1371D01*
X711Y1370D02*
X720Y1370D01*
X1408Y1370D02*
X1415Y1370D01*
X711Y1369D02*
X720Y1369D01*
X1408Y1369D02*
X1416Y1369D01*
X711Y1368D02*
X720Y1368D01*
X1409Y1368D02*
X1416Y1368D01*
X711Y1367D02*
X720Y1367D01*
X1409Y1367D02*
X1417Y1367D01*
X711Y1366D02*
X720Y1366D01*
X1410Y1366D02*
X1417Y1366D01*
X711Y1365D02*
X720Y1365D01*
X1410Y1365D02*
X1417Y1365D01*
X711Y1364D02*
X720Y1364D01*
X1411Y1364D02*
X1418Y1364D01*
X711Y1363D02*
X720Y1363D01*
X1411Y1363D02*
X1418Y1363D01*
X711Y1362D02*
X720Y1362D01*
X1412Y1362D02*
X1419Y1362D01*
X711Y1361D02*
X720Y1361D01*
X1412Y1361D02*
X1419Y1361D01*
X711Y1360D02*
X720Y1360D01*
X1412Y1360D02*
X1419Y1360D01*
X711Y1359D02*
X720Y1359D01*
X1413Y1359D02*
X1420Y1359D01*
X711Y1358D02*
X720Y1358D01*
X1413Y1358D02*
X1420Y1358D01*
X711Y1357D02*
X720Y1357D01*
X1413Y1357D02*
X1420Y1357D01*
X711Y1356D02*
X720Y1356D01*
X1414Y1356D02*
X1420Y1356D01*
X711Y1355D02*
X720Y1355D01*
X1414Y1355D02*
X1421Y1355D01*
X711Y1354D02*
X720Y1354D01*
X1414Y1354D02*
X1421Y1354D01*
X711Y1353D02*
X720Y1353D01*
X1414Y1353D02*
X1421Y1353D01*
X711Y1352D02*
X720Y1352D01*
X1415Y1352D02*
X1421Y1352D01*
X711Y1351D02*
X720Y1351D01*
X1415Y1351D02*
X1421Y1351D01*
X711Y1350D02*
X720Y1350D01*
X1415Y1350D02*
X1422Y1350D01*
X711Y1349D02*
X720Y1349D01*
X1415Y1349D02*
X1422Y1349D01*
X711Y1348D02*
X720Y1348D01*
X1415Y1348D02*
X1422Y1348D01*
X711Y1347D02*
X720Y1347D01*
X1415Y1347D02*
X1422Y1347D01*
X711Y1346D02*
X720Y1346D01*
X1416Y1346D02*
X1422Y1346D01*
X711Y1345D02*
X720Y1345D01*
X1416Y1345D02*
X1422Y1345D01*
X711Y1344D02*
X720Y1344D01*
X1416Y1344D02*
X1422Y1344D01*
X711Y1343D02*
X720Y1343D01*
X1416Y1343D02*
X1422Y1343D01*
X711Y1342D02*
X720Y1342D01*
X1416Y1342D02*
X1423Y1342D01*
X711Y1341D02*
X720Y1341D01*
X1416Y1341D02*
X1423Y1341D01*
X711Y1340D02*
X720Y1340D01*
X1416Y1340D02*
X1423Y1340D01*
X711Y1339D02*
X720Y1339D01*
X1416Y1339D02*
X1423Y1339D01*
X711Y1338D02*
X720Y1338D01*
X1416Y1338D02*
X1423Y1338D01*
X711Y1337D02*
X720Y1337D01*
X1416Y1337D02*
X1423Y1337D01*
X711Y1336D02*
X720Y1336D01*
X1416Y1336D02*
X1423Y1336D01*
X711Y1335D02*
X720Y1335D01*
X1416Y1335D02*
X1423Y1335D01*
X711Y1334D02*
X720Y1334D01*
X1416Y1334D02*
X1423Y1334D01*
X711Y1333D02*
X720Y1333D01*
X1416Y1333D02*
X1423Y1333D01*
X711Y1332D02*
X720Y1332D01*
X1416Y1332D02*
X1422Y1332D01*
X711Y1331D02*
X720Y1331D01*
X1416Y1331D02*
X1422Y1331D01*
X711Y1330D02*
X720Y1330D01*
X1415Y1330D02*
X1422Y1330D01*
X711Y1329D02*
X720Y1329D01*
X1415Y1329D02*
X1422Y1329D01*
X711Y1328D02*
X720Y1328D01*
X1415Y1328D02*
X1422Y1328D01*
X711Y1327D02*
X720Y1327D01*
X1415Y1327D02*
X1422Y1327D01*
X711Y1326D02*
X720Y1326D01*
X1415Y1326D02*
X1422Y1326D01*
X711Y1325D02*
X720Y1325D01*
X1415Y1325D02*
X1422Y1325D01*
X711Y1324D02*
X720Y1324D01*
X1414Y1324D02*
X1421Y1324D01*
X711Y1323D02*
X720Y1323D01*
X1414Y1323D02*
X1421Y1323D01*
X711Y1322D02*
X720Y1322D01*
X1414Y1322D02*
X1421Y1322D01*
X711Y1321D02*
X720Y1321D01*
X1414Y1321D02*
X1421Y1321D01*
X711Y1320D02*
X720Y1320D01*
X1413Y1320D02*
X1421Y1320D01*
X711Y1319D02*
X720Y1319D01*
X1413Y1319D02*
X1420Y1319D01*
X711Y1318D02*
X720Y1318D01*
X1413Y1318D02*
X1420Y1318D01*
X711Y1317D02*
X720Y1317D01*
X1412Y1317D02*
X1420Y1317D01*
X711Y1316D02*
X720Y1316D01*
X1412Y1316D02*
X1419Y1316D01*
X711Y1315D02*
X720Y1315D01*
X1411Y1315D02*
X1419Y1315D01*
X711Y1314D02*
X720Y1314D01*
X1410Y1314D02*
X1419Y1314D01*
X711Y1313D02*
X720Y1313D01*
X1409Y1313D02*
X1414Y1313D01*
X1416Y1313D02*
X1418Y1313D01*
X711Y1312D02*
X720Y1312D01*
X1409Y1312D02*
X1415Y1312D01*
X1418Y1312D02*
X1418Y1312D01*
X711Y1311D02*
X720Y1311D01*
X1408Y1311D02*
X1416Y1311D01*
X711Y1310D02*
X720Y1310D01*
X1407Y1310D02*
X1417Y1310D01*
X711Y1309D02*
X720Y1309D01*
X1406Y1309D02*
X1416Y1309D01*
X711Y1308D02*
X720Y1308D01*
X1405Y1308D02*
X1415Y1308D01*
X711Y1307D02*
X720Y1307D01*
X1404Y1307D02*
X1414Y1307D01*
X711Y1306D02*
X720Y1306D01*
X1403Y1306D02*
X1413Y1306D01*
X711Y1305D02*
X720Y1305D01*
X1402Y1305D02*
X1412Y1305D01*
X711Y1304D02*
X720Y1304D01*
X1401Y1304D02*
X1411Y1304D01*
X711Y1303D02*
X720Y1303D01*
X1400Y1303D02*
X1410Y1303D01*
X711Y1302D02*
X720Y1302D01*
X1400Y1302D02*
X1409Y1302D01*
X711Y1301D02*
X720Y1301D01*
X1399Y1301D02*
X1408Y1301D01*
X711Y1300D02*
X720Y1300D01*
X1398Y1300D02*
X1407Y1300D01*
X711Y1299D02*
X720Y1299D01*
X1397Y1299D02*
X1407Y1299D01*
X711Y1298D02*
X720Y1298D01*
X1396Y1298D02*
X1406Y1298D01*
X711Y1297D02*
X720Y1297D01*
X1396Y1297D02*
X1405Y1297D01*
X711Y1296D02*
X720Y1296D01*
X1395Y1296D02*
X1404Y1296D01*
X711Y1295D02*
X720Y1295D01*
X1394Y1295D02*
X1403Y1295D01*
X711Y1294D02*
X720Y1294D01*
X1393Y1294D02*
X1402Y1294D01*
X711Y1293D02*
X720Y1293D01*
X1392Y1293D02*
X1401Y1293D01*
X711Y1292D02*
X720Y1292D01*
X1392Y1292D02*
X1401Y1292D01*
X711Y1291D02*
X720Y1291D01*
X1391Y1291D02*
X1400Y1291D01*
X711Y1290D02*
X720Y1290D01*
X1390Y1290D02*
X1399Y1290D01*
X711Y1289D02*
X720Y1289D01*
X1389Y1289D02*
X1398Y1289D01*
X711Y1288D02*
X720Y1288D01*
X1389Y1288D02*
X1398Y1288D01*
X711Y1287D02*
X720Y1287D01*
X1388Y1287D02*
X1397Y1287D01*
X711Y1286D02*
X720Y1286D01*
X1387Y1286D02*
X1396Y1286D01*
X711Y1285D02*
X720Y1285D01*
X1387Y1285D02*
X1395Y1285D01*
X711Y1284D02*
X720Y1284D01*
X1386Y1284D02*
X1395Y1284D01*
X711Y1283D02*
X720Y1283D01*
X1385Y1283D02*
X1394Y1283D01*
X711Y1282D02*
X720Y1282D01*
X1385Y1282D02*
X1393Y1282D01*
X711Y1281D02*
X720Y1281D01*
X1384Y1281D02*
X1393Y1281D01*
X711Y1280D02*
X720Y1280D01*
X1383Y1280D02*
X1392Y1280D01*
X711Y1279D02*
X720Y1279D01*
X1383Y1279D02*
X1391Y1279D01*
X711Y1278D02*
X720Y1278D01*
X1382Y1278D02*
X1390Y1278D01*
X711Y1277D02*
X720Y1277D01*
X1382Y1277D02*
X1390Y1277D01*
X711Y1276D02*
X720Y1276D01*
X1381Y1276D02*
X1389Y1276D01*
X711Y1275D02*
X720Y1275D01*
X1380Y1275D02*
X1389Y1275D01*
X711Y1274D02*
X720Y1274D01*
X1380Y1274D02*
X1388Y1274D01*
X711Y1273D02*
X720Y1273D01*
X1379Y1273D02*
X1387Y1273D01*
X711Y1272D02*
X720Y1272D01*
X1378Y1272D02*
X1387Y1272D01*
X711Y1271D02*
X720Y1271D01*
X1378Y1271D02*
X1386Y1271D01*
X711Y1270D02*
X720Y1270D01*
X1377Y1270D02*
X1385Y1270D01*
X711Y1269D02*
X720Y1269D01*
X1377Y1269D02*
X1385Y1269D01*
X711Y1268D02*
X720Y1268D01*
X1376Y1268D02*
X1384Y1268D01*
X711Y1267D02*
X720Y1267D01*
X1376Y1267D02*
X1384Y1267D01*
X711Y1266D02*
X720Y1266D01*
X1375Y1266D02*
X1383Y1266D01*
X711Y1265D02*
X720Y1265D01*
X1375Y1265D02*
X1383Y1265D01*
X711Y1264D02*
X720Y1264D01*
X1374Y1264D02*
X1382Y1264D01*
X711Y1263D02*
X720Y1263D01*
X1374Y1263D02*
X1381Y1263D01*
X711Y1262D02*
X720Y1262D01*
X1373Y1262D02*
X1381Y1262D01*
X711Y1261D02*
X720Y1261D01*
X1373Y1261D02*
X1380Y1261D01*
X711Y1260D02*
X720Y1260D01*
X1372Y1260D02*
X1380Y1260D01*
X711Y1259D02*
X720Y1259D01*
X1372Y1259D02*
X1379Y1259D01*
X711Y1258D02*
X720Y1258D01*
X1371Y1258D02*
X1379Y1258D01*
X711Y1257D02*
X720Y1257D01*
X1371Y1257D02*
X1378Y1257D01*
X711Y1256D02*
X720Y1256D01*
X1370Y1256D02*
X1378Y1256D01*
X711Y1255D02*
X720Y1255D01*
X1370Y1255D02*
X1377Y1255D01*
X711Y1254D02*
X720Y1254D01*
X1369Y1254D02*
X1377Y1254D01*
X711Y1253D02*
X720Y1253D01*
X1369Y1253D02*
X1376Y1253D01*
X711Y1252D02*
X720Y1252D01*
X1368Y1252D02*
X1376Y1252D01*
X711Y1251D02*
X720Y1251D01*
X1368Y1251D02*
X1375Y1251D01*
X711Y1250D02*
X720Y1250D01*
X1367Y1250D02*
X1375Y1250D01*
X711Y1249D02*
X720Y1249D01*
X1367Y1249D02*
X1374Y1249D01*
X711Y1248D02*
X720Y1248D01*
X1367Y1248D02*
X1374Y1248D01*
X711Y1247D02*
X720Y1247D01*
X1366Y1247D02*
X1374Y1247D01*
X711Y1246D02*
X720Y1246D01*
X1366Y1246D02*
X1373Y1246D01*
X711Y1245D02*
X720Y1245D01*
X1365Y1245D02*
X1373Y1245D01*
X711Y1244D02*
X720Y1244D01*
X1365Y1244D02*
X1372Y1244D01*
X711Y1243D02*
X720Y1243D01*
X1364Y1243D02*
X1372Y1243D01*
X711Y1242D02*
X720Y1242D01*
X1364Y1242D02*
X1371Y1242D01*
X711Y1241D02*
X720Y1241D01*
X1364Y1241D02*
X1371Y1241D01*
X711Y1240D02*
X720Y1240D01*
X1363Y1240D02*
X1371Y1240D01*
X711Y1239D02*
X720Y1239D01*
X1363Y1239D02*
X1370Y1239D01*
X711Y1238D02*
X720Y1238D01*
X1363Y1238D02*
X1370Y1238D01*
X711Y1237D02*
X720Y1237D01*
X1362Y1237D02*
X1369Y1237D01*
X711Y1236D02*
X720Y1236D01*
X1362Y1236D02*
X1369Y1236D01*
X711Y1235D02*
X720Y1235D01*
X1361Y1235D02*
X1369Y1235D01*
X711Y1234D02*
X720Y1234D01*
X1361Y1234D02*
X1368Y1234D01*
X711Y1233D02*
X720Y1233D01*
X1361Y1233D02*
X1368Y1233D01*
X711Y1232D02*
X720Y1232D01*
X1360Y1232D02*
X1367Y1232D01*
X711Y1231D02*
X720Y1231D01*
X1360Y1231D02*
X1367Y1231D01*
X711Y1230D02*
X720Y1230D01*
X1360Y1230D02*
X1367Y1230D01*
X711Y1229D02*
X720Y1229D01*
X1360Y1229D02*
X1367Y1229D01*
X711Y1228D02*
X720Y1228D01*
X1359Y1228D02*
X1366Y1228D01*
X711Y1227D02*
X720Y1227D01*
X1359Y1227D02*
X1366Y1227D01*
X711Y1226D02*
X720Y1226D01*
X1359Y1226D02*
X1366Y1226D01*
X711Y1225D02*
X720Y1225D01*
X1358Y1225D02*
X1365Y1225D01*
X711Y1224D02*
X720Y1224D01*
X1358Y1224D02*
X1365Y1224D01*
X711Y1223D02*
X720Y1223D01*
X1358Y1223D02*
X1365Y1223D01*
X711Y1222D02*
X720Y1222D01*
X1357Y1222D02*
X1364Y1222D01*
X711Y1221D02*
X720Y1221D01*
X1357Y1221D02*
X1364Y1221D01*
X711Y1220D02*
X720Y1220D01*
X1357Y1220D02*
X1364Y1220D01*
X711Y1219D02*
X720Y1219D01*
X1357Y1219D02*
X1363Y1219D01*
X711Y1218D02*
X720Y1218D01*
X1356Y1218D02*
X1363Y1218D01*
X711Y1217D02*
X720Y1217D01*
X1356Y1217D02*
X1363Y1217D01*
X711Y1216D02*
X720Y1216D01*
X1356Y1216D02*
X1363Y1216D01*
X711Y1215D02*
X720Y1215D01*
X1356Y1215D02*
X1362Y1215D01*
X711Y1214D02*
X720Y1214D01*
X1355Y1214D02*
X1362Y1214D01*
X711Y1213D02*
X720Y1213D01*
X1355Y1213D02*
X1362Y1213D01*
X711Y1212D02*
X720Y1212D01*
X1355Y1212D02*
X1362Y1212D01*
X711Y1211D02*
X720Y1211D01*
X1355Y1211D02*
X1361Y1211D01*
X711Y1210D02*
X720Y1210D01*
X1354Y1210D02*
X1361Y1210D01*
X711Y1209D02*
X720Y1209D01*
X1354Y1209D02*
X1361Y1209D01*
X711Y1208D02*
X720Y1208D01*
X1354Y1208D02*
X1361Y1208D01*
X711Y1207D02*
X720Y1207D01*
X1354Y1207D02*
X1360Y1207D01*
X711Y1206D02*
X720Y1206D01*
X1354Y1206D02*
X1360Y1206D01*
X711Y1205D02*
X720Y1205D01*
X1353Y1205D02*
X1360Y1205D01*
X711Y1204D02*
X720Y1204D01*
X1353Y1204D02*
X1360Y1204D01*
X711Y1203D02*
X720Y1203D01*
X1353Y1203D02*
X1360Y1203D01*
X711Y1202D02*
X720Y1202D01*
X1353Y1202D02*
X1359Y1202D01*
X711Y1201D02*
X720Y1201D01*
X1353Y1201D02*
X1359Y1201D01*
X711Y1200D02*
X720Y1200D01*
X1353Y1200D02*
X1359Y1200D01*
X711Y1199D02*
X720Y1199D01*
X1352Y1199D02*
X1359Y1199D01*
X711Y1198D02*
X720Y1198D01*
X1352Y1198D02*
X1359Y1198D01*
X711Y1197D02*
X720Y1197D01*
X1352Y1197D02*
X1359Y1197D01*
X711Y1196D02*
X720Y1196D01*
X1352Y1196D02*
X1358Y1196D01*
X711Y1195D02*
X720Y1195D01*
X1352Y1195D02*
X1358Y1195D01*
X711Y1194D02*
X720Y1194D01*
X1352Y1194D02*
X1358Y1194D01*
X711Y1193D02*
X720Y1193D01*
X1351Y1193D02*
X1358Y1193D01*
X711Y1192D02*
X720Y1192D01*
X1351Y1192D02*
X1358Y1192D01*
X711Y1191D02*
X720Y1191D01*
X1351Y1191D02*
X1358Y1191D01*
X711Y1190D02*
X720Y1190D01*
X1351Y1190D02*
X1358Y1190D01*
X711Y1189D02*
X720Y1189D01*
X1351Y1189D02*
X1357Y1189D01*
X711Y1188D02*
X720Y1188D01*
X1351Y1188D02*
X1357Y1188D01*
X711Y1187D02*
X720Y1187D01*
X1351Y1187D02*
X1357Y1187D01*
X711Y1186D02*
X720Y1186D01*
X1351Y1186D02*
X1357Y1186D01*
X711Y1185D02*
X720Y1185D01*
X1350Y1185D02*
X1357Y1185D01*
X711Y1184D02*
X720Y1184D01*
X1350Y1184D02*
X1357Y1184D01*
X711Y1183D02*
X720Y1183D01*
X1350Y1183D02*
X1357Y1183D01*
X711Y1182D02*
X720Y1182D01*
X1350Y1182D02*
X1357Y1182D01*
X711Y1181D02*
X720Y1181D01*
X1350Y1181D02*
X1357Y1181D01*
X711Y1180D02*
X720Y1180D01*
X1350Y1180D02*
X1356Y1180D01*
X711Y1179D02*
X720Y1179D01*
X1350Y1179D02*
X1356Y1179D01*
X711Y1178D02*
X720Y1178D01*
X1350Y1178D02*
X1356Y1178D01*
X711Y1177D02*
X720Y1177D01*
X1350Y1177D02*
X1356Y1177D01*
X711Y1176D02*
X720Y1176D01*
X1350Y1176D02*
X1356Y1176D01*
X711Y1175D02*
X720Y1175D01*
X1350Y1175D02*
X1356Y1175D01*
X711Y1174D02*
X720Y1174D01*
X1350Y1174D02*
X1356Y1174D01*
X711Y1173D02*
X720Y1173D01*
X1350Y1173D02*
X1356Y1173D01*
X711Y1172D02*
X720Y1172D01*
X1350Y1172D02*
X1356Y1172D01*
X711Y1171D02*
X720Y1171D01*
X1350Y1171D02*
X1356Y1171D01*
X711Y1170D02*
X720Y1170D01*
X1350Y1170D02*
X1356Y1170D01*
X711Y1169D02*
X720Y1169D01*
X1349Y1169D02*
X1356Y1169D01*
X711Y1168D02*
X720Y1168D01*
X1349Y1168D02*
X1356Y1168D01*
X711Y1167D02*
X720Y1167D01*
X1349Y1167D02*
X1356Y1167D01*
X711Y1166D02*
X720Y1166D01*
X1349Y1166D02*
X1356Y1166D01*
X711Y1165D02*
X720Y1165D01*
X1349Y1165D02*
X1356Y1165D01*
X711Y1164D02*
X720Y1164D01*
X1349Y1164D02*
X1356Y1164D01*
X711Y1163D02*
X720Y1163D01*
X1349Y1163D02*
X1356Y1163D01*
X711Y1162D02*
X720Y1162D01*
X1349Y1162D02*
X1356Y1162D01*
X711Y1161D02*
X720Y1161D01*
X1349Y1161D02*
X1356Y1161D01*
X711Y1160D02*
X720Y1160D01*
X1349Y1160D02*
X1356Y1160D01*
X711Y1159D02*
X720Y1159D01*
X1349Y1159D02*
X1356Y1159D01*
X711Y1158D02*
X720Y1158D01*
X1349Y1158D02*
X1356Y1158D01*
X711Y1157D02*
X720Y1157D01*
X1349Y1157D02*
X1356Y1157D01*
X711Y1156D02*
X720Y1156D01*
X1350Y1156D02*
X1356Y1156D01*
X711Y1155D02*
X720Y1155D01*
X1350Y1155D02*
X1356Y1155D01*
X711Y1154D02*
X720Y1154D01*
X1350Y1154D02*
X1356Y1154D01*
X711Y1153D02*
X720Y1153D01*
X1350Y1153D02*
X1356Y1153D01*
X711Y1152D02*
X720Y1152D01*
X1350Y1152D02*
X1356Y1152D01*
X711Y1151D02*
X720Y1151D01*
X1350Y1151D02*
X1356Y1151D01*
X711Y1150D02*
X720Y1150D01*
X1350Y1150D02*
X1356Y1150D01*
X711Y1149D02*
X720Y1149D01*
X1350Y1149D02*
X1356Y1149D01*
X711Y1148D02*
X720Y1148D01*
X1350Y1148D02*
X1356Y1148D01*
X711Y1147D02*
X720Y1147D01*
X1350Y1147D02*
X1356Y1147D01*
X711Y1146D02*
X720Y1146D01*
X1350Y1146D02*
X1357Y1146D01*
X711Y1145D02*
X720Y1145D01*
X1350Y1145D02*
X1357Y1145D01*
X711Y1144D02*
X720Y1144D01*
X1350Y1144D02*
X1357Y1144D01*
X711Y1143D02*
X720Y1143D01*
X1350Y1143D02*
X1357Y1143D01*
X711Y1142D02*
X720Y1142D01*
X1350Y1142D02*
X1357Y1142D01*
X711Y1141D02*
X720Y1141D01*
X1351Y1141D02*
X1357Y1141D01*
X711Y1140D02*
X720Y1140D01*
X1351Y1140D02*
X1357Y1140D01*
X711Y1139D02*
X720Y1139D01*
X1351Y1139D02*
X1357Y1139D01*
X711Y1138D02*
X720Y1138D01*
X1351Y1138D02*
X1357Y1138D01*
X711Y1137D02*
X720Y1137D01*
X1351Y1137D02*
X1357Y1137D01*
X1351Y1136D02*
X1358Y1136D01*
X1351Y1135D02*
X1358Y1135D01*
X1351Y1134D02*
X1358Y1134D01*
X1351Y1133D02*
X1358Y1133D01*
X1352Y1132D02*
X1358Y1132D01*
X1352Y1131D02*
X1358Y1131D01*
X1352Y1130D02*
X1358Y1130D01*
X1352Y1129D02*
X1359Y1129D01*
X1352Y1128D02*
X1359Y1128D01*
X1352Y1127D02*
X1359Y1127D01*
X1353Y1126D02*
X1359Y1126D01*
X1353Y1125D02*
X1359Y1125D01*
X1353Y1124D02*
X1360Y1124D01*
X1353Y1123D02*
X1360Y1123D01*
X1353Y1122D02*
X1360Y1122D01*
X1353Y1121D02*
X1360Y1121D01*
X1354Y1120D02*
X1360Y1120D01*
X1354Y1119D02*
X1361Y1119D01*
X1354Y1118D02*
X1361Y1118D01*
X1354Y1117D02*
X1361Y1117D01*
X1355Y1116D02*
X1361Y1116D01*
X1355Y1115D02*
X1361Y1115D01*
X1355Y1114D02*
X1362Y1114D01*
X1355Y1113D02*
X1362Y1113D01*
X1355Y1112D02*
X1362Y1112D01*
X1356Y1111D02*
X1362Y1111D01*
X1356Y1110D02*
X1363Y1110D01*
X1356Y1109D02*
X1363Y1109D01*
X1356Y1108D02*
X1363Y1108D01*
X1357Y1107D02*
X1364Y1107D01*
X1357Y1106D02*
X1364Y1106D01*
X1357Y1105D02*
X1364Y1105D01*
X1358Y1104D02*
X1364Y1104D01*
X1358Y1103D02*
X1365Y1103D01*
X1358Y1102D02*
X1365Y1102D01*
X1358Y1101D02*
X1365Y1101D01*
X1359Y1100D02*
X1366Y1100D01*
X1359Y1099D02*
X1366Y1099D01*
X1359Y1098D02*
X1366Y1098D01*
X1360Y1097D02*
X1367Y1097D01*
X1360Y1096D02*
X1367Y1096D01*
X1360Y1095D02*
X1367Y1095D01*
X1361Y1094D02*
X1368Y1094D01*
X1361Y1093D02*
X1368Y1093D01*
X1361Y1092D02*
X1368Y1092D01*
X1362Y1091D02*
X1369Y1091D01*
X1362Y1090D02*
X1369Y1090D01*
X1362Y1089D02*
X1370Y1089D01*
X1363Y1088D02*
X1370Y1088D01*
X1363Y1087D02*
X1370Y1087D01*
X1364Y1086D02*
X1371Y1086D01*
X1364Y1085D02*
X1371Y1085D01*
X1364Y1084D02*
X1372Y1084D01*
X1365Y1083D02*
X1372Y1083D01*
X1365Y1082D02*
X1372Y1082D01*
X1365Y1081D02*
X1373Y1081D01*
X1366Y1080D02*
X1373Y1080D01*
X1366Y1079D02*
X1374Y1079D01*
X1367Y1078D02*
X1374Y1078D01*
X1367Y1077D02*
X1375Y1077D01*
X1368Y1076D02*
X1375Y1076D01*
X1368Y1075D02*
X1376Y1075D01*
X1368Y1074D02*
X1376Y1074D01*
X1369Y1073D02*
X1376Y1073D01*
X1369Y1072D02*
X1377Y1072D01*
X1370Y1071D02*
X1377Y1071D01*
X1370Y1070D02*
X1378Y1070D01*
X1371Y1069D02*
X1378Y1069D01*
X1371Y1068D02*
X1379Y1068D01*
X1372Y1067D02*
X1379Y1067D01*
X1372Y1066D02*
X1380Y1066D01*
X1373Y1065D02*
X1381Y1065D01*
X1373Y1064D02*
X1381Y1064D01*
X1374Y1063D02*
X1382Y1063D01*
X1374Y1062D02*
X1382Y1062D01*
X1375Y1061D02*
X1383Y1061D01*
X1375Y1060D02*
X1383Y1060D01*
X1376Y1059D02*
X1384Y1059D01*
X1377Y1058D02*
X1384Y1058D01*
X1377Y1057D02*
X1385Y1057D01*
X1378Y1056D02*
X1386Y1056D01*
X1378Y1055D02*
X1386Y1055D01*
X1379Y1054D02*
X1387Y1054D01*
X1379Y1053D02*
X1388Y1053D01*
X1380Y1052D02*
X1388Y1052D01*
X1381Y1051D02*
X1389Y1051D01*
X1381Y1050D02*
X1389Y1050D01*
X1382Y1049D02*
X1390Y1049D01*
X1382Y1048D02*
X1391Y1048D01*
X1383Y1047D02*
X1391Y1047D01*
X1384Y1046D02*
X1392Y1046D01*
X1384Y1045D02*
X1393Y1045D01*
X1385Y1044D02*
X1394Y1044D01*
X1386Y1043D02*
X1394Y1043D01*
X1386Y1042D02*
X1395Y1042D01*
X1387Y1041D02*
X1396Y1041D01*
X1388Y1040D02*
X1396Y1040D01*
X1388Y1039D02*
X1397Y1039D01*
X1389Y1038D02*
X1398Y1038D01*
X1390Y1037D02*
X1399Y1037D01*
X1391Y1036D02*
X1400Y1036D01*
X1391Y1035D02*
X1400Y1035D01*
X1392Y1034D02*
X1401Y1034D01*
X1393Y1033D02*
X1402Y1033D01*
X1394Y1032D02*
X1403Y1032D01*
X1394Y1031D02*
X1403Y1031D01*
X1395Y1030D02*
X1404Y1030D01*
X1396Y1029D02*
X1405Y1029D01*
X1397Y1028D02*
X1406Y1028D01*
X1397Y1027D02*
X1407Y1027D01*
X1398Y1026D02*
X1408Y1026D01*
X1399Y1025D02*
X1409Y1025D01*
X1400Y1024D02*
X1410Y1024D01*
X1401Y1023D02*
X1410Y1023D01*
X1402Y1022D02*
X1411Y1022D01*
X1403Y1021D02*
X1412Y1021D01*
X1403Y1020D02*
X1413Y1020D01*
X1404Y1019D02*
X1414Y1019D01*
X1405Y1018D02*
X1415Y1018D01*
X1406Y1017D02*
X1416Y1017D01*
X1407Y1016D02*
X1417Y1016D01*
X1408Y1015D02*
X1416Y1015D01*
X1409Y1014D02*
X1415Y1014D01*
X1417Y1014D02*
X1418Y1014D01*
X1410Y1013D02*
X1419Y1013D01*
X1411Y1012D02*
X1419Y1012D01*
X1412Y1011D02*
X1419Y1011D01*
X1412Y1010D02*
X1420Y1010D01*
X1412Y1009D02*
X1420Y1009D01*
X1413Y1008D02*
X1420Y1008D01*
X1413Y1007D02*
X1420Y1007D01*
X1413Y1006D02*
X1421Y1006D01*
X1414Y1005D02*
X1421Y1005D01*
X1414Y1004D02*
X1421Y1004D01*
X1414Y1003D02*
X1421Y1003D01*
X1414Y1002D02*
X1421Y1002D01*
X1415Y1001D02*
X1422Y1001D01*
X1415Y1000D02*
X1422Y1000D01*
X1415Y999D02*
X1422Y999D01*
X1415Y998D02*
X1422Y998D01*
X1415Y997D02*
X1422Y997D01*
X1415Y996D02*
X1422Y996D01*
X1416Y995D02*
X1422Y995D01*
X1416Y994D02*
X1422Y994D01*
X1416Y993D02*
X1423Y993D01*
X1416Y992D02*
X1423Y992D01*
X1416Y991D02*
X1423Y991D01*
X1416Y990D02*
X1423Y990D01*
X1416Y989D02*
X1423Y989D01*
X1416Y988D02*
X1423Y988D01*
X1416Y987D02*
X1423Y987D01*
X1416Y986D02*
X1423Y986D01*
X1416Y985D02*
X1423Y985D01*
X1416Y984D02*
X1423Y984D01*
X1416Y983D02*
X1422Y983D01*
X1416Y982D02*
X1422Y982D01*
X1416Y981D02*
X1422Y981D01*
X1416Y980D02*
X1422Y980D01*
X1415Y979D02*
X1422Y979D01*
X1415Y978D02*
X1422Y978D01*
X1415Y977D02*
X1422Y977D01*
X1415Y976D02*
X1422Y976D01*
X1415Y975D02*
X1421Y975D01*
X1414Y974D02*
X1421Y974D01*
X1414Y973D02*
X1421Y973D01*
X1414Y972D02*
X1421Y972D01*
X1414Y971D02*
X1420Y971D01*
X1413Y970D02*
X1420Y970D01*
X1413Y969D02*
X1420Y969D01*
X1413Y968D02*
X1420Y968D01*
X1413Y967D02*
X1419Y967D01*
X1412Y966D02*
X1419Y966D01*
X1412Y965D02*
X1419Y965D01*
X1411Y964D02*
X1418Y964D01*
X1411Y963D02*
X1418Y963D01*
X1411Y962D02*
X1418Y962D01*
X1410Y961D02*
X1417Y961D01*
X1410Y960D02*
X1417Y960D01*
X1409Y959D02*
X1416Y959D01*
X1409Y958D02*
X1416Y958D01*
X1408Y957D02*
X1416Y957D01*
X1408Y956D02*
X1415Y956D01*
X1407Y955D02*
X1415Y955D01*
X1406Y954D02*
X1414Y954D01*
X1406Y953D02*
X1413Y953D01*
X1405Y952D02*
X1413Y952D01*
X1404Y951D02*
X1412Y951D01*
X1404Y950D02*
X1412Y950D01*
X1403Y949D02*
X1411Y949D01*
X1402Y948D02*
X1410Y948D01*
X1401Y947D02*
X1410Y947D01*
X1401Y946D02*
X1409Y946D01*
X1400Y945D02*
X1408Y945D01*
X1399Y944D02*
X1408Y944D01*
X1398Y943D02*
X1407Y943D01*
X1397Y942D02*
X1406Y942D01*
X1396Y941D02*
X1405Y941D01*
X1395Y940D02*
X1404Y940D01*
X1394Y939D02*
X1404Y939D01*
X1393Y938D02*
X1403Y938D01*
X1391Y937D02*
X1402Y937D01*
X1390Y936D02*
X1401Y936D01*
X1389Y935D02*
X1400Y935D01*
X1387Y934D02*
X1399Y934D01*
X1386Y933D02*
X1398Y933D01*
X1384Y932D02*
X1396Y932D01*
X1382Y931D02*
X1395Y931D01*
X1380Y930D02*
X1394Y930D01*
X1378Y929D02*
X1393Y929D01*
X1376Y928D02*
X1391Y928D01*
X1074Y927D02*
X1390Y927D01*
X1072Y926D02*
X1388Y926D01*
X1072Y925D02*
X1387Y925D01*
X1071Y924D02*
X1385Y924D01*
X1071Y923D02*
X1383Y923D01*
X1071Y922D02*
X1381Y922D01*
X1072Y921D02*
X1379Y921D01*
X1073Y920D02*
X1137Y920D01*
X1273Y920D02*
X1377Y920D01*
X1370Y806D02*
X1381Y806D01*
X1393Y806D02*
X1403Y806D01*
X1370Y805D02*
X1381Y805D01*
X1392Y805D02*
X1405Y805D01*
X1370Y804D02*
X1381Y804D01*
X1392Y804D02*
X1406Y804D01*
X1370Y803D02*
X1381Y803D01*
X1392Y803D02*
X1406Y803D01*
X1370Y802D02*
X1373Y802D01*
X1403Y802D02*
X1407Y802D01*
X1370Y801D02*
X1373Y801D01*
X1404Y801D02*
X1407Y801D01*
X1370Y800D02*
X1373Y800D01*
X1404Y800D02*
X1408Y800D01*
X1370Y799D02*
X1373Y799D01*
X1405Y799D02*
X1408Y799D01*
X1370Y798D02*
X1373Y798D01*
X1405Y798D02*
X1409Y798D01*
X1370Y797D02*
X1373Y797D01*
X1406Y797D02*
X1409Y797D01*
X1370Y796D02*
X1373Y796D01*
X1406Y796D02*
X1410Y796D01*
X1370Y795D02*
X1373Y795D01*
X1407Y795D02*
X1410Y795D01*
X1370Y794D02*
X1373Y794D01*
X1407Y794D02*
X1411Y794D01*
X1370Y793D02*
X1373Y793D01*
X1408Y793D02*
X1411Y793D01*
X1370Y792D02*
X1373Y792D01*
X1408Y792D02*
X1411Y792D01*
X1370Y791D02*
X1373Y791D01*
X1408Y791D02*
X1412Y791D01*
X1370Y790D02*
X1373Y790D01*
X1408Y790D02*
X1412Y790D01*
X1370Y789D02*
X1373Y789D01*
X1408Y789D02*
X1411Y789D01*
X1362Y788D02*
X1364Y788D01*
X1370Y788D02*
X1373Y788D01*
X1408Y788D02*
X1411Y788D01*
X1362Y787D02*
X1365Y787D01*
X1370Y787D02*
X1373Y787D01*
X1407Y787D02*
X1411Y787D01*
X1362Y786D02*
X1365Y786D01*
X1370Y786D02*
X1373Y786D01*
X1407Y786D02*
X1411Y786D01*
X1362Y785D02*
X1365Y785D01*
X1370Y785D02*
X1373Y785D01*
X1406Y785D02*
X1410Y785D01*
X1362Y784D02*
X1365Y784D01*
X1370Y784D02*
X1373Y784D01*
X1406Y784D02*
X1410Y784D01*
X1362Y783D02*
X1365Y783D01*
X1370Y783D02*
X1373Y783D01*
X1405Y783D02*
X1409Y783D01*
X1362Y782D02*
X1365Y782D01*
X1370Y782D02*
X1373Y782D01*
X1405Y782D02*
X1409Y782D01*
X1362Y781D02*
X1365Y781D01*
X1370Y781D02*
X1373Y781D01*
X1404Y781D02*
X1408Y781D01*
X1362Y780D02*
X1365Y780D01*
X1370Y780D02*
X1373Y780D01*
X1404Y780D02*
X1408Y780D01*
X1362Y779D02*
X1365Y779D01*
X1370Y779D02*
X1373Y779D01*
X1403Y779D02*
X1407Y779D01*
X1362Y778D02*
X1380Y778D01*
X1393Y778D02*
X1407Y778D01*
X1362Y777D02*
X1381Y777D01*
X1392Y777D02*
X1406Y777D01*
X1362Y776D02*
X1381Y776D01*
X1392Y776D02*
X1405Y776D01*
X1362Y775D02*
X1381Y775D01*
X1392Y775D02*
X1404Y775D01*
X1363Y774D02*
X1380Y774D01*
X1393Y774D02*
X1402Y774D01*
X1327Y770D02*
X1456Y770D01*
X1327Y769D02*
X1456Y769D01*
X1327Y768D02*
X1456Y768D01*
X1327Y767D02*
X1329Y767D01*
X1387Y767D02*
X1396Y767D01*
X1454Y767D02*
X1456Y767D01*
X1327Y766D02*
X1329Y766D01*
X1454Y766D02*
X1456Y766D01*
X1327Y765D02*
X1329Y765D01*
X1454Y765D02*
X1456Y765D01*
X1327Y764D02*
X1329Y764D01*
X1454Y764D02*
X1456Y764D01*
X1327Y763D02*
X1329Y763D01*
X1454Y763D02*
X1456Y763D01*
X1327Y762D02*
X1329Y762D01*
X1454Y762D02*
X1456Y762D01*
X1327Y761D02*
X1329Y761D01*
X1454Y761D02*
X1456Y761D01*
X1327Y760D02*
X1329Y760D01*
X1454Y760D02*
X1456Y760D01*
X1327Y759D02*
X1329Y759D01*
X1454Y759D02*
X1456Y759D01*
X1327Y758D02*
X1329Y758D01*
X1454Y758D02*
X1456Y758D01*
X1327Y757D02*
X1329Y757D01*
X1454Y757D02*
X1456Y757D01*
X1327Y756D02*
X1329Y756D01*
X1454Y756D02*
X1456Y756D01*
X1327Y755D02*
X1329Y755D01*
X1454Y755D02*
X1456Y755D01*
X1327Y754D02*
X1329Y754D01*
X1454Y754D02*
X1456Y754D01*
X1095Y753D02*
X1097Y753D01*
X1327Y753D02*
X1329Y753D01*
X1454Y753D02*
X1456Y753D01*
X1093Y752D02*
X1099Y752D01*
X1327Y752D02*
X1329Y752D01*
X1454Y752D02*
X1456Y752D01*
X1092Y751D02*
X1100Y751D01*
X1327Y751D02*
X1329Y751D01*
X1454Y751D02*
X1456Y751D01*
X1091Y750D02*
X1100Y750D01*
X1327Y750D02*
X1329Y750D01*
X1454Y750D02*
X1456Y750D01*
X1091Y749D02*
X1101Y749D01*
X1327Y749D02*
X1329Y749D01*
X1454Y749D02*
X1456Y749D01*
X1091Y748D02*
X1101Y748D01*
X1327Y748D02*
X1329Y748D01*
X1454Y748D02*
X1456Y748D01*
X1091Y747D02*
X1101Y747D01*
X1327Y747D02*
X1329Y747D01*
X1454Y747D02*
X1456Y747D01*
X1091Y746D02*
X1101Y746D01*
X1327Y746D02*
X1329Y746D01*
X1454Y746D02*
X1456Y746D01*
X1091Y745D02*
X1101Y745D01*
X1327Y745D02*
X1329Y745D01*
X1454Y745D02*
X1456Y745D01*
X1091Y744D02*
X1101Y744D01*
X1327Y744D02*
X1329Y744D01*
X1454Y744D02*
X1456Y744D01*
X1091Y743D02*
X1101Y743D01*
X1327Y743D02*
X1329Y743D01*
X1454Y743D02*
X1456Y743D01*
X1091Y742D02*
X1101Y742D01*
X1327Y742D02*
X1329Y742D01*
X1454Y742D02*
X1456Y742D01*
X1091Y741D02*
X1101Y741D01*
X1327Y741D02*
X1329Y741D01*
X1454Y741D02*
X1456Y741D01*
X1091Y740D02*
X1101Y740D01*
X1327Y740D02*
X1329Y740D01*
X1454Y740D02*
X1456Y740D01*
X1091Y739D02*
X1101Y739D01*
X1327Y739D02*
X1329Y739D01*
X1454Y739D02*
X1456Y739D01*
X1091Y738D02*
X1101Y738D01*
X1327Y738D02*
X1329Y738D01*
X1454Y738D02*
X1456Y738D01*
X1091Y737D02*
X1101Y737D01*
X1327Y737D02*
X1329Y737D01*
X1454Y737D02*
X1456Y737D01*
X1091Y736D02*
X1101Y736D01*
X1327Y736D02*
X1329Y736D01*
X1454Y736D02*
X1456Y736D01*
X1091Y735D02*
X1101Y735D01*
X1327Y735D02*
X1329Y735D01*
X1454Y735D02*
X1456Y735D01*
X1091Y734D02*
X1101Y734D01*
X1327Y734D02*
X1329Y734D01*
X1454Y734D02*
X1456Y734D01*
X1091Y733D02*
X1101Y733D01*
X1327Y733D02*
X1329Y733D01*
X1454Y733D02*
X1456Y733D01*
X1074Y732D02*
X1118Y732D01*
X1327Y732D02*
X1329Y732D01*
X1454Y732D02*
X1456Y732D01*
X1072Y731D02*
X1120Y731D01*
X1327Y731D02*
X1329Y731D01*
X1454Y731D02*
X1456Y731D01*
X1071Y730D02*
X1121Y730D01*
X1327Y730D02*
X1329Y730D01*
X1454Y730D02*
X1456Y730D01*
X1070Y729D02*
X1121Y729D01*
X1327Y729D02*
X1329Y729D01*
X1454Y729D02*
X1456Y729D01*
X1070Y728D02*
X1122Y728D01*
X1327Y728D02*
X1329Y728D01*
X1454Y728D02*
X1456Y728D01*
X1070Y727D02*
X1122Y727D01*
X1327Y727D02*
X1329Y727D01*
X1454Y727D02*
X1456Y727D01*
X1070Y726D02*
X1122Y726D01*
X1327Y726D02*
X1329Y726D01*
X1454Y726D02*
X1456Y726D01*
X1070Y725D02*
X1121Y725D01*
X1327Y725D02*
X1329Y725D01*
X1454Y725D02*
X1456Y725D01*
X1071Y724D02*
X1121Y724D01*
X1327Y724D02*
X1329Y724D01*
X1454Y724D02*
X1456Y724D01*
X1072Y723D02*
X1120Y723D01*
X1327Y723D02*
X1329Y723D01*
X1454Y723D02*
X1456Y723D01*
X1073Y722D02*
X1119Y722D01*
X1327Y722D02*
X1329Y722D01*
X1454Y722D02*
X1456Y722D01*
X1091Y721D02*
X1101Y721D01*
X1327Y721D02*
X1329Y721D01*
X1454Y721D02*
X1456Y721D01*
X1091Y720D02*
X1101Y720D01*
X1327Y720D02*
X1329Y720D01*
X1454Y720D02*
X1456Y720D01*
X1091Y719D02*
X1101Y719D01*
X1327Y719D02*
X1329Y719D01*
X1454Y719D02*
X1456Y719D01*
X1091Y718D02*
X1101Y718D01*
X1327Y718D02*
X1329Y718D01*
X1454Y718D02*
X1456Y718D01*
X1091Y717D02*
X1101Y717D01*
X1327Y717D02*
X1329Y717D01*
X1454Y717D02*
X1456Y717D01*
X1091Y716D02*
X1101Y716D01*
X1327Y716D02*
X1329Y716D01*
X1454Y716D02*
X1456Y716D01*
X1091Y715D02*
X1101Y715D01*
X1327Y715D02*
X1329Y715D01*
X1387Y715D02*
X1396Y715D01*
X1454Y715D02*
X1456Y715D01*
X1091Y714D02*
X1101Y714D01*
X1327Y714D02*
X1456Y714D01*
X1091Y713D02*
X1101Y713D01*
X1327Y713D02*
X1456Y713D01*
X1091Y712D02*
X1101Y712D01*
X1327Y712D02*
X1456Y712D01*
X1091Y711D02*
X1101Y711D01*
X1091Y710D02*
X1101Y710D01*
X1091Y709D02*
X1101Y709D01*
X1091Y708D02*
X1101Y708D01*
X1091Y707D02*
X1101Y707D01*
X1091Y706D02*
X1101Y706D01*
X1091Y705D02*
X1101Y705D01*
X1091Y704D02*
X1100Y704D01*
X1092Y703D02*
X1100Y703D01*
X1092Y702D02*
X1099Y702D01*
X1094Y701D02*
X1098Y701D01*
X1327Y676D02*
X1456Y676D01*
X1327Y675D02*
X1456Y675D01*
X1327Y674D02*
X1456Y674D01*
X1327Y673D02*
X1329Y673D01*
X1387Y673D02*
X1396Y673D01*
X1454Y673D02*
X1456Y673D01*
X1327Y672D02*
X1329Y672D01*
X1454Y672D02*
X1456Y672D01*
X1327Y671D02*
X1329Y671D01*
X1454Y671D02*
X1456Y671D01*
X1327Y670D02*
X1329Y670D01*
X1454Y670D02*
X1456Y670D01*
X1327Y669D02*
X1329Y669D01*
X1454Y669D02*
X1456Y669D01*
X1327Y668D02*
X1329Y668D01*
X1454Y668D02*
X1456Y668D01*
X1327Y667D02*
X1329Y667D01*
X1454Y667D02*
X1456Y667D01*
X1327Y666D02*
X1329Y666D01*
X1454Y666D02*
X1456Y666D01*
X1327Y665D02*
X1329Y665D01*
X1454Y665D02*
X1456Y665D01*
X1327Y664D02*
X1329Y664D01*
X1454Y664D02*
X1456Y664D01*
X1327Y663D02*
X1329Y663D01*
X1454Y663D02*
X1456Y663D01*
X1327Y662D02*
X1329Y662D01*
X1454Y662D02*
X1456Y662D01*
X1327Y661D02*
X1329Y661D01*
X1454Y661D02*
X1456Y661D01*
X1327Y660D02*
X1329Y660D01*
X1454Y660D02*
X1456Y660D01*
X1327Y659D02*
X1329Y659D01*
X1454Y659D02*
X1456Y659D01*
X1327Y658D02*
X1329Y658D01*
X1454Y658D02*
X1456Y658D01*
X1327Y657D02*
X1329Y657D01*
X1454Y657D02*
X1456Y657D01*
X1327Y656D02*
X1329Y656D01*
X1454Y656D02*
X1456Y656D01*
X1327Y655D02*
X1329Y655D01*
X1454Y655D02*
X1456Y655D01*
X1327Y654D02*
X1329Y654D01*
X1454Y654D02*
X1456Y654D01*
X1327Y653D02*
X1329Y653D01*
X1454Y653D02*
X1456Y653D01*
X1327Y652D02*
X1329Y652D01*
X1454Y652D02*
X1456Y652D01*
X1327Y651D02*
X1329Y651D01*
X1454Y651D02*
X1456Y651D01*
X1327Y650D02*
X1329Y650D01*
X1454Y650D02*
X1456Y650D01*
X1327Y649D02*
X1329Y649D01*
X1454Y649D02*
X1456Y649D01*
X1327Y648D02*
X1329Y648D01*
X1454Y648D02*
X1456Y648D01*
X1327Y647D02*
X1329Y647D01*
X1454Y647D02*
X1456Y647D01*
X1327Y646D02*
X1329Y646D01*
X1454Y646D02*
X1456Y646D01*
X1327Y645D02*
X1329Y645D01*
X1454Y645D02*
X1456Y645D01*
X1327Y644D02*
X1329Y644D01*
X1454Y644D02*
X1456Y644D01*
X1327Y643D02*
X1329Y643D01*
X1454Y643D02*
X1456Y643D01*
X1327Y642D02*
X1329Y642D01*
X1454Y642D02*
X1456Y642D01*
X1327Y641D02*
X1329Y641D01*
X1454Y641D02*
X1456Y641D01*
X1327Y640D02*
X1329Y640D01*
X1454Y640D02*
X1456Y640D01*
X1327Y639D02*
X1329Y639D01*
X1454Y639D02*
X1456Y639D01*
X1327Y638D02*
X1329Y638D01*
X1454Y638D02*
X1456Y638D01*
X1327Y637D02*
X1329Y637D01*
X1454Y637D02*
X1456Y637D01*
X1327Y636D02*
X1329Y636D01*
X1454Y636D02*
X1456Y636D01*
X1327Y635D02*
X1329Y635D01*
X1454Y635D02*
X1456Y635D01*
X1327Y634D02*
X1329Y634D01*
X1454Y634D02*
X1456Y634D01*
X1327Y633D02*
X1329Y633D01*
X1454Y633D02*
X1456Y633D01*
X1327Y632D02*
X1329Y632D01*
X1454Y632D02*
X1456Y632D01*
X1327Y631D02*
X1329Y631D01*
X1454Y631D02*
X1456Y631D01*
X1327Y630D02*
X1329Y630D01*
X1454Y630D02*
X1456Y630D01*
X1327Y629D02*
X1329Y629D01*
X1454Y629D02*
X1456Y629D01*
X1327Y628D02*
X1329Y628D01*
X1454Y628D02*
X1456Y628D01*
X1327Y627D02*
X1329Y627D01*
X1454Y627D02*
X1456Y627D01*
X1327Y626D02*
X1329Y626D01*
X1454Y626D02*
X1456Y626D01*
X1327Y625D02*
X1329Y625D01*
X1454Y625D02*
X1456Y625D01*
X1327Y624D02*
X1329Y624D01*
X1454Y624D02*
X1456Y624D01*
X1327Y623D02*
X1329Y623D01*
X1454Y623D02*
X1456Y623D01*
X1327Y622D02*
X1329Y622D01*
X1454Y622D02*
X1456Y622D01*
X1327Y621D02*
X1329Y621D01*
X1387Y621D02*
X1396Y621D01*
X1454Y621D02*
X1456Y621D01*
X1327Y620D02*
X1456Y620D01*
X1327Y619D02*
X1456Y619D01*
X1327Y618D02*
X1456Y618D01*
X1306Y614D02*
X1316Y614D01*
X1332Y614D02*
X1347Y614D01*
X1074Y613D02*
X1120Y613D01*
X1306Y613D02*
X1317Y613D01*
X1330Y613D02*
X1347Y613D01*
X1073Y612D02*
X1121Y612D01*
X1306Y612D02*
X1317Y612D01*
X1329Y612D02*
X1347Y612D01*
X1072Y611D02*
X1122Y611D01*
X1306Y611D02*
X1317Y611D01*
X1328Y611D02*
X1347Y611D01*
X1071Y610D02*
X1123Y610D01*
X1306Y610D02*
X1309Y610D01*
X1328Y610D02*
X1332Y610D01*
X1344Y610D02*
X1347Y610D01*
X1071Y609D02*
X1123Y609D01*
X1306Y609D02*
X1309Y609D01*
X1328Y609D02*
X1331Y609D01*
X1344Y609D02*
X1347Y609D01*
X1071Y608D02*
X1123Y608D01*
X1306Y608D02*
X1309Y608D01*
X1328Y608D02*
X1331Y608D01*
X1344Y608D02*
X1347Y608D01*
X1071Y607D02*
X1123Y607D01*
X1306Y607D02*
X1309Y607D01*
X1328Y607D02*
X1331Y607D01*
X1344Y607D02*
X1347Y607D01*
X1071Y606D02*
X1123Y606D01*
X1306Y606D02*
X1309Y606D01*
X1328Y606D02*
X1331Y606D01*
X1344Y606D02*
X1347Y606D01*
X1071Y605D02*
X1123Y605D01*
X1306Y605D02*
X1309Y605D01*
X1328Y605D02*
X1331Y605D01*
X1344Y605D02*
X1347Y605D01*
X1071Y604D02*
X1123Y604D01*
X1306Y604D02*
X1309Y604D01*
X1328Y604D02*
X1332Y604D01*
X1344Y604D02*
X1347Y604D01*
X1071Y603D02*
X1123Y603D01*
X1306Y603D02*
X1309Y603D01*
X1328Y603D02*
X1347Y603D01*
X1071Y602D02*
X1123Y602D01*
X1306Y602D02*
X1309Y602D01*
X1329Y602D02*
X1347Y602D01*
X1072Y601D02*
X1122Y601D01*
X1306Y601D02*
X1309Y601D01*
X1330Y601D02*
X1347Y601D01*
X1072Y600D02*
X1121Y600D01*
X1306Y600D02*
X1309Y600D01*
X1331Y600D02*
X1347Y600D01*
X1074Y599D02*
X1120Y599D01*
X1306Y599D02*
X1309Y599D01*
X1336Y599D02*
X1340Y599D01*
X1344Y599D02*
X1347Y599D01*
X1306Y598D02*
X1309Y598D01*
X1335Y598D02*
X1339Y598D01*
X1344Y598D02*
X1347Y598D01*
X1306Y597D02*
X1309Y597D01*
X1335Y597D02*
X1339Y597D01*
X1344Y597D02*
X1347Y597D01*
X1298Y596D02*
X1300Y596D01*
X1306Y596D02*
X1309Y596D01*
X1334Y596D02*
X1338Y596D01*
X1344Y596D02*
X1347Y596D01*
X1297Y595D02*
X1301Y595D01*
X1306Y595D02*
X1309Y595D01*
X1334Y595D02*
X1338Y595D01*
X1344Y595D02*
X1347Y595D01*
X1297Y594D02*
X1301Y594D01*
X1306Y594D02*
X1309Y594D01*
X1333Y594D02*
X1337Y594D01*
X1344Y594D02*
X1347Y594D01*
X1297Y593D02*
X1301Y593D01*
X1306Y593D02*
X1309Y593D01*
X1332Y593D02*
X1336Y593D01*
X1344Y593D02*
X1347Y593D01*
X1297Y592D02*
X1301Y592D01*
X1306Y592D02*
X1309Y592D01*
X1332Y592D02*
X1336Y592D01*
X1344Y592D02*
X1347Y592D01*
X1297Y591D02*
X1301Y591D01*
X1306Y591D02*
X1309Y591D01*
X1331Y591D02*
X1335Y591D01*
X1344Y591D02*
X1347Y591D01*
X1297Y590D02*
X1301Y590D01*
X1306Y590D02*
X1309Y590D01*
X1331Y590D02*
X1335Y590D01*
X1344Y590D02*
X1347Y590D01*
X1297Y589D02*
X1301Y589D01*
X1306Y589D02*
X1309Y589D01*
X1330Y589D02*
X1334Y589D01*
X1344Y589D02*
X1347Y589D01*
X1297Y588D02*
X1301Y588D01*
X1306Y588D02*
X1309Y588D01*
X1330Y588D02*
X1333Y588D01*
X1344Y588D02*
X1347Y588D01*
X1297Y587D02*
X1301Y587D01*
X1306Y587D02*
X1309Y587D01*
X1329Y587D02*
X1333Y587D01*
X1344Y587D02*
X1347Y587D01*
X1297Y586D02*
X1315Y586D01*
X1328Y586D02*
X1332Y586D01*
X1344Y586D02*
X1347Y586D01*
X1297Y585D02*
X1317Y585D01*
X1328Y585D02*
X1332Y585D01*
X1344Y585D02*
X1347Y585D01*
X1297Y584D02*
X1317Y584D01*
X1328Y584D02*
X1331Y584D01*
X1344Y584D02*
X1347Y584D01*
X1298Y583D02*
X1317Y583D01*
X1328Y583D02*
X1331Y583D01*
X1344Y583D02*
X1347Y583D01*
X1299Y582D02*
X1316Y582D01*
X1329Y582D02*
X1330Y582D01*
X1345Y582D02*
X1346Y582D01*
X1241Y342D02*
X1299Y342D01*
X1241Y341D02*
X1299Y341D01*
X1241Y340D02*
X1299Y340D01*
X1241Y339D02*
X1243Y339D01*
X1297Y339D02*
X1299Y339D01*
X1241Y338D02*
X1243Y338D01*
X1297Y338D02*
X1299Y338D01*
X1241Y337D02*
X1243Y337D01*
X1297Y337D02*
X1299Y337D01*
X1241Y336D02*
X1243Y336D01*
X1297Y336D02*
X1299Y336D01*
X1241Y335D02*
X1243Y335D01*
X1297Y335D02*
X1299Y335D01*
X1241Y334D02*
X1243Y334D01*
X1297Y334D02*
X1299Y334D01*
X1241Y333D02*
X1243Y333D01*
X1297Y333D02*
X1299Y333D01*
X1241Y332D02*
X1243Y332D01*
X1297Y332D02*
X1299Y332D01*
X1241Y331D02*
X1243Y331D01*
X1297Y331D02*
X1299Y331D01*
X1241Y330D02*
X1243Y330D01*
X1297Y330D02*
X1299Y330D01*
X1241Y329D02*
X1243Y329D01*
X1297Y329D02*
X1299Y329D01*
X1241Y328D02*
X1243Y328D01*
X1297Y328D02*
X1299Y328D01*
X1241Y327D02*
X1243Y327D01*
X1297Y327D02*
X1299Y327D01*
X1241Y326D02*
X1243Y326D01*
X1297Y326D02*
X1299Y326D01*
X1241Y325D02*
X1243Y325D01*
X1297Y325D02*
X1299Y325D01*
X1241Y324D02*
X1243Y324D01*
X1297Y324D02*
X1299Y324D01*
X1241Y323D02*
X1243Y323D01*
X1297Y323D02*
X1299Y323D01*
X1241Y322D02*
X1243Y322D01*
X1297Y322D02*
X1299Y322D01*
X1241Y321D02*
X1243Y321D01*
X1297Y321D02*
X1299Y321D01*
X1241Y320D02*
X1243Y320D01*
X1297Y320D02*
X1299Y320D01*
X1241Y319D02*
X1243Y319D01*
X1297Y319D02*
X1299Y319D01*
X1241Y318D02*
X1243Y318D01*
X1297Y318D02*
X1299Y318D01*
X1241Y317D02*
X1243Y317D01*
X1297Y317D02*
X1299Y317D01*
X1241Y316D02*
X1243Y316D01*
X1297Y316D02*
X1299Y316D01*
X1241Y315D02*
X1243Y315D01*
X1297Y315D02*
X1299Y315D01*
X1241Y314D02*
X1243Y314D01*
X1297Y314D02*
X1299Y314D01*
X1241Y313D02*
X1243Y313D01*
X1297Y313D02*
X1299Y313D01*
X1241Y312D02*
X1243Y312D01*
X1297Y312D02*
X1299Y312D01*
X1241Y311D02*
X1243Y311D01*
X1297Y311D02*
X1299Y311D01*
X1241Y310D02*
X1243Y310D01*
X1297Y310D02*
X1299Y310D01*
X1241Y309D02*
X1243Y309D01*
X1297Y309D02*
X1299Y309D01*
X1241Y308D02*
X1243Y308D01*
X1297Y308D02*
X1299Y308D01*
X1241Y307D02*
X1243Y307D01*
X1297Y307D02*
X1299Y307D01*
X1241Y306D02*
X1243Y306D01*
X1297Y306D02*
X1299Y306D01*
X1241Y305D02*
X1243Y305D01*
X1297Y305D02*
X1299Y305D01*
X1241Y304D02*
X1243Y304D01*
X1297Y304D02*
X1299Y304D01*
X1241Y303D02*
X1243Y303D01*
X1297Y303D02*
X1299Y303D01*
X1241Y302D02*
X1243Y302D01*
X1297Y302D02*
X1299Y302D01*
X1241Y301D02*
X1243Y301D01*
X1297Y301D02*
X1299Y301D01*
X1241Y300D02*
X1243Y300D01*
X1297Y300D02*
X1299Y300D01*
X1241Y299D02*
X1243Y299D01*
X1297Y299D02*
X1299Y299D01*
X1241Y298D02*
X1243Y298D01*
X1297Y298D02*
X1299Y298D01*
X1241Y297D02*
X1243Y297D01*
X1297Y297D02*
X1299Y297D01*
X1241Y296D02*
X1243Y296D01*
X1297Y296D02*
X1299Y296D01*
X1241Y295D02*
X1243Y295D01*
X1297Y295D02*
X1299Y295D01*
X1241Y294D02*
X1243Y294D01*
X1297Y294D02*
X1299Y294D01*
X1178Y293D02*
X1195Y293D01*
X1207Y293D02*
X1218Y293D01*
X1241Y293D02*
X1243Y293D01*
X1297Y293D02*
X1299Y293D01*
X1177Y292D02*
X1196Y292D01*
X1206Y292D02*
X1220Y292D01*
X1241Y292D02*
X1243Y292D01*
X1297Y292D02*
X1299Y292D01*
X1176Y291D02*
X1196Y291D01*
X1206Y291D02*
X1220Y291D01*
X1241Y291D02*
X1243Y291D01*
X1297Y291D02*
X1299Y291D01*
X1176Y290D02*
X1195Y290D01*
X1207Y290D02*
X1221Y290D01*
X1241Y290D02*
X1243Y290D01*
X1297Y290D02*
X1299Y290D01*
X1176Y289D02*
X1179Y289D01*
X1218Y289D02*
X1222Y289D01*
X1241Y289D02*
X1243Y289D01*
X1297Y289D02*
X1299Y289D01*
X1176Y288D02*
X1179Y288D01*
X1218Y288D02*
X1222Y288D01*
X1241Y288D02*
X1243Y288D01*
X1297Y288D02*
X1299Y288D01*
X1176Y287D02*
X1179Y287D01*
X1219Y287D02*
X1222Y287D01*
X1241Y287D02*
X1243Y287D01*
X1297Y287D02*
X1299Y287D01*
X1176Y286D02*
X1179Y286D01*
X1219Y286D02*
X1223Y286D01*
X1241Y286D02*
X1243Y286D01*
X1297Y286D02*
X1299Y286D01*
X1176Y285D02*
X1179Y285D01*
X1220Y285D02*
X1223Y285D01*
X1241Y285D02*
X1243Y285D01*
X1297Y285D02*
X1299Y285D01*
X1176Y284D02*
X1179Y284D01*
X1220Y284D02*
X1224Y284D01*
X1241Y284D02*
X1243Y284D01*
X1297Y284D02*
X1299Y284D01*
X1176Y283D02*
X1179Y283D01*
X1221Y283D02*
X1224Y283D01*
X1241Y283D02*
X1243Y283D01*
X1297Y283D02*
X1299Y283D01*
X1176Y282D02*
X1179Y282D01*
X1221Y282D02*
X1225Y282D01*
X1241Y282D02*
X1244Y282D01*
X1296Y282D02*
X1299Y282D01*
X1176Y281D02*
X1179Y281D01*
X1222Y281D02*
X1225Y281D01*
X1241Y281D02*
X1244Y281D01*
X1296Y281D02*
X1299Y281D01*
X1176Y280D02*
X1180Y280D01*
X1222Y280D02*
X1226Y280D01*
X1241Y280D02*
X1244Y280D01*
X1296Y280D02*
X1299Y280D01*
X1176Y279D02*
X1194Y279D01*
X1223Y279D02*
X1226Y279D01*
X1241Y279D02*
X1244Y279D01*
X1296Y279D02*
X1299Y279D01*
X1177Y278D02*
X1195Y278D01*
X1223Y278D02*
X1226Y278D01*
X1241Y278D02*
X1244Y278D01*
X1296Y278D02*
X1299Y278D01*
X1177Y277D02*
X1196Y277D01*
X1223Y277D02*
X1226Y277D01*
X1241Y277D02*
X1244Y277D01*
X1296Y277D02*
X1299Y277D01*
X1179Y276D02*
X1196Y276D01*
X1222Y276D02*
X1226Y276D01*
X1241Y276D02*
X1244Y276D01*
X1296Y276D02*
X1299Y276D01*
X1193Y275D02*
X1196Y275D01*
X1222Y275D02*
X1226Y275D01*
X1241Y275D02*
X1244Y275D01*
X1296Y275D02*
X1299Y275D01*
X1193Y274D02*
X1196Y274D01*
X1222Y274D02*
X1225Y274D01*
X1241Y274D02*
X1244Y274D01*
X1296Y274D02*
X1299Y274D01*
X1193Y273D02*
X1196Y273D01*
X1221Y273D02*
X1225Y273D01*
X1241Y273D02*
X1244Y273D01*
X1296Y273D02*
X1299Y273D01*
X1193Y272D02*
X1196Y272D01*
X1221Y272D02*
X1224Y272D01*
X1241Y272D02*
X1243Y272D01*
X1297Y272D02*
X1299Y272D01*
X1193Y271D02*
X1196Y271D01*
X1220Y271D02*
X1224Y271D01*
X1241Y271D02*
X1243Y271D01*
X1297Y271D02*
X1299Y271D01*
X1193Y270D02*
X1196Y270D01*
X1220Y270D02*
X1223Y270D01*
X1241Y270D02*
X1243Y270D01*
X1297Y270D02*
X1299Y270D01*
X1193Y269D02*
X1196Y269D01*
X1219Y269D02*
X1223Y269D01*
X1241Y269D02*
X1243Y269D01*
X1297Y269D02*
X1299Y269D01*
X1193Y268D02*
X1196Y268D01*
X1219Y268D02*
X1222Y268D01*
X1241Y268D02*
X1243Y268D01*
X1297Y268D02*
X1299Y268D01*
X1193Y267D02*
X1196Y267D01*
X1218Y267D02*
X1222Y267D01*
X1241Y267D02*
X1243Y267D01*
X1297Y267D02*
X1299Y267D01*
X1193Y266D02*
X1196Y266D01*
X1217Y266D02*
X1221Y266D01*
X1241Y266D02*
X1243Y266D01*
X1297Y266D02*
X1299Y266D01*
X1177Y265D02*
X1196Y265D01*
X1207Y265D02*
X1221Y265D01*
X1241Y265D02*
X1243Y265D01*
X1297Y265D02*
X1299Y265D01*
X1176Y264D02*
X1196Y264D01*
X1206Y264D02*
X1220Y264D01*
X1241Y264D02*
X1243Y264D01*
X1297Y264D02*
X1299Y264D01*
X1176Y263D02*
X1196Y263D01*
X1206Y263D02*
X1219Y263D01*
X1241Y263D02*
X1243Y263D01*
X1297Y263D02*
X1299Y263D01*
X1177Y262D02*
X1196Y262D01*
X1207Y262D02*
X1218Y262D01*
X1241Y262D02*
X1243Y262D01*
X1297Y262D02*
X1299Y262D01*
X1241Y261D02*
X1243Y261D01*
X1297Y261D02*
X1299Y261D01*
X1241Y260D02*
X1243Y260D01*
X1297Y260D02*
X1299Y260D01*
X1241Y259D02*
X1243Y259D01*
X1297Y259D02*
X1299Y259D01*
X1241Y258D02*
X1243Y258D01*
X1297Y258D02*
X1299Y258D01*
X1241Y257D02*
X1243Y257D01*
X1297Y257D02*
X1299Y257D01*
X1241Y256D02*
X1243Y256D01*
X1297Y256D02*
X1299Y256D01*
X1241Y255D02*
X1243Y255D01*
X1297Y255D02*
X1299Y255D01*
X1241Y254D02*
X1243Y254D01*
X1297Y254D02*
X1299Y254D01*
X1241Y253D02*
X1243Y253D01*
X1297Y253D02*
X1299Y253D01*
X1241Y252D02*
X1243Y252D01*
X1297Y252D02*
X1299Y252D01*
X1241Y251D02*
X1243Y251D01*
X1297Y251D02*
X1299Y251D01*
X1241Y250D02*
X1243Y250D01*
X1297Y250D02*
X1299Y250D01*
X1241Y249D02*
X1243Y249D01*
X1297Y249D02*
X1299Y249D01*
X1241Y248D02*
X1243Y248D01*
X1297Y248D02*
X1299Y248D01*
X1241Y247D02*
X1243Y247D01*
X1297Y247D02*
X1299Y247D01*
X1241Y246D02*
X1243Y246D01*
X1297Y246D02*
X1299Y246D01*
X1241Y245D02*
X1243Y245D01*
X1297Y245D02*
X1299Y245D01*
X1241Y244D02*
X1243Y244D01*
X1297Y244D02*
X1299Y244D01*
X1241Y243D02*
X1243Y243D01*
X1297Y243D02*
X1299Y243D01*
X1241Y242D02*
X1243Y242D01*
X1297Y242D02*
X1299Y242D01*
X1241Y241D02*
X1243Y241D01*
X1297Y241D02*
X1299Y241D01*
X1241Y240D02*
X1243Y240D01*
X1297Y240D02*
X1299Y240D01*
X1241Y239D02*
X1243Y239D01*
X1297Y239D02*
X1299Y239D01*
X1241Y238D02*
X1243Y238D01*
X1297Y238D02*
X1299Y238D01*
X1241Y237D02*
X1243Y237D01*
X1297Y237D02*
X1299Y237D01*
X1241Y236D02*
X1243Y236D01*
X1297Y236D02*
X1299Y236D01*
X1241Y235D02*
X1243Y235D01*
X1297Y235D02*
X1299Y235D01*
X1241Y234D02*
X1243Y234D01*
X1297Y234D02*
X1299Y234D01*
X1241Y233D02*
X1243Y233D01*
X1297Y233D02*
X1299Y233D01*
X1241Y232D02*
X1243Y232D01*
X1297Y232D02*
X1299Y232D01*
X1241Y231D02*
X1243Y231D01*
X1297Y231D02*
X1299Y231D01*
X1241Y230D02*
X1243Y230D01*
X1297Y230D02*
X1299Y230D01*
X1241Y229D02*
X1243Y229D01*
X1297Y229D02*
X1299Y229D01*
X1241Y228D02*
X1243Y228D01*
X1297Y228D02*
X1299Y228D01*
X1241Y227D02*
X1243Y227D01*
X1297Y227D02*
X1299Y227D01*
X1241Y226D02*
X1243Y226D01*
X1297Y226D02*
X1299Y226D01*
X1241Y225D02*
X1243Y225D01*
X1297Y225D02*
X1299Y225D01*
X1241Y224D02*
X1243Y224D01*
X1297Y224D02*
X1299Y224D01*
X1241Y223D02*
X1243Y223D01*
X1297Y223D02*
X1299Y223D01*
X1241Y222D02*
X1243Y222D01*
X1297Y222D02*
X1299Y222D01*
X1241Y221D02*
X1243Y221D01*
X1297Y221D02*
X1299Y221D01*
X1241Y220D02*
X1243Y220D01*
X1297Y220D02*
X1299Y220D01*
X1241Y219D02*
X1243Y219D01*
X1297Y219D02*
X1299Y219D01*
X1241Y218D02*
X1243Y218D01*
X1297Y218D02*
X1299Y218D01*
X1241Y217D02*
X1243Y217D01*
X1297Y217D02*
X1299Y217D01*
X1241Y216D02*
X1243Y216D01*
X1297Y216D02*
X1299Y216D01*
X1241Y215D02*
X1299Y215D01*
X1375Y215D02*
X1377Y215D01*
X1241Y214D02*
X1299Y214D01*
X1375Y214D02*
X1380Y214D01*
X1241Y213D02*
X1299Y213D01*
X1375Y213D02*
X1382Y213D01*
X1241Y212D02*
X1250Y212D01*
X1292Y212D02*
X1293Y212D01*
X1332Y212D02*
X1333Y212D01*
X1375Y212D02*
X1384Y212D01*
X1240Y211D02*
X1250Y211D01*
X1291Y211D02*
X1293Y211D01*
X1331Y211D02*
X1333Y211D01*
X1375Y211D02*
X1385Y211D01*
X1238Y210D02*
X1250Y210D01*
X1291Y210D02*
X1294Y210D01*
X1331Y210D02*
X1333Y210D01*
X1375Y210D02*
X1386Y210D01*
X1238Y209D02*
X1247Y209D01*
X1292Y209D02*
X1294Y209D01*
X1331Y209D02*
X1333Y209D01*
X1375Y209D02*
X1376Y209D01*
X1378Y209D02*
X1387Y209D01*
X1237Y208D02*
X1244Y208D01*
X1292Y208D02*
X1294Y208D01*
X1331Y208D02*
X1333Y208D01*
X1375Y208D02*
X1376Y208D01*
X1381Y208D02*
X1388Y208D01*
X1236Y207D02*
X1243Y207D01*
X1292Y207D02*
X1294Y207D01*
X1331Y207D02*
X1333Y207D01*
X1375Y207D02*
X1376Y207D01*
X1382Y207D02*
X1389Y207D01*
X1235Y206D02*
X1241Y206D01*
X1292Y206D02*
X1294Y206D01*
X1330Y206D02*
X1332Y206D01*
X1375Y206D02*
X1376Y206D01*
X1383Y206D02*
X1389Y206D01*
X1237Y205D02*
X1240Y205D01*
X1293Y205D02*
X1295Y205D01*
X1330Y205D02*
X1332Y205D01*
X1375Y205D02*
X1376Y205D01*
X1384Y205D02*
X1390Y205D01*
X1237Y204D02*
X1240Y204D01*
X1293Y204D02*
X1295Y204D01*
X1330Y204D02*
X1332Y204D01*
X1375Y204D02*
X1376Y204D01*
X1385Y204D02*
X1390Y204D01*
X1237Y203D02*
X1239Y203D01*
X1294Y203D02*
X1296Y203D01*
X1329Y203D02*
X1331Y203D01*
X1375Y203D02*
X1376Y203D01*
X1386Y203D02*
X1391Y203D01*
X1237Y202D02*
X1239Y202D01*
X1294Y202D02*
X1296Y202D01*
X1328Y202D02*
X1331Y202D01*
X1375Y202D02*
X1376Y202D01*
X1386Y202D02*
X1391Y202D01*
X1237Y201D02*
X1238Y201D01*
X1295Y201D02*
X1297Y201D01*
X1328Y201D02*
X1330Y201D01*
X1375Y201D02*
X1376Y201D01*
X1386Y201D02*
X1391Y201D01*
X1237Y200D02*
X1238Y200D01*
X1295Y200D02*
X1298Y200D01*
X1327Y200D02*
X1329Y200D01*
X1375Y200D02*
X1376Y200D01*
X1387Y200D02*
X1392Y200D01*
X1237Y199D02*
X1238Y199D01*
X1296Y199D02*
X1299Y199D01*
X1326Y199D02*
X1329Y199D01*
X1375Y199D02*
X1376Y199D01*
X1387Y199D02*
X1392Y199D01*
X1237Y198D02*
X1238Y198D01*
X1297Y198D02*
X1300Y198D01*
X1325Y198D02*
X1328Y198D01*
X1356Y198D02*
X1362Y198D01*
X1375Y198D02*
X1376Y198D01*
X1387Y198D02*
X1392Y198D01*
X1237Y197D02*
X1238Y197D01*
X1298Y197D02*
X1301Y197D01*
X1323Y197D02*
X1327Y197D01*
X1354Y197D02*
X1364Y197D01*
X1375Y197D02*
X1376Y197D01*
X1237Y196D02*
X1238Y196D01*
X1299Y196D02*
X1303Y196D01*
X1322Y196D02*
X1326Y196D01*
X1352Y196D02*
X1366Y196D01*
X1375Y196D02*
X1376Y196D01*
X1237Y195D02*
X1238Y195D01*
X1300Y195D02*
X1305Y195D01*
X1320Y195D02*
X1325Y195D01*
X1351Y195D02*
X1367Y195D01*
X1375Y195D02*
X1376Y195D01*
X1237Y194D02*
X1238Y194D01*
X1302Y194D02*
X1309Y194D01*
X1316Y194D02*
X1323Y194D01*
X1350Y194D02*
X1367Y194D01*
X1375Y194D02*
X1376Y194D01*
X1237Y193D02*
X1238Y193D01*
X1303Y193D02*
X1321Y193D01*
X1350Y193D02*
X1368Y193D01*
X1375Y193D02*
X1376Y193D01*
X1237Y192D02*
X1238Y192D01*
X1306Y192D02*
X1319Y192D01*
X1349Y192D02*
X1369Y192D01*
X1375Y192D02*
X1376Y192D01*
X1237Y191D02*
X1238Y191D01*
X1310Y191D02*
X1315Y191D01*
X1349Y191D02*
X1369Y191D01*
X1375Y191D02*
X1376Y191D01*
X1237Y190D02*
X1238Y190D01*
X1348Y190D02*
X1369Y190D01*
X1375Y190D02*
X1376Y190D01*
X1237Y189D02*
X1238Y189D01*
X1348Y189D02*
X1369Y189D01*
X1375Y189D02*
X1376Y189D01*
X1237Y188D02*
X1238Y188D01*
X1348Y188D02*
X1370Y188D01*
X1375Y188D02*
X1376Y188D01*
X1237Y187D02*
X1238Y187D01*
X1348Y187D02*
X1370Y187D01*
X1375Y187D02*
X1376Y187D01*
X1237Y186D02*
X1238Y186D01*
X1348Y186D02*
X1369Y186D01*
X1375Y186D02*
X1376Y186D01*
X1237Y185D02*
X1238Y185D01*
X1348Y185D02*
X1369Y185D01*
X1375Y185D02*
X1376Y185D01*
X1237Y184D02*
X1238Y184D01*
X1349Y184D02*
X1369Y184D01*
X1375Y184D02*
X1376Y184D01*
X1237Y183D02*
X1238Y183D01*
X1300Y183D02*
X1301Y183D01*
X1328Y183D02*
X1329Y183D01*
X1349Y183D02*
X1369Y183D01*
X1375Y183D02*
X1376Y183D01*
X1237Y182D02*
X1238Y182D01*
X1299Y182D02*
X1302Y182D01*
X1327Y182D02*
X1330Y182D01*
X1349Y182D02*
X1368Y182D01*
X1375Y182D02*
X1376Y182D01*
X1237Y181D02*
X1238Y181D01*
X1299Y181D02*
X1302Y181D01*
X1327Y181D02*
X1330Y181D01*
X1350Y181D02*
X1368Y181D01*
X1375Y181D02*
X1376Y181D01*
X1237Y180D02*
X1238Y180D01*
X1299Y180D02*
X1302Y180D01*
X1327Y180D02*
X1330Y180D01*
X1351Y180D02*
X1367Y180D01*
X1375Y180D02*
X1376Y180D01*
X1237Y179D02*
X1238Y179D01*
X1299Y179D02*
X1330Y179D01*
X1352Y179D02*
X1366Y179D01*
X1375Y179D02*
X1376Y179D01*
X1237Y178D02*
X1238Y178D01*
X1299Y178D02*
X1330Y178D01*
X1353Y178D02*
X1364Y178D01*
X1375Y178D02*
X1376Y178D01*
X1237Y177D02*
X1238Y177D01*
X1299Y177D02*
X1330Y177D01*
X1355Y177D02*
X1363Y177D01*
X1375Y177D02*
X1376Y177D01*
X1237Y176D02*
X1238Y176D01*
X1299Y176D02*
X1330Y176D01*
X1375Y176D02*
X1376Y176D01*
X1237Y175D02*
X1238Y175D01*
X1299Y175D02*
X1302Y175D01*
X1327Y175D02*
X1330Y175D01*
X1375Y175D02*
X1376Y175D01*
X1237Y174D02*
X1238Y174D01*
X1299Y174D02*
X1302Y174D01*
X1327Y174D02*
X1330Y174D01*
X1375Y174D02*
X1376Y174D01*
X1237Y173D02*
X1238Y173D01*
X1299Y173D02*
X1302Y173D01*
X1327Y173D02*
X1330Y173D01*
X1375Y173D02*
X1376Y173D01*
X1237Y172D02*
X1238Y172D01*
X1299Y172D02*
X1303Y172D01*
X1326Y172D02*
X1330Y172D01*
X1375Y172D02*
X1376Y172D01*
X1237Y171D02*
X1238Y171D01*
X1299Y171D02*
X1305Y171D01*
X1324Y171D02*
X1330Y171D01*
X1375Y171D02*
X1376Y171D01*
X1237Y170D02*
X1238Y170D01*
X1300Y170D02*
X1307Y170D01*
X1322Y170D02*
X1329Y170D01*
X1375Y170D02*
X1376Y170D01*
X1233Y169D02*
X1238Y169D01*
X1301Y169D02*
X1309Y169D01*
X1320Y169D02*
X1328Y169D01*
X1375Y169D02*
X1376Y169D01*
X1233Y168D02*
X1238Y168D01*
X1302Y168D02*
X1311Y168D01*
X1318Y168D02*
X1327Y168D01*
X1375Y168D02*
X1376Y168D01*
X1233Y167D02*
X1238Y167D01*
X1304Y167D02*
X1313Y167D01*
X1316Y167D02*
X1325Y167D01*
X1375Y167D02*
X1376Y167D01*
X1233Y166D02*
X1238Y166D01*
X1306Y166D02*
X1323Y166D01*
X1375Y166D02*
X1376Y166D01*
X1233Y165D02*
X1238Y165D01*
X1308Y165D02*
X1321Y165D01*
X1375Y165D02*
X1376Y165D01*
X1233Y164D02*
X1238Y164D01*
X1310Y164D02*
X1319Y164D01*
X1375Y164D02*
X1376Y164D01*
X1233Y163D02*
X1238Y163D01*
X1313Y163D02*
X1316Y163D01*
X1375Y163D02*
X1376Y163D01*
X1233Y162D02*
X1238Y162D01*
X1375Y162D02*
X1376Y162D01*
X1233Y161D02*
X1238Y161D01*
X1375Y161D02*
X1376Y161D01*
X1233Y160D02*
X1238Y160D01*
X1375Y160D02*
X1376Y160D01*
X1233Y159D02*
X1238Y159D01*
X1375Y159D02*
X1376Y159D01*
X1233Y158D02*
X1238Y158D01*
X1375Y158D02*
X1376Y158D01*
X1233Y157D02*
X1238Y157D01*
X1375Y157D02*
X1376Y157D01*
X1233Y156D02*
X1238Y156D01*
X1375Y156D02*
X1376Y156D01*
X1237Y155D02*
X1238Y155D01*
X1375Y155D02*
X1376Y155D01*
X1237Y154D02*
X1238Y154D01*
X1375Y154D02*
X1376Y154D01*
X1237Y153D02*
X1238Y153D01*
X1302Y153D02*
X1304Y153D01*
X1325Y153D02*
X1327Y153D01*
X1375Y153D02*
X1376Y153D01*
X1237Y152D02*
X1238Y152D01*
X1300Y152D02*
X1306Y152D01*
X1324Y152D02*
X1328Y152D01*
X1375Y152D02*
X1376Y152D01*
X1237Y151D02*
X1238Y151D01*
X1299Y151D02*
X1307Y151D01*
X1324Y151D02*
X1329Y151D01*
X1375Y151D02*
X1376Y151D01*
X1237Y150D02*
X1238Y150D01*
X1299Y150D02*
X1309Y150D01*
X1324Y150D02*
X1330Y150D01*
X1375Y150D02*
X1376Y150D01*
X1237Y149D02*
X1238Y149D01*
X1299Y149D02*
X1302Y149D01*
X1304Y149D02*
X1310Y149D01*
X1326Y149D02*
X1330Y149D01*
X1375Y149D02*
X1376Y149D01*
X1237Y148D02*
X1238Y148D01*
X1299Y148D02*
X1302Y148D01*
X1305Y148D02*
X1311Y148D01*
X1327Y148D02*
X1330Y148D01*
X1375Y148D02*
X1376Y148D01*
X1237Y147D02*
X1238Y147D01*
X1299Y147D02*
X1302Y147D01*
X1306Y147D02*
X1312Y147D01*
X1327Y147D02*
X1330Y147D01*
X1375Y147D02*
X1376Y147D01*
X1237Y146D02*
X1238Y146D01*
X1299Y146D02*
X1302Y146D01*
X1308Y146D02*
X1314Y146D01*
X1327Y146D02*
X1330Y146D01*
X1375Y146D02*
X1376Y146D01*
X1237Y145D02*
X1238Y145D01*
X1299Y145D02*
X1302Y145D01*
X1309Y145D02*
X1315Y145D01*
X1327Y145D02*
X1330Y145D01*
X1375Y145D02*
X1376Y145D01*
X1237Y144D02*
X1238Y144D01*
X1299Y144D02*
X1302Y144D01*
X1310Y144D02*
X1316Y144D01*
X1327Y144D02*
X1330Y144D01*
X1375Y144D02*
X1376Y144D01*
X1237Y143D02*
X1238Y143D01*
X1299Y143D02*
X1302Y143D01*
X1312Y143D02*
X1318Y143D01*
X1327Y143D02*
X1330Y143D01*
X1375Y143D02*
X1376Y143D01*
X1237Y142D02*
X1238Y142D01*
X1299Y142D02*
X1302Y142D01*
X1313Y142D02*
X1319Y142D01*
X1327Y142D02*
X1330Y142D01*
X1375Y142D02*
X1376Y142D01*
X1237Y141D02*
X1238Y141D01*
X1299Y141D02*
X1302Y141D01*
X1314Y141D02*
X1320Y141D01*
X1327Y141D02*
X1330Y141D01*
X1375Y141D02*
X1376Y141D01*
X1237Y140D02*
X1238Y140D01*
X1299Y140D02*
X1302Y140D01*
X1315Y140D02*
X1321Y140D01*
X1327Y140D02*
X1330Y140D01*
X1375Y140D02*
X1376Y140D01*
X1237Y139D02*
X1238Y139D01*
X1299Y139D02*
X1302Y139D01*
X1317Y139D02*
X1323Y139D01*
X1327Y139D02*
X1330Y139D01*
X1375Y139D02*
X1376Y139D01*
X1237Y138D02*
X1238Y138D01*
X1299Y138D02*
X1302Y138D01*
X1318Y138D02*
X1324Y138D01*
X1327Y138D02*
X1330Y138D01*
X1375Y138D02*
X1376Y138D01*
X1237Y137D02*
X1238Y137D01*
X1299Y137D02*
X1303Y137D01*
X1319Y137D02*
X1325Y137D01*
X1327Y137D02*
X1330Y137D01*
X1375Y137D02*
X1376Y137D01*
X1237Y136D02*
X1238Y136D01*
X1299Y136D02*
X1305Y136D01*
X1321Y136D02*
X1330Y136D01*
X1375Y136D02*
X1376Y136D01*
X1237Y135D02*
X1238Y135D01*
X1300Y135D02*
X1306Y135D01*
X1322Y135D02*
X1330Y135D01*
X1375Y135D02*
X1376Y135D01*
X1237Y134D02*
X1238Y134D01*
X1301Y134D02*
X1305Y134D01*
X1323Y134D02*
X1329Y134D01*
X1375Y134D02*
X1376Y134D01*
X1237Y133D02*
X1238Y133D01*
X1302Y133D02*
X1305Y133D01*
X1325Y133D02*
X1327Y133D01*
X1375Y133D02*
X1376Y133D01*
X1237Y132D02*
X1238Y132D01*
X1375Y132D02*
X1376Y132D01*
X1237Y131D02*
X1238Y131D01*
X1375Y131D02*
X1376Y131D01*
X1237Y130D02*
X1238Y130D01*
X1375Y130D02*
X1376Y130D01*
X1237Y129D02*
X1238Y129D01*
X1375Y129D02*
X1376Y129D01*
X1237Y128D02*
X1238Y128D01*
X1375Y128D02*
X1376Y128D01*
X1237Y127D02*
X1238Y127D01*
X1375Y127D02*
X1376Y127D01*
X1237Y126D02*
X1238Y126D01*
X1375Y126D02*
X1376Y126D01*
X1237Y125D02*
X1238Y125D01*
X1375Y125D02*
X1376Y125D01*
X1237Y124D02*
X1238Y124D01*
X1375Y124D02*
X1376Y124D01*
X1237Y123D02*
X1238Y123D01*
X1300Y123D02*
X1301Y123D01*
X1328Y123D02*
X1329Y123D01*
X1375Y123D02*
X1376Y123D01*
X1237Y122D02*
X1238Y122D01*
X1299Y122D02*
X1302Y122D01*
X1327Y122D02*
X1330Y122D01*
X1375Y122D02*
X1376Y122D01*
X1237Y121D02*
X1238Y121D01*
X1299Y121D02*
X1302Y121D01*
X1327Y121D02*
X1330Y121D01*
X1375Y121D02*
X1376Y121D01*
X1237Y120D02*
X1238Y120D01*
X1299Y120D02*
X1302Y120D01*
X1327Y120D02*
X1330Y120D01*
X1375Y120D02*
X1376Y120D01*
X1233Y119D02*
X1238Y119D01*
X1299Y119D02*
X1302Y119D01*
X1327Y119D02*
X1330Y119D01*
X1375Y119D02*
X1376Y119D01*
X1233Y118D02*
X1238Y118D01*
X1299Y118D02*
X1302Y118D01*
X1327Y118D02*
X1330Y118D01*
X1375Y118D02*
X1376Y118D01*
X1233Y117D02*
X1238Y117D01*
X1299Y117D02*
X1302Y117D01*
X1327Y117D02*
X1330Y117D01*
X1375Y117D02*
X1376Y117D01*
X1233Y116D02*
X1238Y116D01*
X1299Y116D02*
X1302Y116D01*
X1327Y116D02*
X1330Y116D01*
X1375Y116D02*
X1376Y116D01*
X1233Y115D02*
X1238Y115D01*
X1299Y115D02*
X1303Y115D01*
X1327Y115D02*
X1330Y115D01*
X1375Y115D02*
X1376Y115D01*
X1233Y114D02*
X1238Y114D01*
X1299Y114D02*
X1330Y114D01*
X1375Y114D02*
X1376Y114D01*
X1233Y113D02*
X1238Y113D01*
X1299Y113D02*
X1330Y113D01*
X1375Y113D02*
X1376Y113D01*
X1233Y112D02*
X1238Y112D01*
X1299Y112D02*
X1330Y112D01*
X1375Y112D02*
X1376Y112D01*
X1233Y111D02*
X1238Y111D01*
X1299Y111D02*
X1330Y111D01*
X1375Y111D02*
X1376Y111D01*
X1233Y110D02*
X1238Y110D01*
X1327Y110D02*
X1330Y110D01*
X1375Y110D02*
X1376Y110D01*
X1233Y109D02*
X1238Y109D01*
X1327Y109D02*
X1330Y109D01*
X1375Y109D02*
X1376Y109D01*
X1233Y108D02*
X1238Y108D01*
X1327Y108D02*
X1330Y108D01*
X1375Y108D02*
X1376Y108D01*
X1233Y107D02*
X1238Y107D01*
X1327Y107D02*
X1330Y107D01*
X1375Y107D02*
X1376Y107D01*
X1233Y106D02*
X1238Y106D01*
X1317Y106D02*
X1330Y106D01*
X1375Y106D02*
X1376Y106D01*
X1237Y105D02*
X1238Y105D01*
X1317Y105D02*
X1330Y105D01*
X1375Y105D02*
X1376Y105D01*
X1237Y104D02*
X1238Y104D01*
X1317Y104D02*
X1330Y104D01*
X1375Y104D02*
X1376Y104D01*
X1237Y103D02*
X1238Y103D01*
X1317Y103D02*
X1330Y103D01*
X1375Y103D02*
X1376Y103D01*
X1237Y102D02*
X1238Y102D01*
X1375Y102D02*
X1376Y102D01*
X1237Y101D02*
X1238Y101D01*
X1375Y101D02*
X1376Y101D01*
X1237Y100D02*
X1238Y100D01*
X1375Y100D02*
X1376Y100D01*
X1237Y99D02*
X1238Y99D01*
X1375Y99D02*
X1376Y99D01*
X1237Y98D02*
X1238Y98D01*
X1375Y98D02*
X1376Y98D01*
X1237Y97D02*
X1238Y97D01*
X1375Y97D02*
X1376Y97D01*
X1237Y96D02*
X1238Y96D01*
X1375Y96D02*
X1376Y96D01*
X1237Y95D02*
X1238Y95D01*
X1375Y95D02*
X1376Y95D01*
X1237Y94D02*
X1238Y94D01*
X1375Y94D02*
X1376Y94D01*
X1237Y93D02*
X1238Y93D01*
X1300Y93D02*
X1301Y93D01*
X1329Y93D02*
X1329Y93D01*
X1375Y93D02*
X1376Y93D01*
X1237Y92D02*
X1238Y92D01*
X1300Y92D02*
X1302Y92D01*
X1327Y92D02*
X1330Y92D01*
X1375Y92D02*
X1376Y92D01*
X1237Y91D02*
X1238Y91D01*
X1301Y91D02*
X1302Y91D01*
X1327Y91D02*
X1330Y91D01*
X1375Y91D02*
X1376Y91D01*
X1237Y90D02*
X1238Y90D01*
X1301Y90D02*
X1302Y90D01*
X1327Y90D02*
X1330Y90D01*
X1375Y90D02*
X1376Y90D01*
X1237Y89D02*
X1238Y89D01*
X1301Y89D02*
X1302Y89D01*
X1327Y89D02*
X1330Y89D01*
X1375Y89D02*
X1376Y89D01*
X1237Y88D02*
X1238Y88D01*
X1301Y88D02*
X1302Y88D01*
X1313Y88D02*
X1316Y88D01*
X1327Y88D02*
X1330Y88D01*
X1375Y88D02*
X1376Y88D01*
X1237Y87D02*
X1238Y87D01*
X1301Y87D02*
X1302Y87D01*
X1313Y87D02*
X1316Y87D01*
X1327Y87D02*
X1330Y87D01*
X1375Y87D02*
X1376Y87D01*
X1237Y86D02*
X1238Y86D01*
X1301Y86D02*
X1302Y86D01*
X1313Y86D02*
X1316Y86D01*
X1327Y86D02*
X1330Y86D01*
X1375Y86D02*
X1376Y86D01*
X1237Y85D02*
X1238Y85D01*
X1301Y85D02*
X1302Y85D01*
X1313Y85D02*
X1316Y85D01*
X1327Y85D02*
X1330Y85D01*
X1375Y85D02*
X1376Y85D01*
X1237Y84D02*
X1238Y84D01*
X1301Y84D02*
X1302Y84D01*
X1313Y84D02*
X1316Y84D01*
X1327Y84D02*
X1330Y84D01*
X1375Y84D02*
X1376Y84D01*
X1237Y83D02*
X1238Y83D01*
X1301Y83D02*
X1302Y83D01*
X1313Y83D02*
X1316Y83D01*
X1327Y83D02*
X1330Y83D01*
X1375Y83D02*
X1376Y83D01*
X1237Y82D02*
X1238Y82D01*
X1301Y82D02*
X1302Y82D01*
X1313Y82D02*
X1316Y82D01*
X1327Y82D02*
X1330Y82D01*
X1375Y82D02*
X1376Y82D01*
X1237Y81D02*
X1238Y81D01*
X1300Y81D02*
X1302Y81D01*
X1313Y81D02*
X1316Y81D01*
X1327Y81D02*
X1330Y81D01*
X1375Y81D02*
X1376Y81D01*
X1237Y80D02*
X1238Y80D01*
X1300Y80D02*
X1302Y80D01*
X1313Y80D02*
X1316Y80D01*
X1327Y80D02*
X1330Y80D01*
X1375Y80D02*
X1376Y80D01*
X1237Y79D02*
X1238Y79D01*
X1300Y79D02*
X1302Y79D01*
X1313Y79D02*
X1316Y79D01*
X1327Y79D02*
X1330Y79D01*
X1375Y79D02*
X1376Y79D01*
X1237Y78D02*
X1238Y78D01*
X1299Y78D02*
X1302Y78D01*
X1313Y78D02*
X1316Y78D01*
X1327Y78D02*
X1330Y78D01*
X1375Y78D02*
X1376Y78D01*
X1237Y77D02*
X1238Y77D01*
X1299Y77D02*
X1302Y77D01*
X1312Y77D02*
X1317Y77D01*
X1327Y77D02*
X1330Y77D01*
X1375Y77D02*
X1376Y77D01*
X1237Y76D02*
X1238Y76D01*
X1299Y76D02*
X1330Y76D01*
X1375Y76D02*
X1376Y76D01*
X1237Y75D02*
X1238Y75D01*
X1299Y75D02*
X1330Y75D01*
X1375Y75D02*
X1376Y75D01*
X1237Y74D02*
X1238Y74D01*
X1300Y74D02*
X1329Y74D01*
X1375Y74D02*
X1376Y74D01*
X1237Y73D02*
X1238Y73D01*
X1301Y73D02*
X1313Y73D01*
X1317Y73D02*
X1328Y73D01*
X1375Y73D02*
X1376Y73D01*
X1237Y72D02*
X1238Y72D01*
X1375Y72D02*
X1376Y72D01*
X1237Y71D02*
X1238Y71D01*
X1375Y71D02*
X1376Y71D01*
X1237Y70D02*
X1238Y70D01*
X1375Y70D02*
X1376Y70D01*
X1233Y69D02*
X1238Y69D01*
X1375Y69D02*
X1376Y69D01*
X1233Y68D02*
X1238Y68D01*
X1375Y68D02*
X1376Y68D01*
X1233Y67D02*
X1238Y67D01*
X1375Y67D02*
X1376Y67D01*
X1233Y66D02*
X1238Y66D01*
X1375Y66D02*
X1376Y66D01*
X1233Y65D02*
X1238Y65D01*
X1375Y65D02*
X1376Y65D01*
X1233Y64D02*
X1238Y64D01*
X1375Y64D02*
X1376Y64D01*
X1233Y63D02*
X1238Y63D01*
X1375Y63D02*
X1376Y63D01*
X1233Y62D02*
X1238Y62D01*
X1299Y62D02*
X1302Y62D01*
X1327Y62D02*
X1330Y62D01*
X1375Y62D02*
X1376Y62D01*
X1233Y61D02*
X1238Y61D01*
X1299Y61D02*
X1302Y61D01*
X1327Y61D02*
X1330Y61D01*
X1375Y61D02*
X1376Y61D01*
X1233Y60D02*
X1238Y60D01*
X1299Y60D02*
X1302Y60D01*
X1327Y60D02*
X1330Y60D01*
X1375Y60D02*
X1376Y60D01*
X1233Y59D02*
X1238Y59D01*
X1299Y59D02*
X1302Y59D01*
X1327Y59D02*
X1330Y59D01*
X1375Y59D02*
X1376Y59D01*
X1233Y58D02*
X1238Y58D01*
X1299Y58D02*
X1302Y58D01*
X1313Y58D02*
X1316Y58D01*
X1327Y58D02*
X1330Y58D01*
X1375Y58D02*
X1376Y58D01*
X1233Y57D02*
X1238Y57D01*
X1299Y57D02*
X1302Y57D01*
X1313Y57D02*
X1316Y57D01*
X1327Y57D02*
X1330Y57D01*
X1375Y57D02*
X1376Y57D01*
X1233Y56D02*
X1238Y56D01*
X1299Y56D02*
X1302Y56D01*
X1313Y56D02*
X1316Y56D01*
X1327Y56D02*
X1330Y56D01*
X1375Y56D02*
X1376Y56D01*
X1237Y55D02*
X1238Y55D01*
X1299Y55D02*
X1302Y55D01*
X1313Y55D02*
X1316Y55D01*
X1327Y55D02*
X1330Y55D01*
X1375Y55D02*
X1376Y55D01*
X1237Y54D02*
X1238Y54D01*
X1299Y54D02*
X1302Y54D01*
X1313Y54D02*
X1316Y54D01*
X1327Y54D02*
X1330Y54D01*
X1375Y54D02*
X1376Y54D01*
X1237Y53D02*
X1238Y53D01*
X1299Y53D02*
X1302Y53D01*
X1313Y53D02*
X1316Y53D01*
X1327Y53D02*
X1330Y53D01*
X1375Y53D02*
X1376Y53D01*
X1237Y52D02*
X1238Y52D01*
X1299Y52D02*
X1302Y52D01*
X1313Y52D02*
X1316Y52D01*
X1327Y52D02*
X1330Y52D01*
X1375Y52D02*
X1376Y52D01*
X1237Y51D02*
X1238Y51D01*
X1299Y51D02*
X1302Y51D01*
X1313Y51D02*
X1316Y51D01*
X1327Y51D02*
X1330Y51D01*
X1375Y51D02*
X1376Y51D01*
X1237Y50D02*
X1238Y50D01*
X1299Y50D02*
X1302Y50D01*
X1313Y50D02*
X1316Y50D01*
X1327Y50D02*
X1330Y50D01*
X1375Y50D02*
X1376Y50D01*
X1237Y49D02*
X1238Y49D01*
X1299Y49D02*
X1302Y49D01*
X1313Y49D02*
X1316Y49D01*
X1327Y49D02*
X1329Y49D01*
X1375Y49D02*
X1376Y49D01*
X1237Y48D02*
X1238Y48D01*
X1299Y48D02*
X1302Y48D01*
X1313Y48D02*
X1316Y48D01*
X1327Y48D02*
X1329Y48D01*
X1375Y48D02*
X1376Y48D01*
X1237Y47D02*
X1238Y47D01*
X1299Y47D02*
X1302Y47D01*
X1312Y47D02*
X1317Y47D01*
X1327Y47D02*
X1328Y47D01*
X1375Y47D02*
X1376Y47D01*
X1237Y46D02*
X1238Y46D01*
X1299Y46D02*
X1328Y46D01*
X1375Y46D02*
X1376Y46D01*
X1237Y45D02*
X1238Y45D01*
X1299Y45D02*
X1327Y45D01*
X1375Y45D02*
X1376Y45D01*
X1237Y44D02*
X1238Y44D01*
X1300Y44D02*
X1327Y44D01*
X1375Y44D02*
X1376Y44D01*
X1237Y43D02*
X1238Y43D01*
X1301Y43D02*
X1313Y43D01*
X1316Y43D02*
X1326Y43D01*
X1375Y43D02*
X1376Y43D01*
X1237Y42D02*
X1238Y42D01*
X1375Y42D02*
X1376Y42D01*
X1237Y41D02*
X1238Y41D01*
X1375Y41D02*
X1376Y41D01*
X1237Y40D02*
X1238Y40D01*
X1375Y40D02*
X1376Y40D01*
X1237Y39D02*
X1238Y39D01*
X1375Y39D02*
X1376Y39D01*
X1237Y38D02*
X1238Y38D01*
X1375Y38D02*
X1376Y38D01*
X1237Y37D02*
X1238Y37D01*
X1376Y37D02*
X1376Y37D01*
X1237Y36D02*
X1238Y36D01*
X1376Y36D02*
X1376Y36D01*
X1237Y35D02*
X1238Y35D01*
X1375Y35D02*
X1376Y35D01*
X1237Y34D02*
X1238Y34D01*
X1375Y34D02*
X1376Y34D01*
X1237Y33D02*
X1238Y33D01*
X1375Y33D02*
X1376Y33D01*
X1237Y32D02*
X1238Y32D01*
X1315Y32D02*
X1326Y32D01*
X1375Y32D02*
X1376Y32D01*
X1237Y31D02*
X1238Y31D01*
X1314Y31D02*
X1326Y31D01*
X1375Y31D02*
X1376Y31D01*
X1237Y30D02*
X1238Y30D01*
X1313Y30D02*
X1326Y30D01*
X1375Y30D02*
X1376Y30D01*
X1237Y29D02*
X1238Y29D01*
X1313Y29D02*
X1327Y29D01*
X1375Y29D02*
X1376Y29D01*
X1237Y28D02*
X1238Y28D01*
X1299Y28D02*
X1316Y28D01*
X1327Y28D02*
X1327Y28D01*
X1375Y28D02*
X1376Y28D01*
X1389Y28D02*
X1390Y28D01*
X1237Y27D02*
X1238Y27D01*
X1299Y27D02*
X1316Y27D01*
X1327Y27D02*
X1328Y27D01*
X1375Y27D02*
X1376Y27D01*
X1388Y27D02*
X1391Y27D01*
X1237Y26D02*
X1238Y26D01*
X1299Y26D02*
X1316Y26D01*
X1327Y26D02*
X1328Y26D01*
X1375Y26D02*
X1376Y26D01*
X1387Y26D02*
X1392Y26D01*
X1237Y25D02*
X1238Y25D01*
X1299Y25D02*
X1316Y25D01*
X1327Y25D02*
X1329Y25D01*
X1375Y25D02*
X1376Y25D01*
X1387Y25D02*
X1392Y25D01*
X1237Y24D02*
X1238Y24D01*
X1299Y24D02*
X1302Y24D01*
X1313Y24D02*
X1316Y24D01*
X1327Y24D02*
X1329Y24D01*
X1375Y24D02*
X1376Y24D01*
X1387Y24D02*
X1392Y24D01*
X1237Y23D02*
X1238Y23D01*
X1299Y23D02*
X1302Y23D01*
X1313Y23D02*
X1316Y23D01*
X1327Y23D02*
X1330Y23D01*
X1375Y23D02*
X1376Y23D01*
X1387Y23D02*
X1392Y23D01*
X1237Y22D02*
X1238Y22D01*
X1299Y22D02*
X1302Y22D01*
X1313Y22D02*
X1316Y22D01*
X1327Y22D02*
X1330Y22D01*
X1375Y22D02*
X1376Y22D01*
X1386Y22D02*
X1392Y22D01*
X1237Y21D02*
X1239Y21D01*
X1299Y21D02*
X1302Y21D01*
X1313Y21D02*
X1316Y21D01*
X1327Y21D02*
X1330Y21D01*
X1375Y21D02*
X1376Y21D01*
X1386Y21D02*
X1391Y21D01*
X1237Y20D02*
X1239Y20D01*
X1299Y20D02*
X1316Y20D01*
X1327Y20D02*
X1330Y20D01*
X1375Y20D02*
X1376Y20D01*
X1386Y20D02*
X1391Y20D01*
X1234Y19D02*
X1239Y19D01*
X1299Y19D02*
X1316Y19D01*
X1327Y19D02*
X1330Y19D01*
X1375Y19D02*
X1376Y19D01*
X1385Y19D02*
X1391Y19D01*
X1235Y18D02*
X1240Y18D01*
X1299Y18D02*
X1316Y18D01*
X1327Y18D02*
X1330Y18D01*
X1375Y18D02*
X1376Y18D01*
X1385Y18D02*
X1390Y18D01*
X1235Y17D02*
X1241Y17D01*
X1299Y17D02*
X1316Y17D01*
X1327Y17D02*
X1330Y17D01*
X1375Y17D02*
X1376Y17D01*
X1384Y17D02*
X1390Y17D01*
X1236Y16D02*
X1242Y16D01*
X1313Y16D02*
X1330Y16D01*
X1375Y16D02*
X1376Y16D01*
X1383Y16D02*
X1389Y16D01*
X1236Y15D02*
X1243Y15D01*
X1313Y15D02*
X1330Y15D01*
X1375Y15D02*
X1376Y15D01*
X1382Y15D02*
X1388Y15D01*
X1237Y14D02*
X1245Y14D01*
X1314Y14D02*
X1330Y14D01*
X1375Y14D02*
X1376Y14D01*
X1380Y14D02*
X1388Y14D01*
X1238Y13D02*
X1344Y13D01*
X1357Y13D02*
X1387Y13D01*
X1239Y12D02*
X1348Y12D01*
X1352Y12D02*
X1386Y12D01*
X1240Y11D02*
X1385Y11D01*
X1242Y10D02*
X1383Y10D01*
X1243Y9D02*
X1381Y9D01*
X1246Y8D02*
X1379Y8D01*
D02*
G04 End of Silk0*
M02*