G04 MADE WITH FRITZING*
G04 WWW.FRITZING.ORG*
G04 DOUBLE SIDED*
G04 HOLES PLATED*
G04 CONTOUR ON CENTER OF CONTOUR VECTOR*
%ASAXBY*%
%FSLAX23Y23*%
%MOIN*%
%OFA0B0*%
%SFA1.0B1.0*%
%ADD10C,0.049370*%
%ADD11C,0.057244*%
%ADD12C,0.088740*%
%ADD13R,0.166000X0.166000*%
%ADD14R,0.135000X0.135000*%
%ADD15R,0.049370X0.108425*%
%ADD16R,0.108425X0.246221*%
%ADD17R,0.057244X0.031653*%
%ADD18R,0.167480X0.088740*%
%ADD19R,0.057244X0.053307*%
%ADD20R,0.090000X0.036000*%
%ADD21R,0.053307X0.057244*%
%ADD22R,0.088740X0.088740*%
%ADD23R,0.001000X0.001000*%
%LNMASK0*%
G90*
G70*
G54D10*
X1206Y1163D03*
X1351Y36D03*
X668Y1388D03*
X664Y1022D03*
X611Y1014D03*
G54D11*
X115Y1480D03*
X165Y1490D03*
X215Y1480D03*
X265Y1490D03*
X315Y1480D03*
X365Y1490D03*
X415Y1480D03*
X465Y1490D03*
X515Y1480D03*
X565Y1490D03*
X615Y1480D03*
X665Y1490D03*
X715Y1480D03*
X767Y1436D03*
X767Y1386D03*
X767Y1336D03*
X767Y1286D03*
X767Y1236D03*
X767Y1186D03*
G54D10*
X1011Y766D03*
X196Y284D03*
X46Y603D03*
X1312Y390D03*
X1062Y875D03*
X1243Y390D03*
X708Y556D03*
X771Y556D03*
X412Y666D03*
X456Y1020D03*
X739Y138D03*
X739Y35D03*
X1277Y86D03*
X952Y822D03*
G54D12*
X211Y753D03*
X111Y753D03*
X211Y853D03*
X111Y853D03*
X211Y953D03*
X111Y953D03*
X940Y410D03*
X840Y410D03*
X740Y410D03*
X640Y410D03*
G54D10*
X554Y1237D03*
X499Y1288D03*
G54D13*
X1206Y1163D03*
G54D14*
X1206Y853D03*
G54D15*
X1356Y274D03*
G54D16*
X1406Y474D03*
G54D17*
X1292Y514D03*
X1292Y477D03*
X1292Y440D03*
X1190Y440D03*
X1190Y514D03*
G54D18*
X1208Y727D03*
X1209Y605D03*
G54D19*
X1359Y646D03*
X1426Y646D03*
G54D20*
X1192Y37D03*
X1192Y87D03*
X1192Y137D03*
X1192Y187D03*
G54D21*
X1271Y310D03*
X1271Y244D03*
G54D19*
X1426Y741D03*
X1359Y741D03*
G54D22*
X211Y753D03*
G54D23*
X1138Y1535D02*
X1272Y1535D01*
X1138Y1534D02*
X1272Y1534D01*
X1138Y1533D02*
X1272Y1533D01*
X1138Y1532D02*
X1272Y1532D01*
X1138Y1531D02*
X1272Y1531D01*
X1138Y1530D02*
X1272Y1530D01*
X1138Y1529D02*
X1272Y1529D01*
X1138Y1528D02*
X1272Y1528D01*
X1138Y1527D02*
X1272Y1527D01*
X1138Y1526D02*
X1272Y1526D01*
X1138Y1525D02*
X1272Y1525D01*
X1138Y1524D02*
X1272Y1524D01*
X1138Y1523D02*
X1272Y1523D01*
X1138Y1522D02*
X1272Y1522D01*
X1138Y1521D02*
X1272Y1521D01*
X1138Y1520D02*
X1272Y1520D01*
X1138Y1519D02*
X1272Y1519D01*
X1138Y1518D02*
X1272Y1518D01*
X1138Y1517D02*
X1272Y1517D01*
X1138Y1516D02*
X1272Y1516D01*
X1138Y1515D02*
X1272Y1515D01*
X1138Y1514D02*
X1272Y1514D01*
X1138Y1513D02*
X1272Y1513D01*
X1138Y1512D02*
X1272Y1512D01*
X1138Y1511D02*
X1272Y1511D01*
X1138Y1510D02*
X1272Y1510D01*
X1138Y1509D02*
X1272Y1509D01*
X1138Y1508D02*
X1272Y1508D01*
X1138Y1507D02*
X1272Y1507D01*
X1138Y1506D02*
X1272Y1506D01*
X1138Y1505D02*
X1272Y1505D01*
X1138Y1504D02*
X1272Y1504D01*
X1138Y1503D02*
X1272Y1503D01*
X1138Y1502D02*
X1272Y1502D01*
X1138Y1501D02*
X1272Y1501D01*
X1138Y1500D02*
X1272Y1500D01*
X1138Y1499D02*
X1272Y1499D01*
X1138Y1498D02*
X1272Y1498D01*
X1138Y1497D02*
X1272Y1497D01*
X1138Y1496D02*
X1272Y1496D01*
X1138Y1495D02*
X1272Y1495D01*
X1138Y1494D02*
X1272Y1494D01*
X1138Y1493D02*
X1272Y1493D01*
X1138Y1492D02*
X1272Y1492D01*
X1138Y1491D02*
X1272Y1491D01*
X1138Y1490D02*
X1272Y1490D01*
X1138Y1489D02*
X1272Y1489D01*
X1138Y1488D02*
X1272Y1488D01*
X1138Y1487D02*
X1272Y1487D01*
X1138Y1486D02*
X1272Y1486D01*
X1138Y1485D02*
X1272Y1485D01*
X1138Y1484D02*
X1272Y1484D01*
X1138Y1483D02*
X1272Y1483D01*
X1138Y1482D02*
X1272Y1482D01*
X1138Y1481D02*
X1272Y1481D01*
X1138Y1480D02*
X1272Y1480D01*
X1138Y1479D02*
X1272Y1479D01*
X1138Y1478D02*
X1272Y1478D01*
X1138Y1477D02*
X1272Y1477D01*
X1138Y1476D02*
X1272Y1476D01*
X1138Y1475D02*
X1272Y1475D01*
X1138Y1474D02*
X1272Y1474D01*
X1138Y1473D02*
X1272Y1473D01*
X1138Y1472D02*
X1272Y1472D01*
X1138Y1471D02*
X1272Y1471D01*
X1138Y1470D02*
X1272Y1470D01*
X1138Y1469D02*
X1272Y1469D01*
X1138Y1468D02*
X1272Y1468D01*
X1138Y1467D02*
X1272Y1467D01*
X1138Y1466D02*
X1272Y1466D01*
X1138Y1465D02*
X1272Y1465D01*
X1138Y1464D02*
X1272Y1464D01*
X1138Y1463D02*
X1272Y1463D01*
X1138Y1462D02*
X1272Y1462D01*
X1138Y1461D02*
X1272Y1461D01*
X1138Y1460D02*
X1272Y1460D01*
X1138Y1459D02*
X1272Y1459D01*
X1138Y1458D02*
X1272Y1458D01*
X1138Y1457D02*
X1272Y1457D01*
X1138Y1456D02*
X1272Y1456D01*
X1138Y1455D02*
X1272Y1455D01*
X1138Y1454D02*
X1272Y1454D01*
X1138Y1453D02*
X1272Y1453D01*
X1138Y1452D02*
X1272Y1452D01*
X1138Y1451D02*
X1272Y1451D01*
X1138Y1450D02*
X1272Y1450D01*
X1138Y1449D02*
X1272Y1449D01*
X1138Y1448D02*
X1272Y1448D01*
X1138Y1447D02*
X1272Y1447D01*
X1138Y1446D02*
X1272Y1446D01*
X1138Y1445D02*
X1272Y1445D01*
X1138Y1444D02*
X1272Y1444D01*
X1138Y1443D02*
X1272Y1443D01*
X1138Y1442D02*
X1272Y1442D01*
X1138Y1441D02*
X1272Y1441D01*
X1138Y1440D02*
X1272Y1440D01*
X1138Y1439D02*
X1272Y1439D01*
X1138Y1438D02*
X1272Y1438D01*
X1138Y1437D02*
X1272Y1437D01*
X1138Y1436D02*
X1272Y1436D01*
X1138Y1435D02*
X1272Y1435D01*
X1138Y1434D02*
X1272Y1434D01*
X1138Y1433D02*
X1272Y1433D01*
X1138Y1432D02*
X1272Y1432D01*
X1138Y1431D02*
X1272Y1431D01*
X1138Y1430D02*
X1272Y1430D01*
X1138Y1429D02*
X1272Y1429D01*
X1138Y1428D02*
X1272Y1428D01*
X1138Y1427D02*
X1272Y1427D01*
X1138Y1426D02*
X1272Y1426D01*
X1138Y1425D02*
X1272Y1425D01*
X1138Y1424D02*
X1272Y1424D01*
X1138Y1423D02*
X1272Y1423D01*
X1138Y1422D02*
X1272Y1422D01*
X1138Y1421D02*
X1272Y1421D01*
X1138Y1420D02*
X1272Y1420D01*
X1138Y1419D02*
X1272Y1419D01*
X1138Y1418D02*
X1272Y1418D01*
X1138Y1417D02*
X1272Y1417D01*
X1138Y1416D02*
X1272Y1416D01*
X1138Y1415D02*
X1272Y1415D01*
X1138Y1414D02*
X1272Y1414D01*
X1138Y1413D02*
X1272Y1413D01*
X1138Y1412D02*
X1272Y1412D01*
X1138Y1411D02*
X1272Y1411D01*
X1138Y1410D02*
X1272Y1410D01*
X1138Y1409D02*
X1272Y1409D01*
X1138Y1408D02*
X1272Y1408D01*
X1138Y1407D02*
X1272Y1407D01*
X1138Y1406D02*
X1272Y1406D01*
D02*
G04 End of Mask0*
M02*